SplineFontDB: 3.0
FontName: Distinguish-Light
FullName: Distinguish Light
FamilyName: Distinguish
Weight: Light
Copyright: Copyright 2015 Google Inc. All Rights Reserved.
Version: 2.000;GOOG;noto-source:20170915:90ef993387c0; ttfautohint (v1.7)
ItalicAngle: 0
UnderlinePosition: -125
UnderlineWidth: 50
Ascent: 800
Descent: 200
InvalidEm: 0
sfntRevision: 0x00020000
LayerCount: 2
Layer: 0 1 "Back" 1
Layer: 1 1 "Fore" 0
XUID: [1021 269 1684064080 10467960]
StyleMap: 0x0000
FSType: 0
OS2Version: 4
OS2_WeightWidthSlopeOnly: 1
OS2_UseTypoMetrics: 0
CreationTime: 1458096639
ModificationTime: 1516679206
PfmFamily: 17
TTFWeight: 300
TTFWidth: 5
LineGap: 0
VLineGap: 0
Panose: 2 11 4 2 4 5 4 2 2 4
OS2TypoAscent: 1069
OS2TypoAOffset: 0
OS2TypoDescent: -293
OS2TypoDOffset: 0
OS2TypoLinegap: 0
OS2WinAscent: 1069
OS2WinAOffset: 0
OS2WinDescent: 293
OS2WinDOffset: 0
HheadAscent: 1069
HheadAOffset: 0
HheadDescent: -293
HheadDOffset: 0
OS2SubXSize: 650
OS2SubYSize: 600
OS2SubXOff: 0
OS2SubYOff: 75
OS2SupXSize: 650
OS2SupYSize: 600
OS2SupXOff: 0
OS2SupYOff: 350
OS2StrikeYSize: 50
OS2StrikeYPos: 322
OS2CapHeight: 714
OS2XHeight: 536
OS2Vendor: 'GOOG'
OS2CodePages: 00000000.00000000
OS2UnicodeRanges: e00002ff.4000001f.08000029.00100000
Lookup: 1 0 0 "'aalt' Access All Alternates lookup 0" { "'aalt' Access All Alternates lookup 0 subtable"  } ['aalt' ('DFLT' <'dflt' > 'cyrl' <'dflt' > 'grek' <'dflt' > 'latn' <'CAT ' 'MAH ' 'MOL ' 'NAV ' 'ROM ' 'dflt' > ) ]
Lookup: 3 0 0 "'aalt' Access All Alternates lookup 1" { "'aalt' Access All Alternates lookup 1 subtable"  } ['aalt' ('DFLT' <'dflt' > 'cyrl' <'dflt' > 'grek' <'dflt' > 'latn' <'CAT ' 'MAH ' 'MOL ' 'NAV ' 'ROM ' 'dflt' > ) ]
Lookup: 4 0 0 "'ccmp' Glyph Composition/Decomposition lookup 2" { "'ccmp' Glyph Composition/Decomposition lookup 2 subtable"  } ['ccmp' ('DFLT' <'dflt' > 'cyrl' <'dflt' > 'grek' <'dflt' > 'latn' <'CAT ' 'MAH ' 'MOL ' 'NAV ' 'ROM ' 'dflt' > ) ]

StartChar: .notdef
Encoding: 65536 -1 0
Width: 600
Flags: W
LayerCount: 2
Fore
SplineSet
94 0 m 1,0,-1
 94 714 l 1,1,-1
 505 714 l 1,2,-1
 505 0 l 1,3,-1
 94 0 l 1,0,-1
145 51 m 1,4,-1
 454 51 l 1,5,-1
 454 663 l 1,6,-1
 145 663 l 1,7,-1
 145 51 l 1,4,-1
EndSplineSet
EndChar

StartChar: exclam
Encoding: 33 33 4
Width: 246
Flags: W
LayerCount: 2
Fore
SplineSet
144 188 m 1,0,-1
 103 188 l 1,1,-1
 90 714 l 1,2,-1
 158 714 l 1,3,-1
 144 188 l 1,0,-1
78 38 m 256,4,5
 78 87 78 87 122 87 c 256,6,7
 166 87 166 87 166 38 c 256,8,9
 166 -11 166 -11 122 -11 c 256,10,11
 78 -11 78 -11 78 38 c 256,4,5
EndSplineSet
Substitution2: "'smcp' Lowercase to Small Capitals lookup 34 subtable" exclam.sc
Substitution2: "'c2sc' Capitals to Small Capitals lookup 33 subtable" exclam.sc
EndChar

StartChar: quotedbl
Encoding: 34 34 5
Width: 364
Flags: W
LayerCount: 2
Fore
SplineSet
130 714 m 1,0,-1
 118 456 l 1,1,-1
 81 456 l 1,2,-1
 69 714 l 1,3,-1
 130 714 l 1,0,-1
295 714 m 1,4,-1
 283 456 l 1,5,-1
 246 456 l 1,6,-1
 234 714 l 1,7,-1
 295 714 l 1,4,-1
EndSplineSet
EndChar

StartChar: numbersign
Encoding: 35 35 6
Width: 646
Flags: W
LayerCount: 2
Fore
SplineSet
474 449 m 1,0,-1
 438 264 l 1,1,-1
 582 264 l 1,2,-1
 582 218 l 1,3,-1
 429 218 l 1,4,-1
 386 0 l 1,5,-1
 338 0 l 1,6,-1
 381 218 l 1,7,-1
 210 218 l 1,8,-1
 168 0 l 1,9,-1
 121 0 l 1,10,-1
 162 218 l 1,11,-1
 26 218 l 1,12,-1
 26 264 l 1,13,-1
 170 264 l 1,14,-1
 207 449 l 1,15,-1
 64 449 l 1,16,-1
 64 494 l 1,17,-1
 215 494 l 1,18,-1
 257 714 l 1,19,-1
 306 714 l 1,20,-1
 264 494 l 1,21,-1
 435 494 l 1,22,-1
 477 714 l 1,23,-1
 524 714 l 1,24,-1
 482 494 l 1,25,-1
 619 494 l 1,26,-1
 619 449 l 1,27,-1
 474 449 l 1,0,-1
218 264 m 1,28,-1
 390 264 l 1,29,-1
 426 449 l 1,30,-1
 254 449 l 1,31,-1
 218 264 l 1,28,-1
EndSplineSet
EndChar

StartChar: dollar
Encoding: 36 36 7
Width: 571
Flags: W
LayerCount: 2
Fore
SplineSet
253 -58 m 1,0,-1
 253 29 l 1,1,2
 194 30 194 30 145 38.5 c 128,-1,3
 96 47 96 47 64 60 c 1,4,-1
 64 117 l 1,5,6
 98 103 98 103 149 92 c 128,-1,7
 200 81 200 81 253 80 c 1,8,-1
 253 340 l 1,9,10
 194 359 194 359 151.5 381.5 c 128,-1,11
 109 404 109 404 86 437.5 c 128,-1,12
 63 471 63 471 63 522 c 0,13,14
 63 598 63 598 115.5 640.5 c 128,-1,15
 168 683 168 683 253 688 c 1,16,-1
 253 759 l 1,17,-1
 297 759 l 1,18,-1
 297 688 l 1,19,20
 391 685 391 685 466 651 c 1,21,-1
 447 602 l 1,22,23
 410 618 410 618 371.5 627 c 128,-1,24
 333 636 333 636 297 638 c 1,25,-1
 297 382 l 1,26,27
 358 362 358 362 401.5 340.5 c 128,-1,28
 445 319 445 319 468.5 286.5 c 128,-1,29
 492 254 492 254 492 203 c 0,30,31
 492 126 492 126 439 82 c 128,-1,32
 386 38 386 38 297 31 c 1,33,-1
 297 -58 l 1,34,-1
 253 -58 l 1,0,-1
253 398 m 1,35,-1
 253 636 l 1,36,37
 192 633 192 633 155.5 605 c 128,-1,38
 119 577 119 577 119 526 c 0,39,40
 119 472 119 472 155 445 c 128,-1,41
 191 418 191 418 253 398 c 1,35,-1
297 83 m 1,42,43
 362 88 362 88 399 117 c 128,-1,44
 436 146 436 146 436 200 c 0,45,46
 436 251 436 251 402 276.5 c 128,-1,47
 368 302 368 302 297 325 c 1,48,-1
 297 83 l 1,42,43
EndSplineSet
EndChar

StartChar: percent
Encoding: 37 37 8
Width: 812
Flags: W
LayerCount: 2
Fore
SplineSet
196 724 m 0,0,1
 267 724 267 724 303 666 c 128,-1,2
 339 608 339 608 339 501 c 0,3,4
 339 392 339 392 302.5 334 c 128,-1,5
 266 276 266 276 195 276 c 0,6,7
 127 276 127 276 90.5 334 c 128,-1,8
 54 392 54 392 54 501 c 256,9,10
 54 610 54 610 90 667 c 128,-1,11
 126 724 126 724 196 724 c 0,0,1
630 714 m 1,12,-1
 234 0 l 1,13,-1
 182 0 l 1,14,-1
 578 714 l 1,15,-1
 630 714 l 1,12,-1
196 680 m 0,16,17
 104 680 104 680 104 501 c 0,18,19
 104 320 104 320 195 320 c 0,20,21
 289 320 289 320 289 501 c 0,22,23
 289 589 289 589 266.5 634.5 c 128,-1,24
 244 680 244 680 196 680 c 0,16,17
615 438 m 0,25,26
 686 438 686 438 722 380 c 128,-1,27
 758 322 758 322 758 215 c 0,28,29
 758 106 758 106 721 48 c 128,-1,30
 684 -10 684 -10 614 -10 c 0,31,32
 545 -10 545 -10 509 48 c 128,-1,33
 473 106 473 106 473 215 c 256,34,35
 473 324 473 324 509 381 c 128,-1,36
 545 438 545 438 615 438 c 0,25,26
615 394 m 0,37,38
 523 394 523 394 523 215 c 0,39,40
 523 34 523 34 614 34 c 0,41,42
 708 34 708 34 708 215 c 0,43,44
 708 303 708 303 685.5 348.5 c 128,-1,45
 663 394 663 394 615 394 c 0,37,38
EndSplineSet
EndChar

StartChar: ampersand
Encoding: 38 38 9
Width: 717
Flags: W
LayerCount: 2
Fore
SplineSet
304 725 m 0,0,1
 378 725 378 725 423 685.5 c 128,-1,2
 468 646 468 646 468 576 c 0,3,4
 468 510 468 510 424.5 466.5 c 128,-1,5
 381 423 381 423 312 386 c 1,6,-1
 530 170 l 1,7,8
 558 203 558 203 578 247 c 128,-1,9
 598 291 598 291 610 342 c 1,10,-1
 668 342 l 1,11,12
 638 216 638 216 566 132 c 1,13,-1
 698 0 l 1,14,-1
 622 0 l 1,15,-1
 528 94 l 1,16,17
 482 48 482 48 424 19 c 128,-1,18
 366 -10 366 -10 280 -10 c 0,19,20
 180 -10 180 -10 119 39.5 c 128,-1,21
 58 89 58 89 58 182 c 0,22,23
 58 236 58 236 78 273.5 c 128,-1,24
 98 311 98 311 135.5 339.5 c 128,-1,25
 173 368 173 368 226 396 c 1,26,27
 184 440 184 440 157 480 c 128,-1,28
 130 520 130 520 130 572 c 0,29,30
 130 642 130 642 177 683.5 c 128,-1,31
 224 725 224 725 304 725 c 0,0,1
302 676 m 0,32,33
 250 676 250 676 218 648.5 c 128,-1,34
 186 621 186 621 186 573 c 0,35,36
 186 532 186 532 209 498 c 128,-1,37
 232 464 232 464 274 421 c 1,38,39
 342 455 342 455 377 490 c 128,-1,40
 412 525 412 525 412 576 c 0,41,42
 412 622 412 622 382 649 c 128,-1,43
 352 676 352 676 302 676 c 0,32,33
262 359 m 1,44,45
 216 335 216 335 183.5 311.5 c 128,-1,46
 151 288 151 288 134 258 c 128,-1,47
 117 228 117 228 117 184 c 0,48,49
 117 117 117 117 162 79 c 128,-1,50
 207 41 207 41 281 41 c 0,51,52
 354 41 354 41 403.5 66 c 128,-1,53
 453 91 453 91 492 130 c 1,54,-1
 262 359 l 1,44,45
EndSplineSet
Substitution2: "'smcp' Lowercase to Small Capitals lookup 34 subtable" ampersand.sc
Substitution2: "'c2sc' Capitals to Small Capitals lookup 33 subtable" ampersand.sc
EndChar

StartChar: quotesingle
Encoding: 39 39 10
Width: 198
Flags: W
LayerCount: 2
Fore
SplineSet
130 714 m 1,0,-1
 118 456 l 1,1,-1
 81 456 l 1,2,-1
 69 714 l 1,3,-1
 130 714 l 1,0,-1
EndSplineSet
EndChar

StartChar: parenleft
Encoding: 40 40 11
Width: 278
Flags: W
LayerCount: 2
Fore
SplineSet
41 274 m 0,0,1
 41 402 41 402 78 515 c 128,-1,2
 115 628 115 628 187 714 c 1,3,-1
 245 714 l 1,4,5
 172 622 172 622 135.5 509.5 c 128,-1,6
 99 397 99 397 99 275 c 0,7,8
 99 154 99 154 135.5 44 c 128,-1,9
 172 -66 172 -66 244 -158 c 1,10,-1
 187 -158 l 1,11,12
 115 -72 115 -72 78 38 c 128,-1,13
 41 148 41 148 41 274 c 0,0,1
EndSplineSet
Substitution2: "'smcp' Lowercase to Small Capitals lookup 34 subtable" parenleft.sc
Substitution2: "'c2sc' Capitals to Small Capitals lookup 33 subtable" parenleft.sc
Substitution2: "'sups' Superscript lookup 19 subtable" uni207D
Substitution2: "'subs' Subscript lookup 18 subtable" uni208D
EndChar

StartChar: parenright
Encoding: 41 41 12
Width: 278
Flags: W
LayerCount: 2
Fore
SplineSet
237 278 m 256,0,1
 237 151 237 151 200 38.5 c 128,-1,2
 163 -74 163 -74 91 -158 c 1,3,-1
 34 -158 l 1,4,5
 107 -66 107 -66 143 45 c 128,-1,6
 179 156 179 156 179 278 c 256,7,8
 179 400 179 400 142.5 511 c 128,-1,9
 106 622 106 622 33 714 c 1,10,-1
 91 714 l 1,11,12
 163 627 163 627 200 516 c 128,-1,13
 237 405 237 405 237 278 c 256,0,1
EndSplineSet
Substitution2: "'smcp' Lowercase to Small Capitals lookup 34 subtable" parenright.sc
Substitution2: "'c2sc' Capitals to Small Capitals lookup 33 subtable" parenright.sc
Substitution2: "'sups' Superscript lookup 19 subtable" uni207E
Substitution2: "'subs' Subscript lookup 18 subtable" uni208E
EndChar

StartChar: asterisk
Encoding: 42 42 13
Width: 551
Flags: W
LayerCount: 2
Fore
SplineSet
304 759 m 1,0,-1
 292 560 l 1,1,-1
 484 622 l 1,2,-1
 496 562 l 1,3,-1
 306 526 l 1,4,-1
 428 366 l 1,5,-1
 373 334 l 1,6,-1
 272 506 l 1,7,-1
 176 334 l 1,8,-1
 120 366 l 1,9,-1
 242 526 l 1,10,-1
 52 562 l 1,11,-1
 63 622 l 1,12,-1
 255 560 l 1,13,-1
 242 759 l 1,14,-1
 304 759 l 1,0,-1
EndSplineSet
EndChar

StartChar: plus
Encoding: 43 43 14
Width: 571
Flags: W
LayerCount: 2
Fore
SplineSet
309 376 m 1,0,-1
 518 376 l 1,1,-1
 518 329 l 1,2,-1
 309 329 l 1,3,-1
 309 117 l 1,4,-1
 261 117 l 1,5,-1
 261 329 l 1,6,-1
 52 329 l 1,7,-1
 52 376 l 1,8,-1
 261 376 l 1,9,-1
 261 589 l 1,10,-1
 309 589 l 1,11,-1
 309 376 l 1,0,-1
EndSplineSet
Substitution2: "'sups' Superscript lookup 19 subtable" uni207A
Substitution2: "'subs' Subscript lookup 18 subtable" uni208A
EndChar

StartChar: comma
Encoding: 44 44 15
Width: 226
Flags: W
LayerCount: 2
Fore
SplineSet
154 116 m 1,0,-1
 158 104 l 1,1,2
 146 50 146 50 126 -13 c 128,-1,3
 106 -76 106 -76 83 -129 c 1,4,-1
 40 -129 l 1,5,6
 77 4 77 4 92 116 c 1,7,-1
 154 116 l 1,0,-1
EndSplineSet
EndChar

StartChar: hyphen
Encoding: 45 45 16
Width: 322
Flags: W
LayerCount: 2
Fore
SplineSet
40 244 m 1,0,-1
 40 296 l 1,1,-1
 282 296 l 1,2,-1
 282 244 l 1,3,-1
 40 244 l 1,0,-1
EndSplineSet
EndChar

StartChar: period
Encoding: 46 46 17
Width: 244
Flags: W
LayerCount: 2
Fore
SplineSet
78 38 m 256,0,1
 78 87 78 87 122 87 c 256,2,3
 166 87 166 87 166 38 c 256,4,5
 166 -11 166 -11 122 -11 c 256,6,7
 78 -11 78 -11 78 38 c 256,0,1
EndSplineSet
EndChar

StartChar: slash
Encoding: 47 47 18
Width: 347
Flags: W
LayerCount: 2
Fore
SplineSet
336 714 m 1,0,-1
 68 0 l 1,1,-1
 12 0 l 1,2,-1
 278 714 l 1,3,-1
 336 714 l 1,0,-1
EndSplineSet
Substitution2: "'frac' Diagonal Fractions lookup 22 subtable" fraction
EndChar

StartChar: zero
Encoding: 48 48 19
Width: 600
Flags: W
LayerCount: 2
Fore
SplineSet
300 -10 m 4,0,1
 185 -10 185 -10 129.5 83 c 132,-1,2
 74 176 74 176 74 358 c 4,3,4
 74 470 74 470 96 552 c 132,-1,5
 118 634 118 634 168 679 c 132,-1,6
 218 724 218 724 301 724 c 260,7,8
 384 724 384 724 433 679.5 c 132,-1,9
 482 635 482 635 504 553.5 c 132,-1,10
 526 472 526 472 526 362 c 4,11,12
 526 180 526 180 472 85 c 132,-1,13
 418 -10 418 -10 300 -10 c 4,0,1
129 359 m 4,14,15
 129 240 129 240 152 166 c 5,16,-1
 417 617 l 5,17,18
 376 672 376 672 301 672 c 4,19,20
 206 672 206 672 167.5 589.5 c 132,-1,21
 129 507 129 507 129 359 c 4,14,15
300 42 m 4,22,23
 389 42 389 42 430.5 120 c 132,-1,24
 472 198 472 198 472 360 c 4,25,26
 472 422 472 422 465.5 473 c 132,-1,27
 459 524 459 524 445 563 c 5,28,-1
 177 109 l 5,29,30
 219 42 219 42 300 42 c 4,22,23
EndSplineSet
Substitution2: "'zero' Slashed Zero lookup 37 subtable" zero.slash
Substitution2: "'case' Case-Sensitive Forms lookup 35 subtable" zero.lf
Substitution2: "'onum' Oldstyle Figures lookup 32 subtable" zero.tosf
Substitution2: "'pnum' Proportional Numbers lookup 30 subtable" zero.lf
Substitution2: "'frac' Diagonal Fractions lookup 23 subtable" zero.numr
Substitution2: "'dnom' Denominators lookup 21 subtable" zero.dnom
Substitution2: "'numr' Numerators lookup 20 subtable" zero.numr
Substitution2: "'sups' Superscript lookup 19 subtable" uni2070
Substitution2: "'subs' Subscript lookup 18 subtable" uni2080
EndChar

StartChar: one
Encoding: 49 49 20
Width: 571
Flags: W
LayerCount: 2
Fore
SplineSet
338 0 m 1,0,-1
 282 0 l 1,1,-1
 282 531 l 2,2,3
 282 574 282 574 282 601.5 c 128,-1,4
 282 629 282 629 284 654 c 1,5,6
 270 640 270 640 258 630 c 128,-1,7
 246 620 246 620 226 604 c 2,8,-1
 126 528 l 1,9,-1
 96 568 l 1,10,-1
 290 714 l 1,11,-1
 338 714 l 1,12,-1
 338 0 l 1,0,-1
EndSplineSet
Substitution2: "'case' Case-Sensitive Forms lookup 35 subtable" one.lf
Substitution2: "'onum' Oldstyle Figures lookup 32 subtable" one.tosf
Substitution2: "'pnum' Proportional Numbers lookup 30 subtable" one.lf
Substitution2: "'frac' Diagonal Fractions lookup 23 subtable" one.numr
Substitution2: "'dnom' Denominators lookup 21 subtable" one.dnom
Substitution2: "'numr' Numerators lookup 20 subtable" one.numr
Substitution2: "'sups' Superscript lookup 19 subtable" uni00B9
Substitution2: "'subs' Subscript lookup 18 subtable" uni2081
EndChar

StartChar: two
Encoding: 50 50 21
Width: 571
Flags: W
LayerCount: 2
Fore
SplineSet
506 0 m 1,0,-1
 54 0 l 1,1,-1
 54 48 l 1,2,-1
 259 261 l 2,3,4
 310 314 310 314 345 356 c 128,-1,5
 380 398 380 398 398 440 c 128,-1,6
 416 482 416 482 416 534 c 0,7,8
 416 601 416 601 377 637.5 c 128,-1,9
 338 674 338 674 272 674 c 0,10,11
 224 674 224 674 182 657 c 128,-1,12
 140 640 140 640 99 608 c 1,13,-1
 68 648 l 1,14,15
 112 684 112 684 164 704 c 128,-1,16
 216 724 216 724 272 724 c 0,17,18
 364 724 364 724 419 673 c 128,-1,19
 474 622 474 622 474 536 c 0,20,21
 474 478 474 478 453.5 430 c 128,-1,22
 433 382 433 382 395.5 336 c 128,-1,23
 358 290 358 290 306 238 c 2,24,-1
 127 55 l 1,25,-1
 127 52 l 1,26,-1
 506 52 l 1,27,-1
 506 0 l 1,0,-1
EndSplineSet
Substitution2: "'case' Case-Sensitive Forms lookup 35 subtable" two.lf
Substitution2: "'onum' Oldstyle Figures lookup 32 subtable" two.tosf
Substitution2: "'pnum' Proportional Numbers lookup 30 subtable" two.lf
Substitution2: "'frac' Diagonal Fractions lookup 23 subtable" two.numr
Substitution2: "'dnom' Denominators lookup 21 subtable" two.dnom
Substitution2: "'numr' Numerators lookup 20 subtable" two.numr
Substitution2: "'sups' Superscript lookup 19 subtable" uni00B2
Substitution2: "'subs' Subscript lookup 18 subtable" uni2082
EndChar

StartChar: three
Encoding: 51 51 22
Width: 571
Flags: W
LayerCount: 2
Fore
SplineSet
482 549 m 0,0,1
 482 478 482 478 440 433 c 128,-1,2
 398 388 398 388 332 376 c 1,3,-1
 332 372 l 1,4,5
 416 362 416 362 460 317.5 c 128,-1,6
 504 273 504 273 504 198 c 0,7,8
 504 106 504 106 439 48 c 128,-1,9
 374 -10 374 -10 244 -10 c 0,10,11
 186 -10 186 -10 136.5 0 c 128,-1,12
 87 10 87 10 46 30 c 1,13,-1
 46 85 l 1,14,15
 87 65 87 65 140 52 c 128,-1,16
 193 39 193 39 244 39 c 0,17,18
 346 39 346 39 395 82.5 c 128,-1,19
 444 126 444 126 444 200 c 0,20,21
 444 278 444 278 386 311.5 c 128,-1,22
 328 345 328 345 231 345 c 2,23,-1
 155 345 l 1,24,-1
 155 395 l 1,25,-1
 232 395 l 2,26,27
 315 395 315 395 369 433.5 c 128,-1,28
 423 472 423 472 423 546 c 0,29,30
 423 609 423 609 382 641.5 c 128,-1,31
 341 674 341 674 273 674 c 0,32,33
 216 674 216 674 170.5 657 c 128,-1,34
 125 640 125 640 81 610 c 1,35,-1
 52 650 l 1,36,37
 93 682 93 682 148 703 c 128,-1,38
 203 724 203 724 272 724 c 0,39,40
 372 724 372 724 427 676.5 c 128,-1,41
 482 629 482 629 482 549 c 0,0,1
EndSplineSet
Substitution2: "'case' Case-Sensitive Forms lookup 35 subtable" three.lf
Substitution2: "'onum' Oldstyle Figures lookup 32 subtable" three.tosf
Substitution2: "'pnum' Proportional Numbers lookup 30 subtable" three.lf
Substitution2: "'frac' Diagonal Fractions lookup 23 subtable" three.numr
Substitution2: "'dnom' Denominators lookup 21 subtable" three.dnom
Substitution2: "'numr' Numerators lookup 20 subtable" three.numr
Substitution2: "'sups' Superscript lookup 19 subtable" uni00B3
Substitution2: "'subs' Subscript lookup 18 subtable" uni2083
EndChar

StartChar: four
Encoding: 52 52 23
Width: 571
Flags: W
LayerCount: 2
Fore
SplineSet
556 178 m 1,0,-1
 437 178 l 1,1,-1
 437 0 l 1,2,-1
 382 0 l 1,3,-1
 382 178 l 1,4,-1
 23 178 l 1,5,-1
 23 224 l 1,6,-1
 378 718 l 1,7,-1
 437 718 l 1,8,-1
 437 230 l 1,9,-1
 556 230 l 1,10,-1
 556 178 l 1,0,-1
382 230 m 1,11,-1
 382 495 l 2,12,13
 382 553 382 553 382.5 586.5 c 128,-1,14
 383 620 383 620 384 655 c 1,15,-1
 382 655 l 1,16,17
 368 632 368 632 356 612 c 128,-1,18
 344 592 344 592 328 569 c 2,19,-1
 83 230 l 1,20,-1
 382 230 l 1,11,-1
EndSplineSet
Substitution2: "'case' Case-Sensitive Forms lookup 35 subtable" four.lf
Substitution2: "'onum' Oldstyle Figures lookup 32 subtable" four.tosf
Substitution2: "'pnum' Proportional Numbers lookup 30 subtable" four.lf
Substitution2: "'frac' Diagonal Fractions lookup 23 subtable" four.numr
Substitution2: "'dnom' Denominators lookup 21 subtable" four.dnom
Substitution2: "'numr' Numerators lookup 20 subtable" four.numr
Substitution2: "'sups' Superscript lookup 19 subtable" uni2074
Substitution2: "'subs' Subscript lookup 18 subtable" uni2084
EndChar

StartChar: five
Encoding: 53 53 24
Width: 571
Flags: W
LayerCount: 2
Fore
SplineSet
274 432 m 0,0,1
 383 432 383 432 446.5 377 c 128,-1,2
 510 322 510 322 510 222 c 0,3,4
 510 114 510 114 440 52 c 128,-1,5
 370 -10 370 -10 250 -10 c 0,6,7
 194 -10 194 -10 147.5 1 c 128,-1,8
 101 12 101 12 68 30 c 1,9,-1
 68 87 l 1,10,11
 103 66 103 66 151.5 53 c 128,-1,12
 200 40 200 40 251 40 c 0,13,14
 342 40 342 40 397 85.5 c 128,-1,15
 452 131 452 131 452 218 c 0,16,17
 452 296 452 296 404.5 339 c 128,-1,18
 357 382 357 382 260 382 c 0,19,20
 222 382 222 382 186 377 c 128,-1,21
 150 372 150 372 120 364 c 1,22,-1
 89 385 l 1,23,-1
 118 714 l 1,24,-1
 464 714 l 1,25,-1
 464 662 l 1,26,-1
 166 662 l 1,27,-1
 146 416 l 1,28,29
 167 420 167 420 199 426 c 128,-1,30
 231 432 231 432 274 432 c 0,0,1
EndSplineSet
Substitution2: "'case' Case-Sensitive Forms lookup 35 subtable" five.lf
Substitution2: "'onum' Oldstyle Figures lookup 32 subtable" five.tosf
Substitution2: "'pnum' Proportional Numbers lookup 30 subtable" five.lf
Substitution2: "'frac' Diagonal Fractions lookup 23 subtable" five.numr
Substitution2: "'dnom' Denominators lookup 21 subtable" five.dnom
Substitution2: "'numr' Numerators lookup 20 subtable" five.numr
Substitution2: "'sups' Superscript lookup 19 subtable" uni2075
Substitution2: "'subs' Subscript lookup 18 subtable" uni2085
EndChar

StartChar: six
Encoding: 54 54 25
Width: 571
Flags: W
LayerCount: 2
Fore
SplineSet
62 304 m 0,0,1
 62 432 62 432 94.5 526.5 c 128,-1,2
 127 621 127 621 195.5 673 c 128,-1,3
 264 725 264 725 374 725 c 0,4,5
 429 725 429 725 468 714 c 1,6,-1
 468 663 l 1,7,8
 450 670 450 670 426 673 c 128,-1,9
 402 676 402 676 376 676 c 0,10,11
 247 676 247 676 184.5 589 c 128,-1,12
 122 502 122 502 118 342 c 1,13,-1
 122 342 l 1,14,15
 143 381 143 381 189 412 c 128,-1,16
 235 443 235 443 311 443 c 0,17,18
 407 443 407 443 463 385.5 c 128,-1,19
 519 328 519 328 519 228 c 0,20,21
 519 120 519 120 460.5 55 c 128,-1,22
 402 -10 402 -10 298 -10 c 0,23,24
 222 -10 222 -10 169.5 30.5 c 128,-1,25
 117 71 117 71 89.5 141.5 c 128,-1,26
 62 212 62 212 62 304 c 0,0,1
298 39 m 0,27,28
 374 39 374 39 418 87.5 c 128,-1,29
 462 136 462 136 462 228 c 0,30,31
 462 306 462 306 422 351 c 128,-1,32
 382 396 382 396 302 396 c 0,33,34
 247 396 247 396 206.5 374 c 128,-1,35
 166 352 166 352 144 318.5 c 128,-1,36
 122 285 122 285 122 252 c 0,37,38
 122 221 122 221 131 184.5 c 128,-1,39
 140 148 140 148 160.5 115 c 128,-1,40
 181 82 181 82 214.5 60.5 c 128,-1,41
 248 39 248 39 298 39 c 0,27,28
EndSplineSet
Substitution2: "'case' Case-Sensitive Forms lookup 35 subtable" six.lf
Substitution2: "'onum' Oldstyle Figures lookup 32 subtable" six.tosf
Substitution2: "'pnum' Proportional Numbers lookup 30 subtable" six.lf
Substitution2: "'frac' Diagonal Fractions lookup 23 subtable" six.numr
Substitution2: "'dnom' Denominators lookup 21 subtable" six.dnom
Substitution2: "'numr' Numerators lookup 20 subtable" six.numr
Substitution2: "'sups' Superscript lookup 19 subtable" uni2076
Substitution2: "'subs' Subscript lookup 18 subtable" uni2086
EndChar

StartChar: seven
Encoding: 55 55 26
Width: 571
Flags: W
LayerCount: 2
Fore
SplineSet
160 0 m 1,0,-1
 454 662 l 1,1,-1
 51 662 l 1,2,-1
 51 714 l 1,3,-1
 516 714 l 1,4,-1
 516 672 l 1,5,-1
 222 0 l 1,6,-1
 160 0 l 1,0,-1
EndSplineSet
Substitution2: "'case' Case-Sensitive Forms lookup 35 subtable" seven.lf
Substitution2: "'onum' Oldstyle Figures lookup 32 subtable" seven.tosf
Substitution2: "'pnum' Proportional Numbers lookup 30 subtable" seven.lf
Substitution2: "'frac' Diagonal Fractions lookup 23 subtable" seven.numr
Substitution2: "'dnom' Denominators lookup 21 subtable" seven.dnom
Substitution2: "'numr' Numerators lookup 20 subtable" seven.numr
Substitution2: "'sups' Superscript lookup 19 subtable" uni2077
Substitution2: "'subs' Subscript lookup 18 subtable" uni2087
EndChar

StartChar: eight
Encoding: 56 56 27
Width: 571
Flags: W
LayerCount: 2
Fore
SplineSet
284 724 m 0,0,1
 376 724 376 724 432.5 680.5 c 128,-1,2
 489 637 489 637 489 557 c 0,3,4
 489 492 489 492 446.5 450.5 c 128,-1,5
 404 409 404 409 338 380 c 1,6,7
 416 348 416 348 464 303 c 128,-1,8
 512 258 512 258 512 183 c 0,9,10
 512 122 512 122 482.5 79 c 128,-1,11
 453 36 453 36 401.5 13 c 128,-1,12
 350 -10 350 -10 284 -10 c 0,13,14
 179 -10 179 -10 117.5 41 c 128,-1,15
 56 92 56 92 56 178 c 0,16,17
 56 230 56 230 78 267.5 c 128,-1,18
 100 305 100 305 138 331.5 c 128,-1,19
 176 358 176 358 224 377 c 1,20,21
 184 396 184 396 151.5 419.5 c 128,-1,22
 119 443 119 443 99.5 476.5 c 128,-1,23
 80 510 80 510 80 556 c 0,24,25
 80 608 80 608 106.5 646 c 128,-1,26
 133 684 133 684 179 704 c 128,-1,27
 225 724 225 724 284 724 c 0,0,1
284 676 m 0,28,29
 220 676 220 676 178 644 c 128,-1,30
 136 612 136 612 136 554 c 0,31,32
 136 495 136 495 178.5 461.5 c 128,-1,33
 221 428 221 428 288 403 c 1,34,35
 355 431 355 431 393.5 465 c 128,-1,36
 432 499 432 499 432 556 c 0,37,38
 432 614 432 614 392 645 c 128,-1,39
 352 676 352 676 284 676 c 0,28,29
113 178 m 0,40,41
 113 115 113 115 157.5 76 c 128,-1,42
 202 37 202 37 282 37 c 256,43,44
 362 37 362 37 409 75.5 c 128,-1,45
 456 114 456 114 456 182 c 0,46,47
 456 240 456 240 414.5 278.5 c 128,-1,48
 373 317 373 317 298 344 c 2,49,-1
 276 352 l 1,50,51
 202 325 202 325 157.5 285.5 c 128,-1,52
 113 246 113 246 113 178 c 0,40,41
EndSplineSet
Substitution2: "'case' Case-Sensitive Forms lookup 35 subtable" eight.lf
Substitution2: "'onum' Oldstyle Figures lookup 32 subtable" eight.tosf
Substitution2: "'pnum' Proportional Numbers lookup 30 subtable" eight.lf
Substitution2: "'frac' Diagonal Fractions lookup 23 subtable" eight.numr
Substitution2: "'dnom' Denominators lookup 21 subtable" eight.dnom
Substitution2: "'numr' Numerators lookup 20 subtable" eight.numr
Substitution2: "'sups' Superscript lookup 19 subtable" uni2078
Substitution2: "'subs' Subscript lookup 18 subtable" uni2088
EndChar

StartChar: nine
Encoding: 57 57 28
Width: 571
Flags: W
LayerCount: 2
Fore
SplineSet
510 411 m 0,0,1
 510 283 510 283 477.5 188 c 128,-1,2
 445 93 445 93 375.5 41 c 128,-1,3
 306 -11 306 -11 196 -11 c 0,4,5
 172 -11 172 -11 144 -8 c 128,-1,6
 116 -5 116 -5 98 1 c 1,7,-1
 98 52 l 1,8,9
 138 37 138 37 196 37 c 0,10,11
 324 37 324 37 386 124.5 c 128,-1,12
 448 212 448 212 453 372 c 1,13,-1
 449 372 l 1,14,15
 428 333 428 333 381 302 c 128,-1,16
 334 271 334 271 258 271 c 0,17,18
 163 271 163 271 107.5 328.5 c 128,-1,19
 52 386 52 386 52 487 c 0,20,21
 52 558 52 558 79 611.5 c 128,-1,22
 106 665 106 665 155.5 694.5 c 128,-1,23
 205 724 205 724 274 724 c 0,24,25
 351 724 351 724 403.5 684 c 128,-1,26
 456 644 456 644 483 573.5 c 128,-1,27
 510 503 510 503 510 411 c 0,0,1
274 674 m 0,28,29
 198 674 198 674 153.5 626 c 128,-1,30
 109 578 109 578 109 488 c 0,31,32
 109 408 109 408 149 363 c 128,-1,33
 189 318 189 318 269 318 c 0,34,35
 324 318 324 318 365 340 c 128,-1,36
 406 362 406 362 428 395.5 c 128,-1,37
 450 429 450 429 450 462 c 0,38,39
 450 493 450 493 441 529.5 c 128,-1,40
 432 566 432 566 411.5 599 c 128,-1,41
 391 632 391 632 357.5 653 c 128,-1,42
 324 674 324 674 274 674 c 0,28,29
EndSplineSet
Substitution2: "'case' Case-Sensitive Forms lookup 35 subtable" nine.lf
Substitution2: "'onum' Oldstyle Figures lookup 32 subtable" nine.tosf
Substitution2: "'pnum' Proportional Numbers lookup 30 subtable" nine.lf
Substitution2: "'frac' Diagonal Fractions lookup 23 subtable" nine.numr
Substitution2: "'dnom' Denominators lookup 21 subtable" nine.dnom
Substitution2: "'numr' Numerators lookup 20 subtable" nine.numr
Substitution2: "'sups' Superscript lookup 19 subtable" uni2079
Substitution2: "'subs' Subscript lookup 18 subtable" uni2089
EndChar

StartChar: colon
Encoding: 58 58 29
Width: 244
Flags: W
LayerCount: 2
Fore
SplineSet
78 492 m 0,0,1
 78 541 78 541 122 541 c 256,2,3
 166 541 166 541 166 492 c 0,4,5
 166 442 166 442 122 442 c 256,6,7
 78 442 78 442 78 492 c 0,0,1
78 38 m 256,8,9
 78 87 78 87 122 87 c 256,10,11
 166 87 166 87 166 38 c 256,12,13
 166 -11 166 -11 122 -11 c 256,14,15
 78 -11 78 -11 78 38 c 256,8,9
EndSplineSet
EndChar

StartChar: semicolon
Encoding: 59 59 30
Width: 244
Flags: W
LayerCount: 2
Fore
SplineSet
78 492 m 0,0,1
 78 541 78 541 120 541 c 0,2,3
 166 541 166 541 166 492 c 0,4,5
 166 442 166 442 120 442 c 0,6,7
 78 442 78 442 78 492 c 0,0,1
149 116 m 1,8,-1
 154 104 l 1,9,10
 142 50 142 50 121 -13 c 128,-1,11
 100 -76 100 -76 78 -129 c 1,12,-1
 34 -129 l 1,13,14
 52 -64 52 -64 66 -1.5 c 128,-1,15
 80 61 80 61 88 116 c 1,16,-1
 149 116 l 1,8,-1
EndSplineSet
EndChar

StartChar: less
Encoding: 60 60 31
Width: 571
Flags: W
LayerCount: 2
Fore
SplineSet
518 127 m 1,0,-1
 53 338 l 1,1,-1
 53 372 l 1,2,-1
 518 597 l 1,3,-1
 518 545 l 1,4,-1
 117 357 l 1,5,-1
 518 179 l 1,6,-1
 518 127 l 1,0,-1
EndSplineSet
EndChar

StartChar: equal
Encoding: 61 61 32
Width: 571
Flags: W
LayerCount: 2
Fore
SplineSet
56 430 m 1,0,-1
 56 477 l 1,1,-1
 514 477 l 1,2,-1
 514 430 l 1,3,-1
 56 430 l 1,0,-1
56 228 m 1,4,-1
 56 276 l 1,5,-1
 514 276 l 1,6,-1
 514 228 l 1,7,-1
 56 228 l 1,4,-1
EndSplineSet
Substitution2: "'sups' Superscript lookup 19 subtable" uni207C
Substitution2: "'subs' Subscript lookup 18 subtable" uni208C
EndChar

StartChar: greater
Encoding: 62 62 33
Width: 571
Flags: W
LayerCount: 2
Fore
SplineSet
53 179 m 1,0,-1
 453 356 l 1,1,-1
 53 545 l 1,2,-1
 53 597 l 1,3,-1
 518 372 l 1,4,-1
 518 338 l 1,5,-1
 53 127 l 1,6,-1
 53 179 l 1,0,-1
EndSplineSet
EndChar

StartChar: question
Encoding: 63 63 34
Width: 424
Flags: W
LayerCount: 2
Fore
SplineSet
142 188 m 1,0,-1
 142 207 l 2,1,2
 142 250 142 250 149 280 c 128,-1,3
 156 310 156 310 174.5 334 c 128,-1,4
 193 358 193 358 226 384 c 0,5,6
 264 413 264 413 288 436.5 c 128,-1,7
 312 460 312 460 324 486 c 128,-1,8
 336 512 336 512 336 550 c 0,9,10
 336 612 336 612 298 642.5 c 128,-1,11
 260 673 260 673 196 673 c 0,12,13
 152 673 152 673 116 662.5 c 128,-1,14
 80 652 80 652 46 635 c 1,15,-1
 25 683 l 1,16,17
 67 702 67 702 107.5 713 c 128,-1,18
 148 724 148 724 198 724 c 0,19,20
 288 724 288 724 339.5 679 c 128,-1,21
 391 634 391 634 391 552 c 0,22,23
 391 504 391 504 375.5 470.5 c 128,-1,24
 360 437 360 437 332 410 c 128,-1,25
 304 383 304 383 266 354 c 0,26,27
 236 331 236 331 219.5 310.5 c 128,-1,28
 203 290 203 290 196.5 264.5 c 128,-1,29
 190 239 190 239 190 202 c 2,30,-1
 190 188 l 1,31,-1
 142 188 l 1,0,-1
125 38 m 256,32,33
 125 87 125 87 168 87 c 0,34,35
 212 87 212 87 212 38 c 256,36,37
 212 -11 212 -11 168 -11 c 0,38,39
 125 -11 125 -11 125 38 c 256,32,33
EndSplineSet
Substitution2: "'smcp' Lowercase to Small Capitals lookup 34 subtable" question.sc
Substitution2: "'c2sc' Capitals to Small Capitals lookup 33 subtable" question.sc
EndChar

StartChar: at
Encoding: 64 64 35
Width: 888
Flags: W
LayerCount: 2
Fore
SplineSet
834 354 m 0,0,1
 834 289 834 289 816 233 c 128,-1,2
 798 177 798 177 761 142.5 c 128,-1,3
 724 108 724 108 669 108 c 0,4,5
 623 108 623 108 595.5 134.5 c 128,-1,6
 568 161 568 161 564 204 c 1,7,-1
 562 204 l 1,8,9
 519 108 519 108 414 108 c 0,10,11
 339 108 339 108 298.5 156 c 128,-1,12
 258 204 258 204 258 290 c 0,13,14
 258 354 258 354 284.5 404.5 c 128,-1,15
 311 455 311 455 358.5 484 c 128,-1,16
 406 513 406 513 470 513 c 0,17,18
 510 513 510 513 547 507 c 128,-1,19
 584 501 584 501 610 491 c 1,20,-1
 602 317 l 2,21,22
 601 299 601 299 600.5 282.5 c 128,-1,23
 600 266 600 266 600 252 c 0,24,25
 600 198 600 198 618.5 175 c 128,-1,26
 637 152 637 152 672 152 c 0,27,28
 710 152 710 152 735 178.5 c 128,-1,29
 760 205 760 205 772.5 250.5 c 128,-1,30
 785 296 785 296 785 354 c 0,31,32
 785 450 785 450 747 519.5 c 128,-1,33
 709 589 709 589 639.5 626.5 c 128,-1,34
 570 664 570 664 474 664 c 0,35,36
 360 664 360 664 277 617.5 c 128,-1,37
 194 571 194 571 149 485.5 c 128,-1,38
 104 400 104 400 104 284 c 0,39,40
 104 126 104 126 187.5 38.5 c 128,-1,41
 271 -49 271 -49 424 -49 c 0,42,43
 480 -49 480 -49 533.5 -37.5 c 128,-1,44
 587 -26 587 -26 632 -7 c 1,45,-1
 632 -55 l 1,46,47
 588 -73 588 -73 536 -83.5 c 128,-1,48
 484 -94 484 -94 424 -94 c 0,49,50
 309 -94 309 -94 226.5 -49 c 128,-1,51
 144 -4 144 -4 99.5 80.5 c 128,-1,52
 55 165 55 165 55 282 c 0,53,54
 55 412 55 412 107 508 c 128,-1,55
 159 604 159 604 253 657 c 128,-1,56
 347 710 347 710 474 710 c 0,57,58
 582 710 582 710 663 667 c 128,-1,59
 744 624 744 624 789 544 c 128,-1,60
 834 464 834 464 834 354 c 0,0,1
310 288 m 0,61,62
 310 220 310 220 338.5 186 c 128,-1,63
 367 152 367 152 420 152 c 0,64,65
 483 152 483 152 515.5 195 c 128,-1,66
 548 238 548 238 552 319 c 2,67,-1
 558 456 l 1,68,69
 541 462 541 462 518.5 465.5 c 128,-1,70
 496 469 496 469 470 469 c 0,71,72
 418 469 418 469 382.5 445 c 128,-1,73
 347 421 347 421 328.5 380 c 128,-1,74
 310 339 310 339 310 288 c 0,61,62
EndSplineSet
EndChar

StartChar: A
Encoding: 65 65 36
Width: 608
GlyphClass: 2
Flags: W
AnchorPoint: "Anchor-3" 538 714 basechar 0
AnchorPoint: "Anchor-2" 304 714 basechar 0
AnchorPoint: "Anchor-0" 306 0 basechar 0
LayerCount: 2
Fore
SplineSet
547 0 m 1,0,-1
 452 246 l 1,1,-1
 156 246 l 1,2,-1
 59 0 l 1,3,-1
 0 0 l 1,4,-1
 280 716 l 1,5,-1
 334 716 l 1,6,-1
 608 0 l 1,7,-1
 547 0 l 1,0,-1
434 298 m 1,8,-1
 338 556 l 2,9,10
 334 570 334 570 324 600 c 128,-1,11
 314 630 314 630 306 653 c 1,12,13
 298 627 298 627 289 600.5 c 128,-1,14
 280 574 280 574 274 555 c 2,15,-1
 175 298 l 1,16,-1
 434 298 l 1,8,-1
EndSplineSet
Substitution2: "'c2sc' Capitals to Small Capitals lookup 33 subtable" a.sc
Substitution2: "Single Substitution lookup 28 subtable" ordfeminine
EndChar

StartChar: B
Encoding: 66 66 37
Width: 632
GlyphClass: 2
Flags: W
AnchorPoint: "Anchor-3" 612 714 basechar 0
AnchorPoint: "Anchor-2" 314 714 basechar 0
AnchorPoint: "Anchor-0" 311 0 basechar 0
LayerCount: 2
Fore
SplineSet
100 714 m 1,0,-1
 298 714 l 2,1,2
 430 714 430 714 493 673 c 128,-1,3
 556 632 556 632 556 540 c 0,4,5
 556 478 556 478 520 434 c 128,-1,6
 484 390 484 390 417 378 c 1,7,-1
 417 374 l 1,8,9
 495 362 495 362 535.5 320.5 c 128,-1,10
 576 279 576 279 576 203 c 0,11,12
 576 134 576 134 544.5 89 c 128,-1,13
 513 44 513 44 456.5 22 c 128,-1,14
 400 0 400 0 326 0 c 2,15,-1
 100 0 l 1,16,-1
 100 714 l 1,0,-1
158 399 m 1,17,-1
 311 399 l 2,18,19
 409 399 409 399 452.5 433 c 128,-1,20
 496 467 496 467 496 534 c 0,21,22
 496 603 496 603 449 633 c 128,-1,23
 402 663 402 663 298 663 c 2,24,-1
 158 663 l 1,25,-1
 158 399 l 1,17,-1
158 349 m 1,26,-1
 158 50 l 1,27,-1
 321 50 l 2,28,29
 515 50 515 50 515 206 c 0,30,31
 515 280 515 280 465.5 314.5 c 128,-1,32
 416 349 416 349 312 349 c 2,33,-1
 158 349 l 1,26,-1
EndSplineSet
Substitution2: "'c2sc' Capitals to Small Capitals lookup 33 subtable" b.sc
EndChar

StartChar: C
Encoding: 67 67 38
Width: 623
GlyphClass: 2
Flags: W
AnchorPoint: "Anchor-3" 603 714 basechar 0
AnchorPoint: "Anchor-2" 384 714 basechar 0
AnchorPoint: "Anchor-0" 370 0 basechar 0
LayerCount: 2
Fore
SplineSet
404 672 m 0,0,1
 316 672 316 672 253 632.5 c 128,-1,2
 190 593 190 593 156.5 522.5 c 128,-1,3
 123 452 123 452 123 358 c 0,4,5
 123 262 123 262 153.5 191 c 128,-1,6
 184 120 184 120 244 81 c 128,-1,7
 304 42 304 42 394 42 c 0,8,9
 446 42 446 42 489.5 50 c 128,-1,10
 533 58 533 58 572 70 c 1,11,-1
 572 20 l 1,12,13
 535 6 535 6 490.5 -2 c 128,-1,14
 446 -10 446 -10 388 -10 c 0,15,16
 280 -10 280 -10 207.5 36 c 128,-1,17
 135 82 135 82 98.5 165 c 128,-1,18
 62 248 62 248 62 359 c 0,19,20
 62 465 62 465 102.5 547.5 c 128,-1,21
 143 630 143 630 219.5 677 c 128,-1,22
 296 724 296 724 404 724 c 0,23,24
 509 724 509 724 592 684 c 1,25,-1
 569 634 l 1,26,27
 491 672 491 672 404 672 c 0,0,1
EndSplineSet
Substitution2: "'c2sc' Capitals to Small Capitals lookup 33 subtable" c.sc
EndChar

StartChar: D
Encoding: 68 68 39
Width: 711
GlyphClass: 2
Flags: W
AnchorPoint: "Anchor-3" 691 714 basechar 0
AnchorPoint: "Anchor-2" 354 714 basechar 0
AnchorPoint: "Anchor-1" 356 357 basechar 0
AnchorPoint: "Anchor-0" 344 0 basechar 0
LayerCount: 2
Fore
SplineSet
648 364 m 0,0,1
 648 184 648 184 553 92 c 128,-1,2
 458 0 458 0 276 0 c 2,3,-1
 100 0 l 1,4,-1
 100 714 l 1,5,-1
 298 714 l 2,6,7
 468 714 468 714 558 624.5 c 128,-1,8
 648 535 648 535 648 364 c 0,0,1
588 362 m 0,9,10
 588 663 588 663 287 663 c 2,11,-1
 158 663 l 1,12,-1
 158 51 l 1,13,-1
 272 51 l 2,14,15
 588 51 588 51 588 362 c 0,9,10
EndSplineSet
Substitution2: "'c2sc' Capitals to Small Capitals lookup 33 subtable" d.sc
EndChar

StartChar: E
Encoding: 69 69 40
Width: 553
GlyphClass: 2
Flags: W
AnchorPoint: "Anchor-3" 533 714 basechar 0
AnchorPoint: "Anchor-2" 305 714 basechar 0
AnchorPoint: "Anchor-0" 298 0 basechar 0
LayerCount: 2
Fore
SplineSet
492 0 m 1,0,-1
 100 0 l 1,1,-1
 100 714 l 1,2,-1
 492 714 l 1,3,-1
 492 662 l 1,4,-1
 158 662 l 1,5,-1
 158 400 l 1,6,-1
 473 400 l 1,7,-1
 473 349 l 1,8,-1
 158 349 l 1,9,-1
 158 52 l 1,10,-1
 492 52 l 1,11,-1
 492 0 l 1,0,-1
EndSplineSet
Substitution2: "'c2sc' Capitals to Small Capitals lookup 33 subtable" e.sc
EndChar

StartChar: F
Encoding: 70 70 41
Width: 506
GlyphClass: 2
Flags: W
AnchorPoint: "Anchor-3" 486 714 basechar 0
AnchorPoint: "Anchor-2" 297 714 basechar 0
AnchorPoint: "Anchor-0" 253 0 basechar 0
LayerCount: 2
Fore
SplineSet
158 0 m 1,0,-1
 100 0 l 1,1,-1
 100 714 l 1,2,-1
 492 714 l 1,3,-1
 492 662 l 1,4,-1
 158 662 l 1,5,-1
 158 368 l 1,6,-1
 474 368 l 1,7,-1
 474 316 l 1,8,-1
 158 316 l 1,9,-1
 158 0 l 1,0,-1
EndSplineSet
Substitution2: "'c2sc' Capitals to Small Capitals lookup 33 subtable" f.sc
EndChar

StartChar: G
Encoding: 71 71 42
Width: 724
GlyphClass: 2
Flags: W
AnchorPoint: "Anchor-3" 704 714 basechar 0
AnchorPoint: "Anchor-2" 408 714 basechar 0
AnchorPoint: "Anchor-0" 401 0 basechar 0
LayerCount: 2
Fore
SplineSet
387 364 m 1,0,-1
 646 364 l 1,1,-1
 646 32 l 1,2,3
 594 11 594 11 536 0.5 c 128,-1,4
 478 -10 478 -10 410 -10 c 0,5,6
 240 -10 240 -10 151 87 c 128,-1,7
 62 184 62 184 62 356 c 0,8,9
 62 464 62 464 105.5 547.5 c 128,-1,10
 149 631 149 631 231 678 c 128,-1,11
 313 725 313 725 428 725 c 0,12,13
 486 725 486 725 539 714 c 128,-1,14
 592 703 592 703 638 682 c 1,15,-1
 614 630 l 1,16,17
 523 673 523 673 424 673 c 0,18,19
 330 673 330 673 262.5 633 c 128,-1,20
 195 593 195 593 158.5 521.5 c 128,-1,21
 122 450 122 450 122 356 c 0,22,23
 122 202 122 202 198.5 121.5 c 128,-1,24
 275 41 275 41 422 41 c 0,25,26
 474 41 474 41 514.5 48.5 c 128,-1,27
 555 56 555 56 588 67 c 1,28,-1
 588 311 l 1,29,-1
 387 311 l 1,30,-1
 387 364 l 1,0,-1
EndSplineSet
Substitution2: "'c2sc' Capitals to Small Capitals lookup 33 subtable" g.sc
EndChar

StartChar: H
Encoding: 72 72 43
Width: 724
GlyphClass: 2
Flags: W
AnchorPoint: "Anchor-3" 704 714 basechar 0
AnchorPoint: "Anchor-2" 362 714 basechar 0
AnchorPoint: "Anchor-1" 362 357 basechar 0
AnchorPoint: "Anchor-0" 360 0 basechar 0
LayerCount: 2
Fore
SplineSet
623 0 m 1,0,-1
 565 0 l 1,1,-1
 565 348 l 1,2,-1
 158 348 l 1,3,-1
 158 0 l 1,4,-1
 100 0 l 1,5,-1
 100 714 l 1,6,-1
 158 714 l 1,7,-1
 158 400 l 1,8,-1
 565 400 l 1,9,-1
 565 714 l 1,10,-1
 623 714 l 1,11,-1
 623 0 l 1,0,-1
EndSplineSet
Substitution2: "'c2sc' Capitals to Small Capitals lookup 33 subtable" h.sc
EndChar

StartChar: I
Encoding: 73 73 44
Width: 311
GlyphClass: 2
Flags: W
AnchorPoint: "Anchor-3" 291 714 basechar 0
AnchorPoint: "Anchor-2" 156 714 basechar 0
AnchorPoint: "Anchor-0" 156 0 basechar 0
LayerCount: 2
Fore
SplineSet
260 0 m 1,0,-1
 50 0 l 1,1,-1
 50 36 l 1,2,-1
 126 47 l 1,3,-1
 126 666 l 1,4,-1
 50 678 l 1,5,-1
 50 714 l 1,6,-1
 260 714 l 1,7,-1
 260 678 l 1,8,-1
 184 666 l 1,9,-1
 184 47 l 1,10,-1
 260 36 l 1,11,-1
 260 0 l 1,0,-1
EndSplineSet
Substitution2: "'c2sc' Capitals to Small Capitals lookup 33 subtable" i.sc
EndChar

StartChar: J
Encoding: 74 74 45
Width: 252
GlyphClass: 2
Flags: W
AnchorPoint: "Anchor-3" 232 714 basechar 0
AnchorPoint: "Anchor-2" 128 714 basechar 0
AnchorPoint: "Anchor-0" -12 -167 basechar 0
LayerCount: 2
Fore
SplineSet
-12 -182 m 0,0,1
 -38 -182 -38 -182 -56 -178 c 128,-1,2
 -74 -174 -74 -174 -88 -170 c 1,3,-1
 -88 -118 l 1,4,5
 -73 -122 -73 -122 -54 -126 c 128,-1,6
 -35 -130 -35 -130 -13 -130 c 0,7,8
 99 -130 99 -130 99 4 c 2,9,-1
 99 714 l 1,10,-1
 157 714 l 1,11,-1
 157 6 l 2,12,13
 157 -82 157 -82 114.5 -132 c 128,-1,14
 72 -182 72 -182 -12 -182 c 0,0,1
EndSplineSet
Substitution2: "'c2sc' Capitals to Small Capitals lookup 33 subtable" j.sc
EndChar

StartChar: K
Encoding: 75 75 46
Width: 588
GlyphClass: 2
Flags: W
AnchorPoint: "Anchor-3" 568 714 basechar 0
AnchorPoint: "Anchor-2" 310 714 basechar 0
AnchorPoint: "Anchor-0" 304 0 basechar 0
LayerCount: 2
Fore
SplineSet
588 0 m 1,0,-1
 518 0 l 1,1,-1
 247 370 l 1,2,-1
 158 285 l 1,3,-1
 158 0 l 1,4,-1
 100 0 l 1,5,-1
 100 714 l 1,6,-1
 158 714 l 1,7,-1
 158 343 l 1,8,9
 178 366 178 366 200 389.5 c 128,-1,10
 222 413 222 413 244 437 c 2,11,-1
 508 714 l 1,12,-1
 580 714 l 1,13,-1
 290 410 l 1,14,-1
 588 0 l 1,0,-1
EndSplineSet
Substitution2: "'c2sc' Capitals to Small Capitals lookup 33 subtable" k.sc
EndChar

StartChar: L
Encoding: 76 76 47
Width: 515
GlyphClass: 2
Flags: W
AnchorPoint: "Anchor-3" 405 714 basechar 0
AnchorPoint: "Anchor-2" 128 714 basechar 0
AnchorPoint: "Anchor-1" 258 357 basechar 0
AnchorPoint: "Anchor-0" 292 0 basechar 0
LayerCount: 2
Fore
SplineSet
100 0 m 1,0,-1
 100 714 l 1,1,-1
 158 714 l 1,2,-1
 158 52 l 1,3,-1
 492 52 l 1,4,-1
 492 0 l 1,5,-1
 100 0 l 1,0,-1
EndSplineSet
Substitution2: "'c2sc' Capitals to Small Capitals lookup 33 subtable" l.sc
EndChar

StartChar: M
Encoding: 77 77 48
Width: 872
GlyphClass: 2
Flags: W
AnchorPoint: "Anchor-3" 852 714 basechar 0
AnchorPoint: "Anchor-2" 436 714 basechar 0
AnchorPoint: "Anchor-0" 434 0 basechar 0
LayerCount: 2
Fore
SplineSet
410 0 m 1,0,-1
 154 652 l 1,1,-1
 150 652 l 1,2,3
 152 625 152 625 153 589.5 c 128,-1,4
 154 554 154 554 154 514 c 2,5,-1
 154 0 l 1,6,-1
 100 0 l 1,7,-1
 100 714 l 1,8,-1
 188 714 l 1,9,-1
 434 88 l 1,10,-1
 437 88 l 1,11,-1
 686 714 l 1,12,-1
 772 714 l 1,13,-1
 772 0 l 1,14,-1
 714 0 l 1,15,-1
 714 520 l 2,16,17
 714 554 714 554 715 589 c 128,-1,18
 716 624 716 624 718 652 c 1,19,-1
 715 652 l 1,20,-1
 457 0 l 1,21,-1
 410 0 l 1,0,-1
EndSplineSet
Substitution2: "'c2sc' Capitals to Small Capitals lookup 33 subtable" m.sc
EndChar

StartChar: N
Encoding: 78 78 49
Width: 729
GlyphClass: 2
Flags: W
AnchorPoint: "Anchor-3" 709 714 basechar 0
AnchorPoint: "Anchor-2" 364 714 basechar 0
AnchorPoint: "Anchor-0" 364 0 basechar 0
LayerCount: 2
Fore
SplineSet
628 0 m 1,0,-1
 566 0 l 1,1,-1
 153 624 l 1,2,-1
 150 624 l 1,3,4
 152 585 152 585 153 541.5 c 128,-1,5
 154 498 154 498 154 450 c 2,6,-1
 154 0 l 1,7,-1
 100 0 l 1,8,-1
 100 714 l 1,9,-1
 162 714 l 1,10,-1
 574 92 l 1,11,-1
 578 92 l 1,12,13
 576 123 576 123 575 171.5 c 128,-1,14
 574 220 574 220 574 261 c 2,15,-1
 574 714 l 1,16,-1
 628 714 l 1,17,-1
 628 0 l 1,0,-1
EndSplineSet
Substitution2: "'c2sc' Capitals to Small Capitals lookup 33 subtable" n.sc
EndChar

StartChar: O
Encoding: 79 79 50
Width: 768
GlyphClass: 2
Flags: W
AnchorPoint: "Anchor-3" 748 714 basechar 0
AnchorPoint: "Anchor-2" 384 714 basechar 0
AnchorPoint: "Anchor-1" 384 357 basechar 0
AnchorPoint: "Anchor-0" 384 0 basechar 0
LayerCount: 2
Fore
SplineSet
705 358 m 0,0,1
 705 249 705 249 669 166 c 128,-1,2
 633 83 633 83 561.5 36.5 c 128,-1,3
 490 -10 490 -10 384 -10 c 0,4,5
 276 -10 276 -10 204.5 36.5 c 128,-1,6
 133 83 133 83 97.5 166.5 c 128,-1,7
 62 250 62 250 62 359 c 256,8,9
 62 468 62 468 98.5 550 c 128,-1,10
 135 632 135 632 207.5 678.5 c 128,-1,11
 280 725 280 725 387 725 c 0,12,13
 490 725 490 725 560.5 680.5 c 128,-1,14
 631 636 631 636 668 554 c 128,-1,15
 705 472 705 472 705 358 c 0,0,1
123 358 m 0,16,17
 123 263 123 263 151 191.5 c 128,-1,18
 179 120 179 120 237 80.5 c 128,-1,19
 295 41 295 41 384 41 c 0,20,21
 474 41 474 41 531.5 80.5 c 128,-1,22
 589 120 589 120 616.5 191 c 128,-1,23
 644 262 644 262 644 358 c 0,24,25
 644 506 644 506 579.5 589.5 c 128,-1,26
 515 673 515 673 387 673 c 0,27,28
 298 673 298 673 239 633.5 c 128,-1,29
 180 594 180 594 151.5 523 c 128,-1,30
 123 452 123 452 123 358 c 0,16,17
EndSplineSet
Substitution2: "'c2sc' Capitals to Small Capitals lookup 33 subtable" o.sc
Substitution2: "Single Substitution lookup 28 subtable" ordmasculine
EndChar

StartChar: P
Encoding: 80 80 51
Width: 589
GlyphClass: 2
Flags: W
AnchorPoint: "Anchor-3" 569 714 basechar 0
AnchorPoint: "Anchor-2" 302 714 basechar 0
AnchorPoint: "Anchor-0" 295 0 basechar 0
LayerCount: 2
Fore
SplineSet
278 714 m 2,0,1
 535 714 535 714 535 512 c 0,2,3
 535 409 535 409 468.5 350.5 c 128,-1,4
 402 292 402 292 262 292 c 2,5,-1
 158 292 l 1,6,-1
 158 0 l 1,7,-1
 100 0 l 1,8,-1
 100 714 l 1,9,-1
 278 714 l 2,0,1
272 663 m 2,10,-1
 158 663 l 1,11,-1
 158 342 l 1,12,-1
 256 342 l 2,13,14
 360 342 360 342 417.5 378.5 c 128,-1,15
 475 415 475 415 475 509 c 0,16,17
 475 589 475 589 425.5 626 c 128,-1,18
 376 663 376 663 272 663 c 2,10,-1
EndSplineSet
Substitution2: "'c2sc' Capitals to Small Capitals lookup 33 subtable" p.sc
EndChar

StartChar: Q
Encoding: 81 81 52
Width: 768
GlyphClass: 2
Flags: W
AnchorPoint: "Anchor-3" 748 714 basechar 0
AnchorPoint: "Anchor-2" 384 714 basechar 0
AnchorPoint: "Anchor-0" 384 -170 basechar 0
LayerCount: 2
Fore
SplineSet
705 358 m 0,0,1
 705 267 705 267 679.5 193 c 128,-1,2
 654 119 654 119 603.5 69.5 c 128,-1,3
 553 20 553 20 478 2 c 1,4,-1
 634 -170 l 1,5,-1
 552 -170 l 1,6,-1
 414 -8 l 1,7,8
 406 -9 406 -9 399 -9.5 c 128,-1,9
 392 -10 392 -10 384 -10 c 0,10,11
 276 -10 276 -10 204.5 36.5 c 128,-1,12
 133 83 133 83 97.5 166.5 c 128,-1,13
 62 250 62 250 62 359 c 256,14,15
 62 468 62 468 98.5 550 c 128,-1,16
 135 632 135 632 207.5 678.5 c 128,-1,17
 280 725 280 725 387 725 c 0,18,19
 490 725 490 725 560.5 680.5 c 128,-1,20
 631 636 631 636 668 554 c 128,-1,21
 705 472 705 472 705 358 c 0,0,1
123 358 m 0,22,23
 123 263 123 263 151 191.5 c 128,-1,24
 179 120 179 120 237 80.5 c 128,-1,25
 295 41 295 41 384 41 c 0,26,27
 474 41 474 41 531.5 80.5 c 128,-1,28
 589 120 589 120 616.5 191 c 128,-1,29
 644 262 644 262 644 358 c 0,30,31
 644 506 644 506 579.5 589.5 c 128,-1,32
 515 673 515 673 387 673 c 0,33,34
 298 673 298 673 239 633.5 c 128,-1,35
 180 594 180 594 151.5 523 c 128,-1,36
 123 452 123 452 123 358 c 0,22,23
EndSplineSet
Substitution2: "'c2sc' Capitals to Small Capitals lookup 33 subtable" q.sc
EndChar

StartChar: R
Encoding: 82 82 53
Width: 600
GlyphClass: 2
Flags: W
AnchorPoint: "Anchor-3" 580 714 basechar 0
AnchorPoint: "Anchor-2" 300 714 basechar 0
AnchorPoint: "Anchor-0" 312 0 basechar 0
LayerCount: 2
Fore
SplineSet
278 714 m 2,0,1
 406 714 406 714 470.5 669 c 128,-1,2
 535 624 535 624 535 518 c 0,3,4
 535 436 535 436 491.5 390 c 128,-1,5
 448 344 448 344 383 324 c 1,6,-1
 579 0 l 1,7,-1
 510 0 l 1,8,-1
 328 308 l 1,9,-1
 158 308 l 1,10,-1
 158 0 l 1,11,-1
 100 0 l 1,12,-1
 100 714 l 1,13,-1
 278 714 l 2,0,1
273 662 m 2,14,-1
 158 662 l 1,15,-1
 158 358 l 1,16,-1
 293 358 l 2,17,18
 380 358 380 358 427.5 399 c 128,-1,19
 475 440 475 440 475 516 c 0,20,21
 475 598 475 598 425.5 630 c 128,-1,22
 376 662 376 662 273 662 c 2,14,-1
EndSplineSet
Substitution2: "'c2sc' Capitals to Small Capitals lookup 33 subtable" r.sc
EndChar

StartChar: S
Encoding: 83 83 54
Width: 546
GlyphClass: 2
Flags: W
AnchorPoint: "Anchor-3" 526 714 basechar 0
AnchorPoint: "Anchor-2" 278 714 basechar 0
AnchorPoint: "Anchor-0" 264 0 basechar 0
LayerCount: 2
Fore
SplineSet
496 186 m 0,0,1
 496 122 496 122 464 78.5 c 128,-1,2
 432 35 432 35 376 12.5 c 128,-1,3
 320 -10 320 -10 248 -10 c 0,4,5
 184 -10 184 -10 136 -1 c 128,-1,6
 88 8 88 8 54 22 c 1,7,-1
 54 79 l 1,8,9
 92 64 92 64 142.5 52.5 c 128,-1,10
 193 41 193 41 252 41 c 0,11,12
 334 41 334 41 385.5 76.5 c 128,-1,13
 437 112 437 112 437 182 c 0,14,15
 437 224 437 224 417.5 251.5 c 128,-1,16
 398 279 398 279 357.5 299.5 c 128,-1,17
 317 320 317 320 254 341 c 0,18,19
 194 362 194 362 151 386.5 c 128,-1,20
 108 411 108 411 85 448.5 c 128,-1,21
 62 486 62 486 62 543 c 0,22,23
 62 602 62 602 91.5 642 c 128,-1,24
 121 682 121 682 172.5 703 c 128,-1,25
 224 724 224 724 290 724 c 0,26,27
 342 724 342 724 389 714 c 128,-1,28
 436 704 436 704 478 686 c 1,29,-1
 458 636 l 1,30,31
 374 672 374 672 288 672 c 0,32,33
 214 672 214 672 167.5 639.5 c 128,-1,34
 121 607 121 607 121 544 c 0,35,36
 121 498 121 498 141 470.5 c 128,-1,37
 161 443 161 443 199 424 c 128,-1,38
 237 405 237 405 292 386 c 0,39,40
 355 364 355 364 400.5 339.5 c 128,-1,41
 446 315 446 315 471 279 c 128,-1,42
 496 243 496 243 496 186 c 0,0,1
EndSplineSet
Substitution2: "'c2sc' Capitals to Small Capitals lookup 33 subtable" s.sc
EndChar

StartChar: T
Encoding: 84 84 55
Width: 530
GlyphClass: 2
Flags: W
AnchorPoint: "Anchor-3" 510 714 basechar 0
AnchorPoint: "Anchor-2" 266 714 basechar 0
AnchorPoint: "Anchor-1" 266 357 basechar 0
AnchorPoint: "Anchor-0" 266 0 basechar 0
LayerCount: 2
Fore
SplineSet
294 0 m 1,0,-1
 236 0 l 1,1,-1
 236 662 l 1,2,-1
 6 662 l 1,3,-1
 6 714 l 1,4,-1
 524 714 l 1,5,-1
 524 662 l 1,6,-1
 294 662 l 1,7,-1
 294 0 l 1,0,-1
EndSplineSet
Substitution2: "'c2sc' Capitals to Small Capitals lookup 33 subtable" t.sc
EndChar

StartChar: U
Encoding: 85 85 56
Width: 722
GlyphClass: 2
Flags: W
AnchorPoint: "Anchor-3" 702 714 basechar 0
AnchorPoint: "Anchor-2" 361 714 basechar 0
AnchorPoint: "Anchor-0" 360 0 basechar 0
LayerCount: 2
Fore
SplineSet
629 714 m 1,0,-1
 629 252 l 2,1,2
 629 130 629 130 558 60 c 128,-1,3
 487 -10 487 -10 358 -10 c 0,4,5
 230 -10 230 -10 161 60 c 128,-1,6
 92 130 92 130 92 254 c 2,7,-1
 92 714 l 1,8,-1
 150 714 l 1,9,-1
 150 254 l 2,10,11
 150 150 150 150 204 95.5 c 128,-1,12
 258 41 258 41 362 41 c 0,13,14
 463 41 463 41 517.5 95.5 c 128,-1,15
 572 150 572 150 572 248 c 2,16,-1
 572 714 l 1,17,-1
 629 714 l 1,0,-1
EndSplineSet
Substitution2: "'c2sc' Capitals to Small Capitals lookup 33 subtable" u.sc
EndChar

StartChar: V
Encoding: 86 86 57
Width: 582
GlyphClass: 2
Flags: W
AnchorPoint: "Anchor-3" 562 714 basechar 0
AnchorPoint: "Anchor-2" 292 714 basechar 0
AnchorPoint: "Anchor-0" 290 0 basechar 0
LayerCount: 2
Fore
SplineSet
582 714 m 1,0,-1
 320 0 l 1,1,-1
 262 0 l 1,2,-1
 0 714 l 1,3,-1
 61 714 l 1,4,-1
 250 199 l 2,5,6
 263 163 263 163 273.5 130 c 128,-1,7
 284 97 284 97 291 68 c 1,8,9
 298 97 298 97 308 129 c 128,-1,10
 318 161 318 161 332 200 c 2,11,-1
 520 714 l 1,12,-1
 582 714 l 1,0,-1
EndSplineSet
Substitution2: "'c2sc' Capitals to Small Capitals lookup 33 subtable" v.sc
EndChar

StartChar: W
Encoding: 87 87 58
Width: 900
GlyphClass: 2
Flags: W
AnchorPoint: "Anchor-3" 880 714 basechar 0
AnchorPoint: "Anchor-2" 450 714 basechar 0
AnchorPoint: "Anchor-0" 446 0 basechar 0
LayerCount: 2
Fore
SplineSet
878 714 m 1,0,-1
 684 0 l 1,1,-1
 626 0 l 1,2,-1
 476 525 l 2,3,4
 456 599 456 599 446 642 c 1,5,6
 443 622 443 622 436.5 594 c 128,-1,7
 430 566 430 566 421 534 c 2,8,-1
 272 0 l 1,9,-1
 214 0 l 1,10,-1
 23 714 l 1,11,-1
 83 714 l 1,12,-1
 212 224 l 2,13,14
 223 182 223 182 231.5 147.5 c 128,-1,15
 240 113 240 113 246 80 c 1,16,17
 252 114 252 114 260 150 c 128,-1,18
 268 186 268 186 280 227 c 2,19,-1
 418 714 l 1,20,-1
 476 714 l 1,21,-1
 618 224 l 2,22,23
 632 181 632 181 640 145.5 c 128,-1,24
 648 110 648 110 654 78 c 1,25,26
 658 111 658 111 666 145.5 c 128,-1,27
 674 180 674 180 686 223 c 2,28,-1
 818 714 l 1,29,-1
 878 714 l 1,0,-1
EndSplineSet
Substitution2: "'c2sc' Capitals to Small Capitals lookup 33 subtable" w.sc
EndChar

StartChar: X
Encoding: 88 88 59
Width: 548
GlyphClass: 2
Flags: W
AnchorPoint: "Anchor-3" 528 714 basechar 0
AnchorPoint: "Anchor-2" 274 714 basechar 0
AnchorPoint: "Anchor-0" 274 0 basechar 0
LayerCount: 2
Fore
SplineSet
547 0 m 1,0,-1
 480 0 l 1,1,-1
 274 330 l 1,2,-1
 63 0 l 1,3,-1
 0 0 l 1,4,-1
 240 371 l 1,5,-1
 20 714 l 1,6,-1
 86 714 l 1,7,-1
 276 412 l 1,8,-1
 466 714 l 1,9,-1
 530 714 l 1,10,-1
 309 372 l 1,11,-1
 547 0 l 1,0,-1
EndSplineSet
Substitution2: "'c2sc' Capitals to Small Capitals lookup 33 subtable" x.sc
EndChar

StartChar: Y
Encoding: 89 89 60
Width: 536
GlyphClass: 2
Flags: W
AnchorPoint: "Anchor-3" 516 714 basechar 0
AnchorPoint: "Anchor-2" 268 714 basechar 0
AnchorPoint: "Anchor-0" 268 0 basechar 0
LayerCount: 2
Fore
SplineSet
268 332 m 1,0,-1
 472 714 l 1,1,-1
 536 714 l 1,2,-1
 298 276 l 1,3,-1
 298 0 l 1,4,-1
 240 0 l 1,5,-1
 240 272 l 1,6,-1
 0 714 l 1,7,-1
 64 714 l 1,8,-1
 268 332 l 1,0,-1
EndSplineSet
Substitution2: "'c2sc' Capitals to Small Capitals lookup 33 subtable" y.sc
EndChar

StartChar: Z
Encoding: 90 90 61
Width: 575
GlyphClass: 2
Flags: W
AnchorPoint: "Anchor-3" 555 714 basechar 0
AnchorPoint: "Anchor-2" 290 714 basechar 0
AnchorPoint: "Anchor-0" 293 0 basechar 0
LayerCount: 2
Fore
SplineSet
536 0 m 1,0,-1
 37 0 l 1,1,-1
 37 43 l 1,2,-1
 452 662 l 1,3,-1
 57 662 l 1,4,-1
 57 714 l 1,5,-1
 524 714 l 1,6,-1
 524 671 l 1,7,-1
 110 52 l 1,8,-1
 536 52 l 1,9,-1
 536 0 l 1,0,-1
EndSplineSet
Substitution2: "'c2sc' Capitals to Small Capitals lookup 33 subtable" z.sc
EndChar

StartChar: bracketleft
Encoding: 91 91 62
Width: 321
Flags: W
LayerCount: 2
Fore
SplineSet
296 -158 m 1,0,-1
 84 -158 l 1,1,-1
 84 714 l 1,2,-1
 296 714 l 1,3,-1
 296 666 l 1,4,-1
 140 666 l 1,5,-1
 140 -110 l 1,6,-1
 296 -110 l 1,7,-1
 296 -158 l 1,0,-1
EndSplineSet
Substitution2: "'smcp' Lowercase to Small Capitals lookup 34 subtable" bracketleft.sc
Substitution2: "'c2sc' Capitals to Small Capitals lookup 33 subtable" bracketleft.sc
EndChar

StartChar: backslash
Encoding: 92 92 63
Width: 347
Flags: W
LayerCount: 2
Fore
SplineSet
68 714 m 1,0,-1
 336 0 l 1,1,-1
 278 0 l 1,2,-1
 12 714 l 1,3,-1
 68 714 l 1,0,-1
EndSplineSet
EndChar

StartChar: bracketright
Encoding: 93 93 64
Width: 321
Flags: W
LayerCount: 2
Fore
SplineSet
25 -110 m 1,0,-1
 182 -110 l 1,1,-1
 182 666 l 1,2,-1
 25 666 l 1,3,-1
 25 714 l 1,4,-1
 237 714 l 1,5,-1
 237 -158 l 1,6,-1
 25 -158 l 1,7,-1
 25 -110 l 1,0,-1
EndSplineSet
Substitution2: "'smcp' Lowercase to Small Capitals lookup 34 subtable" bracketright.sc
Substitution2: "'c2sc' Capitals to Small Capitals lookup 33 subtable" bracketright.sc
EndChar

StartChar: asciicircum
Encoding: 94 94 65
Width: 571
Flags: W
LayerCount: 2
Fore
SplineSet
42 272 m 1,0,-1
 266 719 l 1,1,-1
 302 719 l 1,2,-1
 529 272 l 1,3,-1
 476 272 l 1,4,-1
 284 656 l 1,5,-1
 95 272 l 1,6,-1
 42 272 l 1,0,-1
EndSplineSet
EndChar

StartChar: underscore
Encoding: 95 95 66
Width: 418
Flags: W
LayerCount: 2
Fore
SplineSet
420 -135 m 1,0,-1
 -2 -135 l 1,1,-1
 -2 -90 l 1,2,-1
 420 -90 l 1,3,-1
 420 -135 l 1,0,-1
EndSplineSet
EndChar

StartChar: grave
Encoding: 96 96 67
Width: 265
Flags: W
LayerCount: 2
Fore
SplineSet
107 766 m 1,0,1
 120 744 120 744 140.5 716 c 128,-1,2
 161 688 161 688 183.5 661 c 128,-1,3
 206 634 206 634 225 615 c 1,4,-1
 225 606 l 1,5,-1
 185 606 l 1,6,7
 160 626 160 626 132 653.5 c 128,-1,8
 104 681 104 681 79 709 c 128,-1,9
 54 737 54 737 40 758 c 1,10,-1
 40 766 l 1,11,-1
 107 766 l 1,0,1
EndSplineSet
EndChar

StartChar: a
Encoding: 97 97 68
Width: 536
GlyphClass: 2
Flags: W
AnchorPoint: "Anchor-3" 501 532 basechar 0
AnchorPoint: "Anchor-2" 268 532 basechar 0
AnchorPoint: "Anchor-0" 268 0 basechar 0
LayerCount: 2
Fore
SplineSet
276 541 m 0,0,1
 366 541 366 541 410 497 c 128,-1,2
 454 453 454 453 454 358 c 2,3,-1
 454 0 l 1,4,-1
 411 0 l 1,5,-1
 400 90 l 1,6,-1
 398 90 l 1,7,8
 370 45 370 45 328 17.5 c 128,-1,9
 286 -10 286 -10 212 -10 c 0,10,11
 136 -10 136 -10 91.5 28 c 128,-1,12
 47 66 47 66 47 139 c 0,13,14
 47 218 47 218 111.5 260 c 128,-1,15
 176 302 176 302 301 307 c 2,16,-1
 398 312 l 1,17,-1
 398 349 l 2,18,19
 398 428 398 428 366.5 460.5 c 128,-1,20
 335 493 335 493 274 493 c 0,21,22
 233 493 233 493 195 482.5 c 128,-1,23
 157 472 157 472 119 452 c 1,24,-1
 101 498 l 1,25,26
 138 517 138 517 183 529 c 128,-1,27
 228 541 228 541 276 541 c 0,0,1
398 268 m 1,28,-1
 308 264 l 2,29,30
 206 260 206 260 156 229.5 c 128,-1,31
 106 199 106 199 106 138 c 0,32,33
 106 89 106 89 137 63.5 c 128,-1,34
 168 38 168 38 222 38 c 0,35,36
 305 38 305 38 350.5 85 c 128,-1,37
 396 132 396 132 398 217 c 2,38,-1
 398 268 l 1,28,-1
EndSplineSet
Substitution2: "'smcp' Lowercase to Small Capitals lookup 34 subtable" a.sc
Substitution2: "Single Substitution lookup 28 subtable" ordfeminine
EndChar

StartChar: b
Encoding: 98 98 69
Width: 599
GlyphClass: 2
Flags: W
AnchorPoint: "Anchor-3" 524 760 basechar 0
AnchorPoint: "Anchor-2" 315 760 basechar 0
AnchorPoint: "Anchor-0" 307 0 basechar 0
LayerCount: 2
Fore
SplineSet
144 760 m 1,0,-1
 144 550 l 2,1,2
 144 522 144 522 143 489 c 128,-1,3
 142 456 142 456 140 436 c 1,4,-1
 144 436 l 1,5,6
 164 481 164 481 209.5 511.5 c 128,-1,7
 255 542 255 542 325 542 c 0,8,9
 428 542 428 542 485 472.5 c 128,-1,10
 542 403 542 403 542 267 c 0,11,12
 542 141 542 141 484.5 65.5 c 128,-1,13
 427 -10 427 -10 317 -10 c 0,14,15
 250 -10 250 -10 207.5 18 c 128,-1,16
 165 46 165 46 145 86 c 1,17,-1
 140 86 l 1,18,-1
 130 0 l 1,19,-1
 87 0 l 1,20,-1
 87 760 l 1,21,-1
 144 760 l 1,0,-1
318 493 m 0,22,23
 225 493 225 493 184.5 435 c 128,-1,24
 144 377 144 377 144 267 c 2,25,-1
 144 260 l 2,26,27
 144 152 144 152 182.5 95.5 c 128,-1,28
 221 39 221 39 310 39 c 0,29,30
 396 39 396 39 439.5 98.5 c 128,-1,31
 483 158 483 158 483 268 c 0,32,33
 483 493 483 493 318 493 c 0,22,23
EndSplineSet
Substitution2: "'smcp' Lowercase to Small Capitals lookup 34 subtable" b.sc
EndChar

StartChar: c
Encoding: 99 99 70
Width: 476
GlyphClass: 2
Flags: W
AnchorPoint: "Anchor-3" 456 532 basechar 0
AnchorPoint: "Anchor-2" 295 532 basechar 0
AnchorPoint: "Anchor-0" 288 0 basechar 0
LayerCount: 2
Fore
SplineSet
301 -10 m 0,0,1
 184 -10 184 -10 120.5 61.5 c 128,-1,2
 57 133 57 133 57 263 c 0,3,4
 57 352 57 352 89 414.5 c 128,-1,5
 121 477 121 477 178.5 509.5 c 128,-1,6
 236 542 236 542 312 542 c 0,7,8
 351 542 351 542 384.5 535 c 128,-1,9
 418 528 418 528 444 516 c 1,10,-1
 428 466 l 1,11,12
 372 491 372 491 312 491 c 0,13,14
 218 491 218 491 167 430 c 128,-1,15
 116 369 116 369 116 264 c 0,16,17
 116 164 116 164 161 102 c 128,-1,18
 206 40 206 40 300 40 c 0,19,20
 340 40 340 40 375 48 c 128,-1,21
 410 56 410 56 438 69 c 1,22,-1
 438 18 l 1,23,24
 412 5 412 5 378 -2.5 c 128,-1,25
 344 -10 344 -10 301 -10 c 0,0,1
EndSplineSet
Substitution2: "'smcp' Lowercase to Small Capitals lookup 34 subtable" c.sc
EndChar

StartChar: d
Encoding: 100 100 71
Width: 599
GlyphClass: 2
Flags: W
AnchorPoint: "Anchor-3" 558 760 basechar 0
AnchorPoint: "Anchor-2" 284 760 basechar 0
AnchorPoint: "Anchor-1" 300 266 basechar 0
AnchorPoint: "Anchor-0" 292 0 basechar 0
LayerCount: 2
Fore
SplineSet
279 -10 m 0,0,1
 172 -10 172 -10 114.5 58.5 c 128,-1,2
 57 127 57 127 57 260 c 0,3,4
 57 398 57 398 117.5 470 c 128,-1,5
 178 542 178 542 284 542 c 0,6,7
 351 542 351 542 393 513 c 128,-1,8
 435 484 435 484 455 440 c 1,9,-1
 459 440 l 1,10,11
 458 464 458 464 456.5 493 c 128,-1,12
 455 522 455 522 455 544 c 2,13,-1
 455 760 l 1,14,-1
 512 760 l 1,15,-1
 512 0 l 1,16,-1
 466 0 l 1,17,-1
 458 92 l 1,18,-1
 455 92 l 1,19,20
 434 50 434 50 392 20 c 128,-1,21
 350 -10 350 -10 279 -10 c 0,0,1
286 39 m 0,22,23
 378 39 378 39 417 95 c 128,-1,24
 456 151 456 151 456 256 c 2,25,-1
 456 266 l 2,26,27
 456 376 456 376 417 434.5 c 128,-1,28
 378 493 378 493 290 493 c 0,29,30
 204 493 204 493 160 432.5 c 128,-1,31
 116 372 116 372 116 260 c 0,32,33
 116 151 116 151 158 95 c 128,-1,34
 200 39 200 39 286 39 c 0,22,23
EndSplineSet
Substitution2: "'smcp' Lowercase to Small Capitals lookup 34 subtable" d.sc
EndChar

StartChar: e
Encoding: 101 101 72
Width: 552
GlyphClass: 2
Flags: W
AnchorPoint: "Anchor-3" 532 532 basechar 0
AnchorPoint: "Anchor-2" 278 532 basechar 0
AnchorPoint: "Anchor-0" 286 0 basechar 0
LayerCount: 2
Fore
SplineSet
290 542 m 0,0,1
 358 542 358 542 404 510.5 c 128,-1,2
 450 479 450 479 473 424 c 128,-1,3
 496 369 496 369 496 298 c 2,4,-1
 496 258 l 1,5,-1
 116 258 l 1,6,7
 116 153 116 153 165 96.5 c 128,-1,8
 214 40 214 40 306 40 c 0,9,10
 356 40 356 40 393 48 c 128,-1,11
 430 56 430 56 474 76 c 1,12,-1
 474 24 l 1,13,14
 434 6 434 6 395 -2 c 128,-1,15
 356 -10 356 -10 304 -10 c 0,16,17
 185 -10 185 -10 121 63 c 128,-1,18
 57 136 57 136 57 262 c 0,19,20
 57 343 57 343 84.5 406.5 c 128,-1,21
 112 470 112 470 164 506 c 128,-1,22
 216 542 216 542 290 542 c 0,0,1
289 494 m 0,23,24
 216 494 216 494 170.5 445 c 128,-1,25
 125 396 125 396 117 306 c 1,26,-1
 436 306 l 1,27,28
 436 390 436 390 400.5 442 c 128,-1,29
 365 494 365 494 289 494 c 0,23,24
EndSplineSet
Substitution2: "'smcp' Lowercase to Small Capitals lookup 34 subtable" e.sc
EndChar

StartChar: f
Encoding: 102 102 73
Width: 309
GlyphClass: 2
Flags: W
AnchorPoint: "Anchor-3" 352 765 basechar 0
AnchorPoint: "Anchor-2" 234 765 basechar 0
AnchorPoint: "Anchor-0" 140 0 basechar 0
LayerCount: 2
Fore
SplineSet
295 486 m 1,0,-1
 168 486 l 1,1,-1
 168 0 l 1,2,-1
 111 0 l 1,3,-1
 111 486 l 1,4,-1
 13 486 l 1,5,-1
 13 517 l 1,6,-1
 111 534 l 1,7,-1
 111 586 l 2,8,9
 111 678 111 678 150.5 721.5 c 128,-1,10
 190 765 190 765 270 765 c 0,11,12
 298 765 298 765 321 760.5 c 128,-1,13
 344 756 344 756 363 750 c 1,14,-1
 350 702 l 1,15,16
 332 708 332 708 311.5 712 c 128,-1,17
 291 716 291 716 270 716 c 0,18,19
 216 716 216 716 192 685.5 c 128,-1,20
 168 655 168 655 168 587 c 2,21,-1
 168 532 l 1,22,-1
 295 532 l 1,23,-1
 295 486 l 1,0,-1
EndSplineSet
Substitution2: "'smcp' Lowercase to Small Capitals lookup 34 subtable" f.sc
EndChar

StartChar: g
Encoding: 103 103 74
Width: 599
GlyphClass: 2
Flags: W
AnchorPoint: "Anchor-3" 559 532 basechar 0
AnchorPoint: "Anchor-2" 294 532 basechar 0
AnchorPoint: "Anchor-0" 295 -240 basechar 0
LayerCount: 2
Fore
SplineSet
282 542 m 0,0,1
 345 542 345 542 386.5 518 c 128,-1,2
 428 494 428 494 453 451 c 1,3,-1
 456 451 l 1,4,-1
 465 532 l 1,5,-1
 511 532 l 1,6,-1
 511 -17 l 2,7,8
 511 -122 511 -122 457.5 -181 c 128,-1,9
 404 -240 404 -240 282 -240 c 0,10,11
 222 -240 222 -240 176 -230 c 128,-1,12
 130 -220 130 -220 92 -204 c 1,13,-1
 92 -149 l 1,14,15
 130 -168 130 -168 178.5 -179.5 c 128,-1,16
 227 -191 227 -191 284 -191 c 0,17,18
 371 -191 371 -191 412.5 -145 c 128,-1,19
 454 -99 454 -99 454 -20 c 2,20,-1
 454 11 l 2,21,22
 454 32 454 32 455 53 c 128,-1,23
 456 74 456 74 457 94 c 1,24,-1
 454 94 l 1,25,26
 432 42 432 42 386 16 c 128,-1,27
 340 -10 340 -10 276 -10 c 0,28,29
 172 -10 172 -10 114.5 60 c 128,-1,30
 57 130 57 130 57 262 c 0,31,32
 57 391 57 391 114.5 466.5 c 128,-1,33
 172 542 172 542 282 542 c 0,0,1
288 492 m 0,34,35
 202 492 202 492 159 431.5 c 128,-1,36
 116 371 116 371 116 261 c 0,37,38
 116 152 116 152 158.5 95 c 128,-1,39
 201 38 201 38 282 38 c 0,40,41
 348 38 348 38 385.5 65 c 128,-1,42
 423 92 423 92 439 139 c 128,-1,43
 455 186 455 186 455 246 c 2,44,-1
 455 280 l 2,45,46
 455 382 455 382 417.5 437 c 128,-1,47
 380 492 380 492 288 492 c 0,34,35
EndSplineSet
Substitution2: "'smcp' Lowercase to Small Capitals lookup 34 subtable" g.sc
EndChar

StartChar: h
Encoding: 104 104 75
Width: 596
GlyphClass: 2
Flags: W
AnchorPoint: "Anchor-3" 544 760 basechar 0
AnchorPoint: "Anchor-2" 116 760 basechar 0
AnchorPoint: "Anchor-1" 298 266 basechar 0
AnchorPoint: "Anchor-0" 298 0 basechar 0
LayerCount: 2
Fore
SplineSet
144 760 m 1,0,-1
 144 516 l 2,1,2
 144 476 144 476 141 440 c 1,3,-1
 145 440 l 1,4,5
 165 484 165 484 211 513 c 128,-1,6
 257 542 257 542 325 542 c 0,7,8
 416 542 416 542 464.5 495 c 128,-1,9
 513 448 513 448 513 348 c 2,10,-1
 513 0 l 1,11,-1
 456 0 l 1,12,-1
 456 344 l 2,13,14
 456 420 456 420 421.5 456 c 128,-1,15
 387 492 387 492 320 492 c 0,16,17
 144 492 144 492 144 290 c 2,18,-1
 144 0 l 1,19,-1
 88 0 l 1,20,-1
 88 760 l 1,21,-1
 144 760 l 1,0,-1
EndSplineSet
Substitution2: "'smcp' Lowercase to Small Capitals lookup 34 subtable" h.sc
Substitution2: "'subs' Subscript lookup 18 subtable" uni2095
EndChar

StartChar: i
Encoding: 105 105 76
Width: 232
GlyphClass: 2
Flags: W
AnchorPoint: "Anchor-3" 212 729 basechar 0
AnchorPoint: "Anchor-2" 116 729 basechar 0
AnchorPoint: "Anchor-0" 118 0 basechar 0
LayerCount: 2
Fore
SplineSet
116 729 m 0,0,1
 156 729 156 729 156 686 c 0,2,3
 156 642 156 642 116 642 c 0,4,5
 78 642 78 642 78 686 c 0,6,7
 78 729 78 729 116 729 c 0,0,1
144 532 m 1,8,-1
 144 0 l 1,9,-1
 88 0 l 1,10,-1
 88 532 l 1,11,-1
 144 532 l 1,8,-1
EndSplineSet
Substitution2: "'smcp' Lowercase to Small Capitals lookup 34 subtable" i.sc
Substitution2: "Single Substitution lookup 5 subtable" dotlessi
Substitution2: "Single Substitution lookup 4 subtable" dotlessi
EndChar

StartChar: j
Encoding: 106 106 77
Width: 232
GlyphClass: 2
Flags: W
AnchorPoint: "Anchor-3" 212 729 basechar 0
AnchorPoint: "Anchor-2" 116 729 basechar 0
AnchorPoint: "Anchor-0" 16 -240 basechar 0
LayerCount: 2
Fore
SplineSet
78 686 m 0,0,1
 78 729 78 729 116 729 c 0,2,3
 156 729 156 729 156 686 c 0,4,5
 156 642 156 642 116 642 c 0,6,7
 78 642 78 642 78 686 c 0,0,1
16 -240 m 0,8,9
 -27 -240 -27 -240 -52 -229 c 1,10,-1
 -52 -180 l 1,11,12
 -24 -191 -24 -191 11 -191 c 0,13,14
 47 -191 47 -191 67.5 -169 c 128,-1,15
 88 -147 88 -147 88 -100 c 2,16,-1
 88 532 l 1,17,-1
 144 532 l 1,18,-1
 144 -100 l 2,19,20
 144 -168 144 -168 110.5 -204 c 128,-1,21
 77 -240 77 -240 16 -240 c 0,8,9
EndSplineSet
Substitution2: "'smcp' Lowercase to Small Capitals lookup 34 subtable" j.sc
Substitution2: "Single Substitution lookup 5 subtable" uni0237
Substitution2: "Single Substitution lookup 4 subtable" uni0237
EndChar

StartChar: k
Encoding: 107 107 78
Width: 494
GlyphClass: 2
Flags: W
AnchorPoint: "Anchor-3" 482 760 basechar 0
AnchorPoint: "Anchor-2" 116 760 basechar 0
AnchorPoint: "Anchor-0" 247 0 basechar 0
LayerCount: 2
Fore
SplineSet
144 760 m 1,0,-1
 144 374 l 2,1,2
 144 342 144 342 143 307.5 c 128,-1,3
 142 273 142 273 142 239 c 1,4,-1
 143 239 l 1,5,6
 156 255 156 255 172.5 275.5 c 128,-1,7
 189 296 189 296 204 312 c 2,8,-1
 406 532 l 1,9,-1
 474 532 l 1,10,-1
 264 304 l 1,11,-1
 492 0 l 1,12,-1
 424 0 l 1,13,-1
 224 266 l 1,14,-1
 144 184 l 1,15,-1
 144 0 l 1,16,-1
 88 0 l 1,17,-1
 88 760 l 1,18,-1
 144 760 l 1,0,-1
EndSplineSet
Substitution2: "'smcp' Lowercase to Small Capitals lookup 34 subtable" k.sc
Substitution2: "'subs' Subscript lookup 18 subtable" uni2096
EndChar

StartChar: l
Encoding: 108 108 79
Width: 311
GlyphClass: 2
Flags: W
AnchorPoint: "Anchor-0" 116 -5 basechar 0
AnchorPoint: "Anchor-2" 116 760 basechar 0
LayerCount: 2
Fore
SplineSet
212 -5 m 0,0,1
 151 -5 151 -5 119.5 27.5 c 128,-1,2
 88 60 88 60 88 141 c 2,3,-1
 88 760 l 1,4,-1
 144 760 l 1,5,-1
 144 146 l 2,6,7
 144 91 144 91 160.5 67 c 128,-1,8
 177 43 177 43 219 43 c 0,9,10
 225 43 225 43 241 46 c 128,-1,11
 257 49 257 49 267 53 c 1,12,-1
 267 7 l 1,13,14
 257 3 257 3 240.5 -1 c 128,-1,15
 224 -5 224 -5 212 -5 c 0,0,1
EndSplineSet
Substitution2: "'smcp' Lowercase to Small Capitals lookup 34 subtable" l.sc
Substitution2: "'subs' Subscript lookup 18 subtable" uni2097
EndChar

StartChar: m
Encoding: 109 109 80
Width: 894
GlyphClass: 2
Flags: W
AnchorPoint: "Anchor-3" 858 532 basechar 0
AnchorPoint: "Anchor-2" 452 532 basechar 0
AnchorPoint: "Anchor-0" 450 0 basechar 0
LayerCount: 2
Fore
SplineSet
644 542 m 0,0,1
 723 542 723 542 767.5 497 c 128,-1,2
 812 452 812 452 812 355 c 2,3,-1
 812 0 l 1,4,-1
 756 0 l 1,5,-1
 756 352 l 2,6,7
 756 424 756 424 724 458 c 128,-1,8
 692 492 692 492 636 492 c 0,9,10
 560 492 560 492 519 447.5 c 128,-1,11
 478 403 478 403 478 310 c 2,12,-1
 478 0 l 1,13,-1
 422 0 l 1,14,-1
 422 352 l 2,15,16
 422 424 422 424 390 458 c 128,-1,17
 358 492 358 492 302 492 c 0,18,19
 226 492 226 492 185 445.5 c 128,-1,20
 144 399 144 399 144 302 c 2,21,-1
 144 0 l 1,22,-1
 88 0 l 1,23,-1
 88 532 l 1,24,-1
 134 532 l 1,25,-1
 142 448 l 1,26,-1
 146 448 l 1,27,28
 166 487 166 487 206.5 514.5 c 128,-1,29
 247 542 247 542 310 542 c 0,30,31
 368 542 368 542 408 517 c 128,-1,32
 448 492 448 492 464 442 c 1,33,-1
 468 442 l 1,34,35
 490 490 490 490 536 516 c 128,-1,36
 582 542 582 542 644 542 c 0,0,1
EndSplineSet
Substitution2: "'smcp' Lowercase to Small Capitals lookup 34 subtable" m.sc
Substitution2: "'subs' Subscript lookup 18 subtable" uni2098
EndChar

StartChar: n
Encoding: 110 110 81
Width: 596
GlyphClass: 2
Flags: W
AnchorPoint: "Anchor-3" 558 532 basechar 0
AnchorPoint: "Anchor-2" 298 532 basechar 0
AnchorPoint: "Anchor-0" 298 0 basechar 0
LayerCount: 2
Fore
SplineSet
326 542 m 0,0,1
 417 542 417 542 465 495 c 128,-1,2
 513 448 513 448 513 348 c 2,3,-1
 513 0 l 1,4,-1
 456 0 l 1,5,-1
 456 344 l 2,6,7
 456 420 456 420 421.5 456 c 128,-1,8
 387 492 387 492 320 492 c 0,9,10
 144 492 144 492 144 290 c 2,11,-1
 144 0 l 1,12,-1
 88 0 l 1,13,-1
 88 532 l 1,14,-1
 134 532 l 1,15,-1
 142 440 l 1,16,-1
 146 440 l 1,17,18
 167 484 167 484 212.5 513 c 128,-1,19
 258 542 258 542 326 542 c 0,0,1
EndSplineSet
Substitution2: "'smcp' Lowercase to Small Capitals lookup 34 subtable" n.sc
Substitution2: "'sups' Superscript lookup 19 subtable" nsuperior
Substitution2: "'subs' Subscript lookup 18 subtable" uni2099
EndChar

StartChar: o
Encoding: 111 111 82
Width: 590
GlyphClass: 2
Flags: W
AnchorPoint: "Anchor-3" 565 532 basechar 0
AnchorPoint: "Anchor-2" 296 532 basechar 0
AnchorPoint: "Anchor-1" 296 266 basechar 0
AnchorPoint: "Anchor-0" 294 0 basechar 0
LayerCount: 2
Fore
SplineSet
533 266 m 256,0,1
 533 183 533 183 505.5 121 c 128,-1,2
 478 59 478 59 424.5 24.5 c 128,-1,3
 371 -10 371 -10 294 -10 c 0,4,5
 220 -10 220 -10 167 24 c 128,-1,6
 114 58 114 58 85.5 120 c 128,-1,7
 57 182 57 182 57 266 c 0,8,9
 57 396 57 396 121.5 469 c 128,-1,10
 186 542 186 542 298 542 c 0,11,12
 374 542 374 542 426.5 507.5 c 128,-1,13
 479 473 479 473 506 411 c 128,-1,14
 533 349 533 349 533 266 c 256,0,1
116 266 m 0,15,16
 116 164 116 164 159 101.5 c 128,-1,17
 202 39 202 39 294 39 c 0,18,19
 387 39 387 39 430.5 101.5 c 128,-1,20
 474 164 474 164 474 266 c 0,21,22
 474 332 474 332 456 383 c 128,-1,23
 438 434 438 434 399 463 c 128,-1,24
 360 492 360 492 297 492 c 0,25,26
 206 492 206 492 161 432 c 128,-1,27
 116 372 116 372 116 266 c 0,15,16
EndSplineSet
Substitution2: "'smcp' Lowercase to Small Capitals lookup 34 subtable" o.sc
Substitution2: "Single Substitution lookup 28 subtable" ordmasculine
EndChar

StartChar: p
Encoding: 112 112 83
Width: 599
GlyphClass: 2
Flags: W
AnchorPoint: "Anchor-3" 574 532 basechar 0
AnchorPoint: "Anchor-2" 312 532 basechar 0
AnchorPoint: "Anchor-0" 116 -236 basechar 0
LayerCount: 2
Fore
SplineSet
326 542 m 0,0,1
 428 542 428 542 485.5 473.5 c 128,-1,2
 543 405 543 405 543 269 c 256,3,4
 543 133 543 133 483.5 61.5 c 128,-1,5
 424 -10 424 -10 321 -10 c 0,6,7
 250 -10 250 -10 207.5 20 c 128,-1,8
 165 50 165 50 145 92 c 1,9,-1
 141 92 l 1,10,11
 142 66 142 66 143.5 37 c 128,-1,12
 145 8 145 8 145 -18 c 2,13,-1
 145 -236 l 1,14,-1
 88 -236 l 1,15,-1
 88 532 l 1,16,-1
 135 532 l 1,17,-1
 142 432 l 1,18,-1
 145 432 l 1,19,20
 165 476 165 476 208.5 509 c 128,-1,21
 252 542 252 542 326 542 c 0,0,1
318 492 m 0,22,23
 230 492 230 492 188 436.5 c 128,-1,24
 146 381 146 381 145 276 c 2,25,-1
 145 266 l 2,26,27
 145 152 145 152 186.5 95.5 c 128,-1,28
 228 39 228 39 314 39 c 0,29,30
 396 39 396 39 440 100 c 128,-1,31
 484 161 484 161 484 270 c 0,32,33
 484 377 484 377 442.5 434.5 c 128,-1,34
 401 492 401 492 318 492 c 0,22,23
EndSplineSet
Substitution2: "'smcp' Lowercase to Small Capitals lookup 34 subtable" p.sc
Substitution2: "'subs' Subscript lookup 18 subtable" uni209A
EndChar

StartChar: q
Encoding: 113 113 84
Width: 599
GlyphClass: 2
Flags: W
AnchorPoint: "Anchor-3" 559 532 basechar 0
AnchorPoint: "Anchor-2" 300 532 basechar 0
AnchorPoint: "Anchor-0" 482 -236 basechar 0
LayerCount: 2
Fore
SplineSet
454 -236 m 1,0,-1
 454 -4 l 2,1,2
 454 17 454 17 454.5 46.5 c 128,-1,3
 455 76 455 76 457 97 c 1,4,-1
 453 97 l 1,5,6
 433 51 433 51 387 20.5 c 128,-1,7
 341 -10 341 -10 271 -10 c 0,8,9
 170 -10 170 -10 113 59.5 c 128,-1,10
 56 129 56 129 56 264 c 0,11,12
 56 390 56 390 113 466 c 128,-1,13
 170 542 170 542 280 542 c 0,14,15
 348 542 348 542 390.5 513 c 128,-1,16
 433 484 433 484 453 444 c 1,17,-1
 456 444 l 1,18,-1
 464 532 l 1,19,-1
 510 532 l 1,20,-1
 510 -236 l 1,21,-1
 454 -236 l 1,0,-1
280 38 m 0,22,23
 372 38 372 38 412.5 94.5 c 128,-1,24
 453 151 453 151 454 256 c 2,25,-1
 454 270 l 2,26,27
 454 380 454 380 414.5 436.5 c 128,-1,28
 375 493 375 493 286 493 c 0,29,30
 200 493 200 493 157 432 c 128,-1,31
 114 371 114 371 114 264 c 0,32,33
 114 154 114 154 155 96 c 128,-1,34
 196 38 196 38 280 38 c 0,22,23
EndSplineSet
Substitution2: "'smcp' Lowercase to Small Capitals lookup 34 subtable" q.sc
EndChar

StartChar: r
Encoding: 114 114 85
Width: 394
GlyphClass: 2
Flags: W
AnchorPoint: "Anchor-3" 374 532 basechar 0
AnchorPoint: "Anchor-2" 214 532 basechar 0
AnchorPoint: "Anchor-0" 115 0 basechar 0
LayerCount: 2
Fore
SplineSet
306 541 m 0,0,1
 348 541 348 541 378 532 c 1,2,-1
 370 480 l 1,3,4
 354 484 354 484 338 486 c 128,-1,5
 322 488 322 488 304 488 c 0,6,7
 230 488 230 488 187.5 434.5 c 128,-1,8
 145 381 145 381 145 292 c 2,9,-1
 145 0 l 1,10,-1
 88 0 l 1,11,-1
 88 532 l 1,12,-1
 136 532 l 1,13,-1
 142 432 l 1,14,-1
 145 432 l 1,15,16
 165 477 165 477 205.5 509 c 128,-1,17
 246 541 246 541 306 541 c 0,0,1
EndSplineSet
Substitution2: "'smcp' Lowercase to Small Capitals lookup 34 subtable" r.sc
EndChar

StartChar: s
Encoding: 115 115 86
Width: 468
GlyphClass: 2
Flags: W
AnchorPoint: "Anchor-3" 438 532 basechar 0
AnchorPoint: "Anchor-2" 234 532 basechar 0
AnchorPoint: "Anchor-0" 234 0 basechar 0
LayerCount: 2
Fore
SplineSet
422 141 m 0,0,1
 422 68 422 68 368.5 29 c 128,-1,2
 315 -10 315 -10 216 -10 c 0,3,4
 160 -10 160 -10 117.5 0 c 128,-1,5
 75 10 75 10 46 24 c 1,6,-1
 46 79 l 1,7,8
 81 61 81 61 126 49.5 c 128,-1,9
 171 38 171 38 218 38 c 0,10,11
 296 38 296 38 331 64.5 c 128,-1,12
 366 91 366 91 366 137 c 0,13,14
 366 181 366 181 329.5 204.5 c 128,-1,15
 293 228 293 228 220 253 c 0,16,17
 171 270 171 270 133.5 287 c 128,-1,18
 96 304 96 304 75 331.5 c 128,-1,19
 54 359 54 359 54 406 c 0,20,21
 54 470 54 470 106 506 c 128,-1,22
 158 542 158 542 245 542 c 0,23,24
 293 542 293 542 334.5 532.5 c 128,-1,25
 376 523 376 523 410 509 c 1,26,-1
 390 462 l 1,27,28
 359 476 359 476 320 485 c 128,-1,29
 281 494 281 494 242 494 c 0,30,31
 179 494 179 494 144 472 c 128,-1,32
 109 450 109 450 109 408 c 0,33,34
 109 376 109 376 126 357.5 c 128,-1,35
 143 339 143 339 175 325.5 c 128,-1,36
 207 312 207 312 253 296 c 0,37,38
 300 280 300 280 338.5 262 c 128,-1,39
 377 244 377 244 399.5 216 c 128,-1,40
 422 188 422 188 422 141 c 0,0,1
EndSplineSet
Substitution2: "'smcp' Lowercase to Small Capitals lookup 34 subtable" s.sc
Substitution2: "'subs' Subscript lookup 18 subtable" uni209B
EndChar

StartChar: t
Encoding: 116 116 87
Width: 340
GlyphClass: 2
Flags: W
AnchorPoint: "Anchor-3" 317 659 basechar 0
AnchorPoint: "Anchor-2" 132 659 basechar 0
AnchorPoint: "Anchor-1" 170 266 basechar 0
AnchorPoint: "Anchor-0" 202 0 basechar 0
LayerCount: 2
Fore
SplineSet
238 38 m 0,0,1
 260 38 260 38 280.5 41.5 c 128,-1,2
 301 45 301 45 315 50 c 1,3,-1
 315 4 l 1,4,5
 299 -2 299 -2 277.5 -6 c 128,-1,6
 256 -10 256 -10 230 -10 c 0,7,8
 164 -10 164 -10 128 27.5 c 128,-1,9
 92 65 92 65 92 148 c 2,10,-1
 92 486 l 1,11,-1
 13 486 l 1,12,-1
 13 518 l 1,13,-1
 92 536 l 1,14,-1
 112 659 l 1,15,-1
 148 659 l 1,16,-1
 148 532 l 1,17,-1
 312 532 l 1,18,-1
 312 486 l 1,19,-1
 148 486 l 1,20,-1
 148 150 l 2,21,22
 148 38 148 38 238 38 c 0,0,1
EndSplineSet
Substitution2: "'smcp' Lowercase to Small Capitals lookup 34 subtable" t.sc
Substitution2: "'subs' Subscript lookup 18 subtable" uni209C
EndChar

StartChar: u
Encoding: 117 117 88
Width: 596
GlyphClass: 2
Flags: W
AnchorPoint: "Anchor-3" 558 532 basechar 0
AnchorPoint: "Anchor-2" 298 532 basechar 0
AnchorPoint: "Anchor-0" 290 0 basechar 0
LayerCount: 2
Fore
SplineSet
507 532 m 1,0,-1
 507 0 l 1,1,-1
 460 0 l 1,2,-1
 452 91 l 1,3,-1
 449 91 l 1,4,5
 427 48 427 48 381.5 19 c 128,-1,6
 336 -10 336 -10 268 -10 c 0,7,8
 80 -10 80 -10 80 184 c 2,9,-1
 80 532 l 1,10,-1
 138 532 l 1,11,-1
 138 188 l 2,12,13
 138 112 138 112 172 75.5 c 128,-1,14
 206 39 206 39 274 39 c 0,15,16
 450 39 450 39 450 242 c 2,17,-1
 450 532 l 1,18,-1
 507 532 l 1,0,-1
EndSplineSet
Substitution2: "'smcp' Lowercase to Small Capitals lookup 34 subtable" u.sc
EndChar

StartChar: v
Encoding: 118 118 89
Width: 469
GlyphClass: 2
Flags: W
AnchorPoint: "Anchor-3" 449 532 basechar 0
AnchorPoint: "Anchor-2" 234 532 basechar 0
AnchorPoint: "Anchor-0" 234 0 basechar 0
LayerCount: 2
Fore
SplineSet
204 0 m 1,0,-1
 0 532 l 1,1,-1
 60 532 l 1,2,-1
 192 179 l 2,3,4
 205 146 205 146 215.5 114 c 128,-1,5
 226 82 226 82 232 57 c 1,6,-1
 236 57 l 1,7,8
 243 82 243 82 253.5 114.5 c 128,-1,9
 264 147 264 147 276 179 c 2,10,-1
 408 532 l 1,11,-1
 469 532 l 1,12,-1
 265 0 l 1,13,-1
 204 0 l 1,0,-1
EndSplineSet
Substitution2: "'smcp' Lowercase to Small Capitals lookup 34 subtable" v.sc
EndChar

StartChar: w
Encoding: 119 119 90
Width: 736
GlyphClass: 2
Flags: W
AnchorPoint: "Anchor-3" 716 532 basechar 0
AnchorPoint: "Anchor-2" 368 532 basechar 0
AnchorPoint: "Anchor-0" 367 0 basechar 0
LayerCount: 2
Fore
SplineSet
514 0 m 1,0,-1
 406 346 l 2,1,2
 396 379 396 379 387 408.5 c 128,-1,3
 378 438 378 438 372 464 c 1,4,-1
 370 464 l 1,5,6
 364 438 364 438 356 408 c 128,-1,7
 348 378 348 378 337 345 c 2,8,-1
 224 0 l 1,9,-1
 164 0 l 1,10,-1
 14 532 l 1,11,-1
 73 532 l 1,12,-1
 163 203 l 2,13,14
 175 159 175 159 183.5 125.5 c 128,-1,15
 192 92 192 92 196 66 c 1,16,-1
 198 66 l 1,17,18
 204 90 204 90 212 123 c 128,-1,19
 220 156 220 156 234 196 c 2,20,-1
 344 532 l 1,21,-1
 402 532 l 1,22,-1
 508 196 l 2,23,24
 518 160 518 160 528 126 c 128,-1,25
 538 92 538 92 542 66 c 1,26,-1
 546 66 l 1,27,28
 549 90 549 90 557.5 124.5 c 128,-1,29
 566 159 566 159 577 203 c 2,30,-1
 664 532 l 1,31,-1
 722 532 l 1,32,-1
 577 0 l 1,33,-1
 514 0 l 1,0,-1
EndSplineSet
Substitution2: "'smcp' Lowercase to Small Capitals lookup 34 subtable" w.sc
EndChar

StartChar: x
Encoding: 120 120 91
Width: 504
GlyphClass: 2
Flags: W
AnchorPoint: "Anchor-3" 484 532 basechar 0
AnchorPoint: "Anchor-2" 252 532 basechar 0
AnchorPoint: "Anchor-0" 252 0 basechar 0
LayerCount: 2
Fore
SplineSet
216 273 m 1,0,-1
 30 532 l 1,1,-1
 97 532 l 1,2,-1
 250 312 l 1,3,-1
 404 532 l 1,4,-1
 469 532 l 1,5,-1
 285 273 l 1,6,-1
 480 0 l 1,7,-1
 414 0 l 1,8,-1
 250 234 l 1,9,-1
 87 0 l 1,10,-1
 22 0 l 1,11,-1
 216 273 l 1,0,-1
EndSplineSet
Substitution2: "'smcp' Lowercase to Small Capitals lookup 34 subtable" x.sc
EndChar

StartChar: y
Encoding: 121 121 92
Width: 469
GlyphClass: 2
Flags: W
AnchorPoint: "Anchor-3" 449 532 basechar 0
AnchorPoint: "Anchor-2" 234 532 basechar 0
AnchorPoint: "Anchor-0" 72 -242 basechar 0
LayerCount: 2
Fore
SplineSet
0 532 m 1,0,-1
 61 532 l 1,1,-1
 188 201 l 2,2,3
 204 157 204 157 216 122.5 c 128,-1,4
 228 88 228 88 235 61 c 1,5,-1
 238 61 l 1,6,7
 245 84 245 84 257 120 c 128,-1,8
 269 156 269 156 285 200 c 2,9,-1
 409 532 l 1,10,-1
 470 532 l 1,11,-1
 230 -95 l 2,12,13
 203 -165 203 -165 166 -203.5 c 128,-1,14
 129 -242 129 -242 66 -242 c 0,15,16
 46 -242 46 -242 31 -239 c 128,-1,17
 16 -236 16 -236 2 -232 c 1,18,-1
 2 -184 l 1,19,20
 28 -193 28 -193 59 -193 c 0,21,22
 101 -193 101 -193 127.5 -167 c 128,-1,23
 154 -141 154 -141 174 -88 c 2,24,-1
 209 2 l 1,25,-1
 0 532 l 1,0,-1
EndSplineSet
Substitution2: "'smcp' Lowercase to Small Capitals lookup 34 subtable" y.sc
EndChar

StartChar: z
Encoding: 122 122 93
Width: 463
GlyphClass: 2
Flags: W
AnchorPoint: "Anchor-3" 433 532 basechar 0
AnchorPoint: "Anchor-2" 232 532 basechar 0
AnchorPoint: "Anchor-0" 235 0 basechar 0
LayerCount: 2
Fore
SplineSet
422 0 m 1,0,-1
 40 0 l 1,1,-1
 40 37 l 1,2,-1
 352 486 l 1,3,-1
 62 486 l 1,4,-1
 62 532 l 1,5,-1
 420 532 l 1,6,-1
 420 492 l 1,7,-1
 108 46 l 1,8,-1
 422 46 l 1,9,-1
 422 0 l 1,0,-1
EndSplineSet
Substitution2: "'smcp' Lowercase to Small Capitals lookup 34 subtable" z.sc
EndChar

StartChar: braceleft
Encoding: 123 123 94
Width: 358
Flags: W
LayerCount: 2
Fore
SplineSet
324 -158 m 1,0,1
 237 -158 237 -158 190 -121 c 128,-1,2
 143 -84 143 -84 143 -11 c 2,3,-1
 143 148 l 2,4,5
 143 205 143 205 114.5 229.5 c 128,-1,6
 86 254 86 254 27 254 c 1,7,-1
 27 302 l 1,8,9
 86 303 86 303 114.5 327 c 128,-1,10
 143 351 143 351 143 408 c 2,11,-1
 143 568 l 2,12,13
 143 640 143 640 191 677 c 128,-1,14
 239 714 239 714 324 714 c 1,15,-1
 324 666 l 1,16,17
 262 664 262 664 231 640 c 128,-1,18
 200 616 200 616 200 560 c 2,19,-1
 200 404 l 2,20,21
 200 353 200 353 178 321 c 128,-1,22
 156 289 156 289 106 280 c 1,23,-1
 106 276 l 1,24,25
 156 267 156 267 178 235.5 c 128,-1,26
 200 204 200 204 200 153 c 2,27,-1
 200 -7 l 2,28,29
 200 -60 200 -60 231 -84.5 c 128,-1,30
 262 -109 262 -109 324 -110 c 1,31,-1
 324 -158 l 1,0,1
EndSplineSet
Substitution2: "'smcp' Lowercase to Small Capitals lookup 34 subtable" braceleft.sc
Substitution2: "'c2sc' Capitals to Small Capitals lookup 33 subtable" braceleft.sc
EndChar

StartChar: bar
Encoding: 124 124 95
Width: 543
Flags: W
LayerCount: 2
Fore
SplineSet
246 762 m 1,0,-1
 295 762 l 1,1,-1
 295 -246 l 1,2,-1
 246 -246 l 1,3,-1
 246 762 l 1,0,-1
EndSplineSet
EndChar

StartChar: braceright
Encoding: 125 125 96
Width: 358
Flags: W
LayerCount: 2
Fore
SplineSet
34 -158 m 1,0,-1
 34 -110 l 1,1,2
 96 -108 96 -108 127 -84 c 128,-1,3
 158 -60 158 -60 158 -6 c 2,4,-1
 158 152 l 2,5,6
 158 203 158 203 180 235 c 128,-1,7
 202 267 202 267 252 276 c 1,8,-1
 252 280 l 1,9,10
 202 289 202 289 180 321 c 128,-1,11
 158 353 158 353 158 404 c 2,12,-1
 158 561 l 2,13,14
 158 616 158 616 127 640.5 c 128,-1,15
 96 665 96 665 34 666 c 1,16,-1
 34 714 l 1,17,18
 121 714 121 714 168 677 c 128,-1,19
 215 640 215 640 215 567 c 2,20,-1
 215 408 l 2,21,22
 215 351 215 351 243.5 326.5 c 128,-1,23
 272 302 272 302 331 302 c 1,24,-1
 331 254 l 1,25,26
 272 254 272 254 243.5 229.5 c 128,-1,27
 215 205 215 205 215 148 c 2,28,-1
 215 -12 l 2,29,30
 215 -84 215 -84 167 -121 c 128,-1,31
 119 -158 119 -158 34 -158 c 1,0,-1
EndSplineSet
Substitution2: "'smcp' Lowercase to Small Capitals lookup 34 subtable" braceright.sc
Substitution2: "'c2sc' Capitals to Small Capitals lookup 33 subtable" braceright.sc
EndChar

StartChar: asciitilde
Encoding: 126 126 97
Width: 571
Flags: W
LayerCount: 2
Fore
SplineSet
276 330 m 0,0,1
 244 345 244 345 220 352.5 c 128,-1,2
 196 360 196 360 168 360 c 0,3,4
 108 360 108 360 53 302 c 1,5,-1
 53 357 l 1,6,7
 76 381 76 381 107 394.5 c 128,-1,8
 138 408 138 408 172 408 c 256,9,10
 206 408 206 408 233.5 400 c 128,-1,11
 261 392 261 392 298 375 c 0,12,13
 330 361 330 361 353.5 353.5 c 128,-1,14
 377 346 377 346 403 346 c 0,15,16
 431 346 431 346 461 360 c 128,-1,17
 491 374 491 374 518 402 c 1,18,-1
 518 350 l 1,19,20
 496 326 496 326 466 312 c 128,-1,21
 436 298 436 298 400 298 c 0,22,23
 368 298 368 298 341 306 c 128,-1,24
 314 314 314 314 276 330 c 0,0,1
EndSplineSet
EndChar

StartChar: exclamdown
Encoding: 161 161 99
Width: 246
Flags: W
LayerCount: 2
Fore
SplineSet
166 492 m 0,0,1
 166 442 166 442 123 442 c 0,2,3
 78 442 78 442 78 492 c 0,4,5
 78 541 78 541 123 541 c 0,6,7
 166 541 166 541 166 492 c 0,0,1
101 342 m 1,8,-1
 142 342 l 1,9,-1
 156 -184 l 1,10,-1
 88 -184 l 1,11,-1
 101 342 l 1,8,-1
EndSplineSet
Substitution2: "'smcp' Lowercase to Small Capitals lookup 34 subtable" exclamdown.sc
Substitution2: "'c2sc' Capitals to Small Capitals lookup 33 subtable" exclamdown.sc
EndChar

StartChar: cent
Encoding: 162 162 100
Width: 571
Flags: W
LayerCount: 2
Fore
SplineSet
346 724 m 1,0,-1
 346 641 l 1,1,2
 384 640 384 640 416.5 633 c 128,-1,3
 449 626 449 626 476 614 c 1,4,-1
 461 566 l 1,5,6
 402 590 402 590 342 590 c 0,7,8
 248 590 248 590 197 529.5 c 128,-1,9
 146 469 146 469 146 362 c 0,10,11
 146 258 146 258 191.5 199 c 128,-1,12
 237 140 237 140 332 140 c 0,13,14
 372 140 372 140 406 147.5 c 128,-1,15
 440 155 440 155 470 168 c 1,16,-1
 470 116 l 1,17,18
 444 105 444 105 413.5 97.5 c 128,-1,19
 383 90 383 90 345 88 c 1,20,-1
 345 -10 l 1,21,-1
 299 -10 l 1,22,-1
 299 90 l 1,23,24
 196 99 196 99 142 168.5 c 128,-1,25
 88 238 88 238 88 362 c 256,26,27
 88 486 88 486 145 556 c 128,-1,28
 202 626 202 626 299 638 c 1,29,-1
 299 724 l 1,30,-1
 346 724 l 1,0,-1
EndSplineSet
EndChar

StartChar: sterling
Encoding: 163 163 101
Width: 571
Flags: W
LayerCount: 2
Fore
SplineSet
339 723 m 0,0,1
 390 723 390 723 429.5 713 c 128,-1,2
 469 703 469 703 501 688 c 1,3,-1
 481 640 l 1,4,5
 450 654 450 654 415.5 664 c 128,-1,6
 381 674 381 674 340 674 c 0,7,8
 272 674 272 674 238.5 636.5 c 128,-1,9
 205 599 205 599 205 518 c 2,10,-1
 205 373 l 1,11,-1
 406 373 l 1,12,-1
 406 328 l 1,13,-1
 205 328 l 1,14,-1
 205 202 l 2,15,16
 205 137 205 137 183.5 102.5 c 128,-1,17
 162 68 162 68 131 52 c 1,18,-1
 526 52 l 1,19,-1
 526 0 l 1,20,-1
 37 0 l 1,21,-1
 37 48 l 1,22,23
 89 58 89 58 118.5 94.5 c 128,-1,24
 148 131 148 131 148 201 c 2,25,-1
 148 328 l 1,26,-1
 47 328 l 1,27,-1
 47 373 l 1,28,-1
 148 373 l 1,29,-1
 148 525 l 2,30,31
 148 622 148 622 199 672.5 c 128,-1,32
 250 723 250 723 339 723 c 0,0,1
EndSplineSet
EndChar

StartChar: currency
Encoding: 164 164 102
Width: 571
Flags: W
LayerCount: 2
Fore
SplineSet
87 354 m 0,0,1
 87 422 87 422 130 476 c 1,2,-1
 58 548 l 1,3,-1
 90 580 l 1,4,-1
 162 509 l 1,5,6
 214 552 214 552 285 552 c 0,7,8
 353 552 353 552 408 509 c 1,9,-1
 480 580 l 1,10,-1
 511 548 l 1,11,-1
 440 476 l 1,12,13
 484 423 484 423 484 354 c 256,14,15
 484 285 484 285 440 230 c 1,16,-1
 511 158 l 1,17,-1
 480 127 l 1,18,-1
 408 198 l 1,19,20
 356 156 356 156 285 156 c 0,21,22
 251 156 251 156 219.5 166.5 c 128,-1,23
 188 177 188 177 162 198 c 1,24,-1
 90 128 l 1,25,-1
 58 159 l 1,26,-1
 130 231 l 1,27,28
 87 285 87 285 87 354 c 0,0,1
132 354 m 0,29,30
 132 310 132 310 152.5 275 c 128,-1,31
 173 240 173 240 207.5 220 c 128,-1,32
 242 200 242 200 284 200 c 0,33,34
 327 200 327 200 362.5 221 c 128,-1,35
 398 242 398 242 419 277 c 128,-1,36
 440 312 440 312 440 354 c 256,37,38
 440 396 440 396 419 431 c 128,-1,39
 398 466 398 466 363 487 c 128,-1,40
 328 508 328 508 286 508 c 0,41,42
 243 508 243 508 208 487.5 c 128,-1,43
 173 467 173 467 152.5 432 c 128,-1,44
 132 397 132 397 132 354 c 0,29,30
EndSplineSet
EndChar

StartChar: yen
Encoding: 165 165 103
Width: 571
Flags: W
LayerCount: 2
Fore
SplineSet
286 350 m 1,0,-1
 489 714 l 1,1,-1
 550 714 l 1,2,-1
 330 331 l 1,3,-1
 476 331 l 1,4,-1
 476 286 l 1,5,-1
 314 286 l 1,6,-1
 314 190 l 1,7,-1
 476 190 l 1,8,-1
 476 146 l 1,9,-1
 314 146 l 1,10,-1
 314 0 l 1,11,-1
 258 0 l 1,12,-1
 258 146 l 1,13,-1
 94 146 l 1,14,-1
 94 190 l 1,15,-1
 258 190 l 1,16,-1
 258 286 l 1,17,-1
 94 286 l 1,18,-1
 94 331 l 1,19,-1
 238 331 l 1,20,-1
 20 714 l 1,21,-1
 81 714 l 1,22,-1
 286 350 l 1,0,-1
EndSplineSet
EndChar

StartChar: brokenbar
Encoding: 166 166 104
Width: 543
Flags: W
LayerCount: 2
Fore
SplineSet
246 762 m 1,0,-1
 295 762 l 1,1,-1
 295 387 l 1,2,-1
 246 387 l 1,3,-1
 246 762 l 1,0,-1
246 129 m 1,4,-1
 295 129 l 1,5,-1
 295 -246 l 1,6,-1
 246 -246 l 1,7,-1
 246 129 l 1,4,-1
EndSplineSet
EndChar

StartChar: section
Encoding: 167 167 105
Width: 516
Flags: W
LayerCount: 2
Fore
SplineSet
74 395 m 0,0,1
 74 444 74 444 101.5 475 c 128,-1,2
 129 506 129 506 168 522 c 1,3,4
 128 539 128 539 103.5 564.5 c 128,-1,5
 79 590 79 590 79 634 c 0,6,7
 79 694 79 694 128 728 c 128,-1,8
 177 762 177 762 265 762 c 0,9,10
 315 762 315 762 354.5 753 c 128,-1,11
 394 744 394 744 428 730 c 1,12,-1
 408 685 l 1,13,14
 378 698 378 698 342 707 c 128,-1,15
 306 716 306 716 262 716 c 0,16,17
 133 716 133 716 133 636 c 0,18,19
 133 596 133 596 168.5 577 c 128,-1,20
 204 558 204 558 271 535 c 0,21,22
 318 518 318 518 356 499.5 c 128,-1,23
 394 481 394 481 416 453.5 c 128,-1,24
 438 426 438 426 438 382 c 0,25,26
 438 332 438 332 413 299 c 128,-1,27
 388 266 388 266 354 247 c 1,28,29
 390 230 390 230 412 204 c 128,-1,30
 434 178 434 178 434 136 c 0,31,32
 434 72 434 72 381.5 34.5 c 128,-1,33
 329 -3 329 -3 230 -3 c 0,34,35
 176 -3 176 -3 134 6.5 c 128,-1,36
 92 16 92 16 62 30 c 1,37,-1
 62 82 l 1,38,39
 97 65 97 65 141.5 53.5 c 128,-1,40
 186 42 186 42 232 42 c 0,41,42
 313 42 313 42 346.5 68 c 128,-1,43
 380 94 380 94 380 133 c 0,44,45
 380 173 380 173 345.5 194.5 c 128,-1,46
 311 216 311 216 238 241 c 0,47,48
 190 258 190 258 153 276 c 128,-1,49
 116 294 116 294 95 322 c 128,-1,50
 74 350 74 350 74 395 c 0,0,1
125 400 m 0,51,52
 125 352 125 352 162 328.5 c 128,-1,53
 199 305 199 305 268 280 c 2,54,-1
 309 267 l 1,55,56
 341 283 341 283 364 310 c 128,-1,57
 387 337 387 337 387 376 c 0,58,59
 387 422 387 422 347.5 449 c 128,-1,60
 308 476 308 476 220 501 c 1,61,62
 181 491 181 491 153 465.5 c 128,-1,63
 125 440 125 440 125 400 c 0,51,52
EndSplineSet
EndChar

StartChar: dieresis
Encoding: 168 168 106
Width: 578
Flags: W
LayerCount: 2
Fore
SplineSet
160 680 m 0,0,1
 160 720 160 720 194 720 c 0,2,3
 230 720 230 720 230 680 c 0,4,5
 230 639 230 639 194 639 c 0,6,7
 160 639 160 639 160 680 c 0,0,1
346 680 m 0,8,9
 346 720 346 720 380 720 c 0,10,11
 416 720 416 720 416 680 c 0,12,13
 416 639 416 639 380 639 c 0,14,15
 346 639 346 639 346 680 c 0,8,9
EndSplineSet
EndChar

StartChar: copyright
Encoding: 169 169 107
Width: 832
Flags: W
LayerCount: 2
Fore
SplineSet
416 -9 m 0,0,1
 336 -9 336 -9 269 19 c 128,-1,2
 202 47 202 47 153 96.5 c 128,-1,3
 104 146 104 146 77 212.5 c 128,-1,4
 50 279 50 279 50 357 c 0,5,6
 50 436 50 436 78 503 c 128,-1,7
 106 570 106 570 156 619 c 128,-1,8
 206 668 206 668 272.5 695.5 c 128,-1,9
 339 723 339 723 416 723 c 0,10,11
 494 723 494 723 560.5 694.5 c 128,-1,12
 627 666 627 666 677 615.5 c 128,-1,13
 727 565 727 565 754.5 498.5 c 128,-1,14
 782 432 782 432 782 357 c 0,15,16
 782 279 782 279 754 212.5 c 128,-1,17
 726 146 726 146 676.5 96.5 c 128,-1,18
 627 47 627 47 560.5 19 c 128,-1,19
 494 -9 494 -9 416 -9 c 0,0,1
416 30 m 0,20,21
 485 30 485 30 544 55 c 128,-1,22
 603 80 603 80 647 125 c 128,-1,23
 691 170 691 170 716 229.5 c 128,-1,24
 741 289 741 289 741 357 c 0,25,26
 741 424 741 424 717 483 c 128,-1,27
 693 542 693 542 649 587 c 128,-1,28
 605 632 605 632 545.5 658 c 128,-1,29
 486 684 486 684 416 684 c 256,30,31
 346 684 346 684 286.5 659.5 c 128,-1,32
 227 635 227 635 183 590.5 c 128,-1,33
 139 546 139 546 114.5 486.5 c 128,-1,34
 90 427 90 427 90 357 c 0,35,36
 90 290 90 290 113.5 231 c 128,-1,37
 137 172 137 172 181 126.5 c 128,-1,38
 225 81 225 81 284.5 55.5 c 128,-1,39
 344 30 344 30 416 30 c 0,20,21
433 138 m 0,40,41
 338 138 338 138 285 195 c 128,-1,42
 232 252 232 252 232 356 c 0,43,44
 232 422 232 422 257 471.5 c 128,-1,45
 282 521 282 521 328 548.5 c 128,-1,46
 374 576 374 576 437 576 c 0,47,48
 474 576 474 576 504.5 569 c 128,-1,49
 535 562 535 562 562 548 c 1,50,-1
 542 506 l 1,51,52
 494 530 494 530 438 530 c 0,53,54
 368 530 368 530 326 483.5 c 128,-1,55
 284 437 284 437 284 356 c 0,56,57
 284 271 284 271 324 227 c 128,-1,58
 364 183 364 183 435 183 c 0,59,60
 464 183 464 183 490.5 188.5 c 128,-1,61
 517 194 517 194 545 204 c 1,62,-1
 545 160 l 1,63,64
 520 150 520 150 494 144 c 128,-1,65
 468 138 468 138 433 138 c 0,40,41
EndSplineSet
EndChar

StartChar: ordfeminine
Encoding: 170 170 108
Width: 340
Flags: W
LayerCount: 2
Fore
SplineSet
173 722 m 0,0,1
 288 722 288 722 288 616 c 2,2,-1
 288 396 l 1,3,-1
 253 396 l 1,4,-1
 245 440 l 1,5,6
 229 419 229 419 202.5 404.5 c 128,-1,7
 176 390 176 390 139 390 c 0,8,9
 92 390 92 390 64 413.5 c 128,-1,10
 36 437 36 437 36 484 c 0,11,12
 36 533 36 533 74.5 558 c 128,-1,13
 113 583 113 583 194 586 c 2,14,-1
 244 588 l 1,15,-1
 244 614 l 2,16,17
 244 652 244 652 224 668 c 128,-1,18
 204 684 204 684 172 684 c 0,19,20
 145 684 145 684 120.5 677 c 128,-1,21
 96 670 96 670 74 658 c 1,22,-1
 58 694 l 1,23,24
 82 706 82 706 112 714 c 128,-1,25
 142 722 142 722 173 722 c 0,0,1
244 553 m 1,26,-1
 197 551 l 2,27,28
 135 549 135 549 108.5 533 c 128,-1,29
 82 517 82 517 82 484 c 0,30,31
 82 456 82 456 99 442 c 128,-1,32
 116 428 116 428 147 428 c 0,33,34
 197 428 197 428 220.5 454 c 128,-1,35
 244 480 244 480 244 524 c 2,36,-1
 244 553 l 1,26,-1
EndSplineSet
EndChar

StartChar: guillemotleft
Encoding: 171 171 109
Width: 449
Flags: W
LayerCount: 2
Fore
SplineSet
33 278 m 1,0,-1
 193 472 l 1,1,-1
 232 448 l 1,2,-1
 94 272 l 1,3,-1
 232 96 l 1,4,-1
 193 72 l 1,5,-1
 33 264 l 1,6,-1
 33 278 l 1,0,-1
216 278 m 1,7,-1
 378 472 l 1,8,-1
 416 448 l 1,9,-1
 278 272 l 1,10,-1
 416 96 l 1,11,-1
 378 72 l 1,12,-1
 216 264 l 1,13,-1
 216 278 l 1,7,-1
EndSplineSet
EndChar

StartChar: logicalnot
Encoding: 172 172 110
Width: 571
Flags: W
LayerCount: 2
Fore
SplineSet
509 376 m 1,0,-1
 509 130 l 1,1,-1
 462 130 l 1,2,-1
 462 329 l 1,3,-1
 52 329 l 1,4,-1
 52 376 l 1,5,-1
 509 376 l 1,0,-1
EndSplineSet
EndChar

StartChar: registered
Encoding: 174 174 112
Width: 832
Flags: W
LayerCount: 2
Fore
SplineSet
416 -9 m 0,0,1
 336 -9 336 -9 269 19 c 128,-1,2
 202 47 202 47 153 96.5 c 128,-1,3
 104 146 104 146 77 212.5 c 128,-1,4
 50 279 50 279 50 357 c 0,5,6
 50 436 50 436 78 503 c 128,-1,7
 106 570 106 570 156 619 c 128,-1,8
 206 668 206 668 272.5 695.5 c 128,-1,9
 339 723 339 723 416 723 c 0,10,11
 494 723 494 723 560.5 694.5 c 128,-1,12
 627 666 627 666 677 615.5 c 128,-1,13
 727 565 727 565 754.5 498.5 c 128,-1,14
 782 432 782 432 782 357 c 0,15,16
 782 279 782 279 754 212.5 c 128,-1,17
 726 146 726 146 676.5 96.5 c 128,-1,18
 627 47 627 47 560.5 19 c 128,-1,19
 494 -9 494 -9 416 -9 c 0,0,1
416 30 m 0,20,21
 485 30 485 30 544 55 c 128,-1,22
 603 80 603 80 647 125 c 128,-1,23
 691 170 691 170 716 229.5 c 128,-1,24
 741 289 741 289 741 357 c 0,25,26
 741 424 741 424 717 483 c 128,-1,27
 693 542 693 542 649 587 c 128,-1,28
 605 632 605 632 545.5 658 c 128,-1,29
 486 684 486 684 416 684 c 256,30,31
 346 684 346 684 286.5 659.5 c 128,-1,32
 227 635 227 635 183 590.5 c 128,-1,33
 139 546 139 546 114.5 486.5 c 128,-1,34
 90 427 90 427 90 357 c 0,35,36
 90 290 90 290 113.5 231 c 128,-1,37
 137 172 137 172 181 126.5 c 128,-1,38
 225 81 225 81 284.5 55.5 c 128,-1,39
 344 30 344 30 416 30 c 0,20,21
288 140 m 1,40,-1
 288 572 l 1,41,-1
 412 572 l 2,42,43
 483 572 483 572 521.5 541.5 c 128,-1,44
 560 511 560 511 560 448 c 0,45,46
 560 400 560 400 535 371 c 128,-1,47
 510 342 510 342 475 330 c 1,48,-1
 590 140 l 1,49,-1
 531 140 l 1,50,-1
 426 318 l 1,51,-1
 339 318 l 1,52,-1
 339 140 l 1,53,-1
 288 140 l 1,40,-1
338 360 m 1,54,-1
 408 360 l 2,55,56
 453 360 453 360 481.5 382 c 128,-1,57
 510 404 510 404 510 446 c 0,58,59
 510 490 510 490 483 509 c 128,-1,60
 456 528 456 528 409 528 c 2,61,-1
 338 528 l 1,62,-1
 338 360 l 1,54,-1
EndSplineSet
EndChar

StartChar: overscore
Encoding: 175 175 113
Width: 500
Flags: W
LayerCount: 2
Fore
SplineSet
503 760 m 1,0,-1
 -3 760 l 1,1,-1
 -3 806 l 1,2,-1
 503 806 l 1,3,-1
 503 760 l 1,0,-1
EndSplineSet
Substitution2: "'smcp' Lowercase to Small Capitals lookup 34 subtable" overscore.sc
Substitution2: "'c2sc' Capitals to Small Capitals lookup 33 subtable" overscore.sc
EndChar

StartChar: degree
Encoding: 176 176 114
Width: 428
Flags: W
LayerCount: 2
Fore
SplineSet
214 429 m 256,0,1
 148 429 148 429 105.5 469.5 c 128,-1,2
 63 510 63 510 63 576 c 256,3,4
 63 642 63 642 104.5 683 c 128,-1,5
 146 724 146 724 214 724 c 0,6,7
 280 724 280 724 322.5 683 c 128,-1,8
 365 642 365 642 365 576 c 256,9,10
 365 510 365 510 322.5 469.5 c 128,-1,11
 280 429 280 429 214 429 c 256,0,1
214 471 m 0,12,13
 264 471 264 471 291.5 500.5 c 128,-1,14
 319 530 319 530 319 576 c 0,15,16
 319 624 319 624 290.5 653 c 128,-1,17
 262 682 262 682 214 682 c 0,18,19
 163 682 163 682 136 653 c 128,-1,20
 109 624 109 624 109 576 c 0,21,22
 109 530 109 530 136 500.5 c 128,-1,23
 163 471 163 471 214 471 c 0,12,13
EndSplineSet
EndChar

StartChar: plusminus
Encoding: 177 177 115
Width: 571
Flags: W
LayerCount: 2
Fore
SplineSet
309 378 m 1,0,-1
 518 378 l 1,1,-1
 518 331 l 1,2,-1
 309 331 l 1,3,-1
 309 119 l 1,4,-1
 261 119 l 1,5,-1
 261 331 l 1,6,-1
 52 331 l 1,7,-1
 52 378 l 1,8,-1
 261 378 l 1,9,-1
 261 591 l 1,10,-1
 309 591 l 1,11,-1
 309 378 l 1,0,-1
52 0 m 1,12,-1
 52 47 l 1,13,-1
 518 47 l 1,14,-1
 518 0 l 1,15,-1
 52 0 l 1,12,-1
EndSplineSet
EndChar

StartChar: uni00B2
Encoding: 178 178 116
Width: 339
Flags: W
LayerCount: 2
Fore
SplineSet
306 416 m 1,0,-1
 26 416 l 1,1,-1
 26 454 l 1,2,-1
 144 572 l 2,3,4
 182 610 182 610 206 637 c 128,-1,5
 230 664 230 664 241 687 c 128,-1,6
 252 710 252 710 252 736 c 0,7,8
 252 771 252 771 230.5 791.5 c 128,-1,9
 209 812 209 812 169 812 c 0,10,11
 138 812 138 812 112.5 801.5 c 128,-1,12
 87 791 87 791 60 770 c 1,13,-1
 36 804 l 1,14,15
 64 827 64 827 97.5 840.5 c 128,-1,16
 131 854 131 854 170 854 c 0,17,18
 232 854 232 854 266.5 822 c 128,-1,19
 301 790 301 790 301 738 c 0,20,21
 301 704 301 704 286.5 675.5 c 128,-1,22
 272 647 272 647 245 617.5 c 128,-1,23
 218 588 218 588 180 550 c 2,24,-1
 87 460 l 1,25,-1
 306 460 l 1,26,-1
 306 416 l 1,0,-1
EndSplineSet
EndChar

StartChar: uni00B3
Encoding: 179 179 117
Width: 339
Flags: W
LayerCount: 2
Fore
SplineSet
168 852 m 0,0,1
 231 852 231 852 266 823 c 128,-1,2
 301 794 301 794 301 745 c 0,3,4
 301 704 301 704 279.5 677.5 c 128,-1,5
 258 651 258 651 226 642 c 1,6,-1
 226 640 l 1,7,8
 266 632 266 632 289 606 c 128,-1,9
 312 580 312 580 312 539 c 0,10,11
 312 480 312 480 271 445 c 128,-1,12
 230 410 230 410 150 410 c 0,13,14
 77 410 77 410 22 436 c 1,15,-1
 22 482 l 1,16,17
 87 451 87 451 150 451 c 0,18,19
 207 451 207 451 235 474.5 c 128,-1,20
 263 498 263 498 263 540 c 0,21,22
 263 581 263 581 233.5 600 c 128,-1,23
 204 619 204 619 148 619 c 2,24,-1
 86 619 l 1,25,-1
 86 659 l 1,26,-1
 148 659 l 2,27,28
 200 659 200 659 226 681 c 128,-1,29
 252 703 252 703 252 741 c 0,30,31
 252 775 252 775 229 793 c 128,-1,32
 206 811 206 811 168 811 c 0,33,34
 134 811 134 811 106 800.5 c 128,-1,35
 78 790 78 790 50 773 c 1,36,-1
 27 807 l 1,37,38
 56 827 56 827 90 839.5 c 128,-1,39
 124 852 124 852 168 852 c 0,0,1
EndSplineSet
EndChar

StartChar: acute
Encoding: 180 180 118
Width: 265
Flags: W
LayerCount: 2
Fore
SplineSet
225 766 m 1,0,-1
 225 758 l 1,1,2
 210 737 210 737 185.5 709 c 128,-1,3
 161 681 161 681 133 653.5 c 128,-1,4
 105 626 105 626 80 606 c 1,5,-1
 40 606 l 1,6,-1
 40 615 l 1,7,8
 58 634 58 634 80.5 661 c 128,-1,9
 103 688 103 688 123.5 716 c 128,-1,10
 144 744 144 744 157 766 c 1,11,-1
 225 766 l 1,0,-1
EndSplineSet
EndChar

StartChar: uni00B5
Encoding: 181 181 119
Width: 602
Flags: W
LayerCount: 2
Fore
SplineSet
514 532 m 1,0,-1
 514 0 l 1,1,-1
 466 0 l 1,2,-1
 458 83 l 1,3,-1
 454 83 l 1,4,5
 432 42 432 42 393 16 c 128,-1,6
 354 -10 354 -10 284 -10 c 0,7,8
 232 -10 232 -10 198 7 c 128,-1,9
 164 24 164 24 144 53 c 1,10,-1
 142 53 l 1,11,12
 143 34 143 34 143.5 7 c 128,-1,13
 144 -20 144 -20 144 -51 c 2,14,-1
 144 -240 l 1,15,-1
 88 -240 l 1,16,-1
 88 532 l 1,17,-1
 144 532 l 1,18,-1
 144 188 l 2,19,20
 144 39 144 39 288 39 c 0,21,22
 382 39 382 39 419.5 91.5 c 128,-1,23
 457 144 457 144 457 242 c 2,24,-1
 457 532 l 1,25,-1
 514 532 l 1,0,-1
EndSplineSet
EndChar

StartChar: paragraph
Encoding: 182 182 120
Width: 655
Flags: W
LayerCount: 2
Fore
SplineSet
533 -127 m 1,0,-1
 491 -127 l 1,1,-1
 491 720 l 1,2,-1
 373 720 l 1,3,-1
 373 -127 l 1,4,-1
 331 -127 l 1,5,-1
 331 314 l 1,6,7
 300 305 300 305 260 305 c 0,8,9
 172 305 172 305 123.5 362.5 c 128,-1,10
 75 420 75 420 75 533 c 0,11,12
 75 652 75 652 127.5 706 c 128,-1,13
 180 760 180 760 275 760 c 2,14,-1
 533 760 l 1,15,-1
 533 -127 l 1,0,-1
EndSplineSet
EndChar

StartChar: cedilla
Encoding: 184 184 122
Width: 209
Flags: W
LayerCount: 2
Fore
SplineSet
196 -142 m 0,0,1
 196 -188 196 -188 161.5 -214 c 128,-1,2
 127 -240 127 -240 66 -240 c 0,3,4
 32 -240 32 -240 12 -234 c 1,5,-1
 12 -195 l 1,6,7
 22 -198 22 -198 36 -199 c 128,-1,8
 50 -200 50 -200 67 -200 c 0,9,10
 104 -200 104 -200 126 -186 c 128,-1,11
 148 -172 148 -172 148 -144 c 0,12,13
 148 -115 148 -115 122.5 -101.5 c 128,-1,14
 97 -88 97 -88 51 -86 c 1,15,-1
 94 0 l 1,16,-1
 136 0 l 1,17,-1
 106 -59 l 1,18,19
 146 -64 146 -64 171 -84 c 128,-1,20
 196 -104 196 -104 196 -142 c 0,0,1
EndSplineSet
EndChar

StartChar: uni00B9
Encoding: 185 185 123
Width: 339
Flags: W
LayerCount: 2
Fore
SplineSet
216 844 m 1,0,-1
 216 416 l 1,1,-1
 168 416 l 1,2,-1
 168 694 l 2,3,4
 168 721 168 721 168.5 747.5 c 128,-1,5
 169 774 169 774 170 798 c 1,6,7
 156 788 156 788 142.5 778 c 128,-1,8
 129 768 129 768 110 758 c 2,9,-1
 60 726 l 1,10,-1
 37 762 l 1,11,-1
 170 844 l 1,12,-1
 216 844 l 1,0,-1
EndSplineSet
EndChar

StartChar: ordmasculine
Encoding: 186 186 124
Width: 364
Flags: W
LayerCount: 2
Fore
SplineSet
332 556 m 0,0,1
 332 481 332 481 292.5 435 c 128,-1,2
 253 389 253 389 182 389 c 0,3,4
 114 389 114 389 74 434.5 c 128,-1,5
 34 480 34 480 34 556 c 0,6,7
 34 636 34 636 74.5 680 c 128,-1,8
 115 724 115 724 184 724 c 0,9,10
 256 724 256 724 294 678 c 128,-1,11
 332 632 332 632 332 556 c 0,0,1
80 556 m 0,12,13
 80 497 80 497 105 462.5 c 128,-1,14
 130 428 130 428 182 428 c 0,15,16
 236 428 236 428 261 463 c 128,-1,17
 286 498 286 498 286 556 c 256,18,19
 286 614 286 614 262 649 c 128,-1,20
 238 684 238 684 184 684 c 0,21,22
 80 684 80 684 80 556 c 0,12,13
EndSplineSet
EndChar

StartChar: guillemotright
Encoding: 187 187 125
Width: 449
Flags: W
LayerCount: 2
Fore
SplineSet
416 266 m 1,0,-1
 255 72 l 1,1,-1
 216 96 l 1,2,-1
 354 272 l 1,3,-1
 216 448 l 1,4,-1
 255 472 l 1,5,-1
 416 278 l 1,6,-1
 416 266 l 1,0,-1
232 266 m 1,7,-1
 71 72 l 1,8,-1
 32 96 l 1,9,-1
 171 272 l 1,10,-1
 32 448 l 1,11,-1
 71 472 l 1,12,-1
 232 278 l 1,13,-1
 232 266 l 1,7,-1
EndSplineSet
EndChar

StartChar: onequarter
Encoding: 188 188 126
Width: 722
Flags: W
LayerCount: 2
Fore
SplineSet
136 0 m 1,0,-1
 540 714 l 1,1,-1
 592 714 l 1,2,-1
 188 0 l 1,3,-1
 136 0 l 1,0,-1
156 286 m 1,4,-1
 156 564 l 2,5,6
 156 591 156 591 156.5 617.5 c 128,-1,7
 157 644 157 644 158 668 c 1,8,9
 144 658 144 658 130.5 648 c 128,-1,10
 117 638 117 638 98 628 c 2,11,-1
 48 596 l 1,12,-1
 25 632 l 1,13,-1
 158 714 l 1,14,-1
 204 714 l 1,15,-1
 204 286 l 1,16,-1
 156 286 l 1,4,-1
595 0 m 1,17,-1
 595 114 l 1,18,-1
 396 114 l 1,19,-1
 396 148 l 1,20,-1
 594 431 l 1,21,-1
 645 431 l 1,22,-1
 645 156 l 1,23,-1
 712 156 l 1,24,-1
 712 114 l 1,25,-1
 645 114 l 1,26,-1
 645 0 l 1,27,-1
 595 0 l 1,17,-1
446 156 m 1,28,-1
 595 156 l 1,29,-1
 595 284 l 2,30,31
 595 306 595 306 595.5 330 c 128,-1,32
 596 354 596 354 597 376 c 1,33,34
 590 362 590 362 578 344.5 c 128,-1,35
 566 327 566 327 556 312 c 2,36,-1
 446 156 l 1,28,-1
EndSplineSet
EndChar

StartChar: onehalf
Encoding: 189 189 127
Width: 758
Flags: W
LayerCount: 2
Fore
SplineSet
122 0 m 1,0,-1
 526 714 l 1,1,-1
 577 714 l 1,2,-1
 173 0 l 1,3,-1
 122 0 l 1,0,-1
150 286 m 1,4,-1
 150 564 l 2,5,6
 150 591 150 591 150.5 617.5 c 128,-1,7
 151 644 151 644 152 668 c 1,8,9
 138 658 138 658 124.5 648 c 128,-1,10
 111 638 111 638 92 628 c 2,11,-1
 42 596 l 1,12,-1
 19 632 l 1,13,-1
 152 714 l 1,14,-1
 198 714 l 1,15,-1
 198 286 l 1,16,-1
 150 286 l 1,4,-1
444 0 m 1,17,-1
 444 37 l 1,18,-1
 563 156 l 2,19,20
 602 194 602 194 625.5 221 c 128,-1,21
 649 248 649 248 659.5 271 c 128,-1,22
 670 294 670 294 670 320 c 0,23,24
 670 355 670 355 648.5 375.5 c 128,-1,25
 627 396 627 396 588 396 c 0,26,27
 556 396 556 396 530.5 385.5 c 128,-1,28
 505 375 505 375 478 354 c 1,29,-1
 454 388 l 1,30,31
 482 411 482 411 515.5 424.5 c 128,-1,32
 549 438 549 438 588 438 c 0,33,34
 650 438 650 438 685 406 c 128,-1,35
 720 374 720 374 720 322 c 0,36,37
 720 288 720 288 705.5 259.5 c 128,-1,38
 691 231 691 231 663.5 201.5 c 128,-1,39
 636 172 636 172 598 134 c 2,40,-1
 506 43 l 1,41,-1
 725 43 l 1,42,-1
 725 0 l 1,43,-1
 444 0 l 1,17,-1
EndSplineSet
EndChar

StartChar: threequarters
Encoding: 190 190 128
Width: 770
Flags: W
LayerCount: 2
Fore
SplineSet
148 280 m 0,0,1
 78 280 78 280 21 306 c 1,2,-1
 21 352 l 1,3,4
 86 321 86 321 149 321 c 0,5,6
 205 321 205 321 233.5 344.5 c 128,-1,7
 262 368 262 368 262 410 c 0,8,9
 262 489 262 489 146 489 c 2,10,-1
 84 489 l 1,11,-1
 84 529 l 1,12,-1
 146 529 l 2,13,14
 198 529 198 529 224 551 c 128,-1,15
 250 573 250 573 250 611 c 0,16,17
 250 645 250 645 227.5 663 c 128,-1,18
 205 681 205 681 167 681 c 0,19,20
 133 681 133 681 105 670.5 c 128,-1,21
 77 660 77 660 49 643 c 1,22,-1
 26 677 l 1,23,24
 55 697 55 697 88.5 709.5 c 128,-1,25
 122 722 122 722 166 722 c 0,26,27
 230 722 230 722 265 693 c 128,-1,28
 300 664 300 664 300 615 c 0,29,30
 300 574 300 574 279 547.5 c 128,-1,31
 258 521 258 521 226 512 c 1,32,-1
 226 510 l 1,33,34
 266 502 266 502 289 476 c 128,-1,35
 312 450 312 450 312 409 c 0,36,37
 312 350 312 350 270.5 315 c 128,-1,38
 229 280 229 280 148 280 c 0,0,1
188 0 m 1,39,-1
 592 714 l 1,40,-1
 644 714 l 1,41,-1
 240 0 l 1,42,-1
 188 0 l 1,39,-1
643 0 m 1,43,-1
 643 114 l 1,44,-1
 444 114 l 1,45,-1
 444 148 l 1,46,-1
 642 431 l 1,47,-1
 693 431 l 1,48,-1
 693 156 l 1,49,-1
 760 156 l 1,50,-1
 760 114 l 1,51,-1
 693 114 l 1,52,-1
 693 0 l 1,53,-1
 643 0 l 1,43,-1
494 156 m 1,54,-1
 643 156 l 1,55,-1
 643 284 l 2,56,57
 643 306 643 306 643.5 330 c 128,-1,58
 644 354 644 354 645 376 c 1,59,60
 638 362 638 362 626 344.5 c 128,-1,61
 614 327 614 327 604 312 c 2,62,-1
 494 156 l 1,54,-1
EndSplineSet
EndChar

StartChar: AE
Encoding: 198 198 136
Width: 822
GlyphClass: 2
Flags: W
AnchorPoint: "Anchor-2" 438 714 basechar 0
AnchorPoint: "Anchor-0" 412 0 basechar 0
LayerCount: 2
Fore
SplineSet
786 0 m 1,0,-1
 407 0 l 1,1,-1
 407 246 l 1,2,-1
 172 246 l 1,3,-1
 61 0 l 1,4,-1
 -1 0 l 1,5,-1
 322 714 l 1,6,-1
 786 714 l 1,7,-1
 786 662 l 1,8,-1
 465 662 l 1,9,-1
 465 400 l 1,10,-1
 766 400 l 1,11,-1
 766 349 l 1,12,-1
 465 349 l 1,13,-1
 465 52 l 1,14,-1
 786 52 l 1,15,-1
 786 0 l 1,0,-1
195 298 m 1,16,-1
 407 298 l 1,17,-1
 407 662 l 1,18,-1
 357 662 l 1,19,-1
 195 298 l 1,16,-1
EndSplineSet
Substitution2: "'c2sc' Capitals to Small Capitals lookup 33 subtable" ae.sc
EndChar

StartChar: Eth
Encoding: 208 208 146
Width: 711
GlyphClass: 2
Flags: W
AnchorPoint: "Anchor-2" 356 714 basechar 0
AnchorPoint: "Anchor-0" 356 0 basechar 0
LayerCount: 2
Fore
SplineSet
298 714 m 2,0,1
 468 714 468 714 558 624.5 c 128,-1,2
 648 535 648 535 648 364 c 0,3,4
 648 184 648 184 553 92 c 128,-1,5
 458 0 458 0 276 0 c 2,6,-1
 104 0 l 1,7,-1
 104 328 l 1,8,-1
 23 328 l 1,9,-1
 23 380 l 1,10,-1
 104 380 l 1,11,-1
 104 714 l 1,12,-1
 298 714 l 2,0,1
287 663 m 2,13,-1
 162 663 l 1,14,-1
 162 380 l 1,15,-1
 354 380 l 1,16,-1
 354 328 l 1,17,-1
 162 328 l 1,18,-1
 162 51 l 1,19,-1
 272 51 l 2,20,21
 588 51 588 51 588 362 c 0,22,23
 588 663 588 663 287 663 c 2,13,-1
EndSplineSet
Substitution2: "'c2sc' Capitals to Small Capitals lookup 33 subtable" eth.sc
EndChar

StartChar: multiply
Encoding: 215 215 153
Width: 571
Flags: W
LayerCount: 2
Fore
SplineSet
469 570 m 1,0,-1
 502 536 l 1,1,-1
 319 353 l 1,2,-1
 502 170 l 1,3,-1
 468 136 l 1,4,-1
 284 318 l 1,5,-1
 102 136 l 1,6,-1
 68 170 l 1,7,-1
 251 353 l 1,8,-1
 68 536 l 1,9,-1
 102 570 l 1,10,-1
 285 386 l 1,11,-1
 469 570 l 1,0,-1
EndSplineSet
EndChar

StartChar: Oslash
Encoding: 216 216 154
Width: 768
GlyphClass: 2
Flags: W
AnchorPoint: "Anchor-2" 384 714 basechar 0
AnchorPoint: "Anchor-0" 384 0 basechar 0
LayerCount: 2
Fore
SplineSet
705 358 m 0,0,1
 705 249 705 249 669 166 c 128,-1,2
 633 83 633 83 561.5 36.5 c 128,-1,3
 490 -10 490 -10 384 -10 c 0,4,5
 323 -10 323 -10 274.5 5.5 c 128,-1,6
 226 21 226 21 188 50 c 1,7,-1
 132 -28 l 1,8,-1
 91 -1 l 1,9,-1
 151 82 l 1,10,11
 107 132 107 132 84.5 202.5 c 128,-1,12
 62 273 62 273 62 359 c 0,13,14
 62 468 62 468 98.5 550 c 128,-1,15
 135 632 135 632 207.5 678.5 c 128,-1,16
 280 725 280 725 387 725 c 0,17,18
 443 725 443 725 490 710.5 c 128,-1,19
 537 696 537 696 574 670 c 1,20,-1
 628 743 l 1,21,-1
 668 715 l 1,22,-1
 612 638 l 1,23,24
 657 590 657 590 681 519 c 128,-1,25
 705 448 705 448 705 358 c 0,0,1
123 358 m 0,26,27
 123 288 123 288 138.5 230 c 128,-1,28
 154 172 154 172 186 131 c 1,29,-1
 543 624 l 1,30,31
 482 673 482 673 387 673 c 0,32,33
 298 673 298 673 239 633.5 c 128,-1,34
 180 594 180 594 151.5 523 c 128,-1,35
 123 452 123 452 123 358 c 0,26,27
644 358 m 0,36,37
 644 509 644 509 578 590 c 1,38,-1
 220 95 l 1,39,40
 250 70 250 70 291.5 55.5 c 128,-1,41
 333 41 333 41 384 41 c 0,42,43
 474 41 474 41 531.5 80.5 c 128,-1,44
 589 120 589 120 616.5 191 c 128,-1,45
 644 262 644 262 644 358 c 0,36,37
EndSplineSet
Substitution2: "'c2sc' Capitals to Small Capitals lookup 33 subtable" oslash.sc
EndChar

StartChar: Thorn
Encoding: 222 222 160
Width: 589
GlyphClass: 2
Flags: W
AnchorPoint: "Anchor-2" 295 714 basechar 0
AnchorPoint: "Anchor-0" 295 0 basechar 0
LayerCount: 2
Fore
SplineSet
536 382 m 0,0,1
 536 282 536 282 470 223 c 128,-1,2
 404 164 404 164 262 164 c 2,3,-1
 158 164 l 1,4,-1
 158 0 l 1,5,-1
 100 0 l 1,6,-1
 100 714 l 1,7,-1
 158 714 l 1,8,-1
 158 586 l 1,9,-1
 282 586 l 2,10,11
 413 586 413 586 474.5 535 c 128,-1,12
 536 484 536 484 536 382 c 0,0,1
158 214 m 1,13,-1
 256 214 l 2,14,15
 362 214 362 214 419 251 c 128,-1,16
 476 288 476 288 476 380 c 0,17,18
 476 461 476 461 428 498 c 128,-1,19
 380 535 380 535 275 535 c 2,20,-1
 158 535 l 1,21,-1
 158 214 l 1,13,-1
EndSplineSet
Substitution2: "'c2sc' Capitals to Small Capitals lookup 33 subtable" thorn.sc
EndChar

StartChar: germandbls
Encoding: 223 223 161
Width: 592
GlyphClass: 2
Flags: W
AnchorPoint: "Anchor-2" 296 765 basechar 0
AnchorPoint: "Anchor-0" 296 0 basechar 0
LayerCount: 2
Fore
SplineSet
480 626 m 0,0,1
 480 590 480 590 466 566 c 128,-1,2
 452 542 452 542 431.5 524.5 c 128,-1,3
 411 507 411 507 390.5 491.5 c 128,-1,4
 370 476 370 476 356 458.5 c 128,-1,5
 342 441 342 441 342 416 c 0,6,7
 342 386 342 386 363 365.5 c 128,-1,8
 384 345 384 345 433 312 c 0,9,10
 466 290 466 290 491 268 c 128,-1,11
 516 246 516 246 530 216.5 c 128,-1,12
 544 187 544 187 544 144 c 0,13,14
 544 72 544 72 498 31 c 128,-1,15
 452 -10 452 -10 368 -10 c 0,16,17
 322 -10 322 -10 288.5 -2 c 128,-1,18
 255 6 255 6 229 20 c 1,19,-1
 229 74 l 1,20,21
 258 58 258 58 293.5 48 c 128,-1,22
 329 38 329 38 367 38 c 0,23,24
 428 38 428 38 458 66 c 128,-1,25
 488 94 488 94 488 140 c 0,26,27
 488 187 488 187 464 215 c 128,-1,28
 440 243 440 243 394 274 c 0,29,30
 341 310 341 310 313.5 339 c 128,-1,31
 286 368 286 368 286 414 c 0,32,33
 286 448 286 448 299.5 469.5 c 128,-1,34
 313 491 313 491 333.5 507 c 128,-1,35
 354 523 354 523 374.5 538.5 c 128,-1,36
 395 554 395 554 408.5 574 c 128,-1,37
 422 594 422 594 422 624 c 0,38,39
 422 669 422 669 388 692.5 c 128,-1,40
 354 716 354 716 294 716 c 0,41,42
 225 716 225 716 184.5 682 c 128,-1,43
 144 648 144 648 144 574 c 2,44,-1
 144 0 l 1,45,-1
 87 0 l 1,46,-1
 87 574 l 2,47,48
 87 672 87 672 143.5 718.5 c 128,-1,49
 200 765 200 765 294 765 c 0,50,51
 381 765 381 765 430.5 728.5 c 128,-1,52
 480 692 480 692 480 626 c 0,0,1
EndSplineSet
Substitution2: "'smcp' Lowercase to Small Capitals lookup 34 subtable" germandbls.sc
EndChar

StartChar: ae
Encoding: 230 230 168
Width: 857
GlyphClass: 2
Flags: W
AnchorPoint: "Anchor-2" 432 532 basechar 0
AnchorPoint: "Anchor-0" 428 0 basechar 0
LayerCount: 2
Fore
SplineSet
604 542 m 256,0,1
 668 542 668 542 712.5 510.5 c 128,-1,2
 757 479 757 479 779.5 424 c 128,-1,3
 802 369 802 369 801 298 c 2,4,-1
 801 259 l 1,5,-1
 444 259 l 1,6,7
 444 150 444 150 490 95 c 128,-1,8
 536 40 536 40 619 40 c 0,9,10
 665 40 665 40 700.5 48 c 128,-1,11
 736 56 736 56 779 76 c 1,12,-1
 779 24 l 1,13,14
 740 6 740 6 702 -2 c 128,-1,15
 664 -10 664 -10 618 -10 c 0,16,17
 542 -10 542 -10 490 26 c 128,-1,18
 438 62 438 62 414 124 c 1,19,20
 387 63 387 63 340 26.5 c 128,-1,21
 293 -10 293 -10 213 -10 c 0,22,23
 136 -10 136 -10 91.5 28 c 128,-1,24
 47 66 47 66 47 139 c 0,25,26
 47 218 47 218 110.5 260 c 128,-1,27
 174 302 174 302 293 307 c 2,28,-1
 386 312 l 1,29,-1
 386 350 l 2,30,31
 386 428 386 428 354 460.5 c 128,-1,32
 322 493 322 493 264 493 c 0,33,34
 226 493 226 493 188 482.5 c 128,-1,35
 150 472 150 472 112 452 c 1,36,-1
 94 498 l 1,37,38
 132 518 132 518 177 529.5 c 128,-1,39
 222 541 222 541 268 541 c 0,40,41
 334 541 334 541 373 512.5 c 128,-1,42
 412 484 412 484 426 422 c 1,43,44
 450 476 450 476 495 509 c 128,-1,45
 540 542 540 542 604 542 c 256,0,1
603 494 m 0,46,47
 538 494 538 494 495.5 446 c 128,-1,48
 453 398 453 398 446 306 c 1,49,-1
 741 306 l 1,50,51
 742 390 742 390 707.5 442 c 128,-1,52
 673 494 673 494 603 494 c 0,46,47
385 268 m 1,53,-1
 300 264 l 2,54,55
 204 260 204 260 155 229.5 c 128,-1,56
 106 199 106 199 106 138 c 0,57,58
 106 89 106 89 136 63.5 c 128,-1,59
 166 38 166 38 220 38 c 0,60,61
 298 38 298 38 341 85 c 128,-1,62
 384 132 384 132 385 217 c 2,63,-1
 385 268 l 1,53,-1
EndSplineSet
Substitution2: "'smcp' Lowercase to Small Capitals lookup 34 subtable" ae.sc
EndChar

StartChar: eth
Encoding: 240 240 178
Width: 580
GlyphClass: 2
Flags: W
AnchorPoint: "Anchor-2" 290 761 basechar 0
AnchorPoint: "Anchor-0" 290 0 basechar 0
LayerCount: 2
Fore
SplineSet
210 761 m 1,0,1
 280 729 280 729 332 689 c 1,2,-1
 444 756 l 1,3,-1
 469 718 l 1,4,-1
 368 659 l 1,5,6
 442 588 442 588 482 490 c 128,-1,7
 522 392 522 392 522 274 c 0,8,9
 522 144 522 144 462 67 c 128,-1,10
 402 -10 402 -10 288 -10 c 0,11,12
 217 -10 217 -10 165 19.5 c 128,-1,13
 113 49 113 49 84.5 102.5 c 128,-1,14
 56 156 56 156 56 228 c 0,15,16
 56 302 56 302 85 356.5 c 128,-1,17
 114 411 114 411 165 440 c 128,-1,18
 216 469 216 469 284 469 c 0,19,20
 346 469 346 469 386 451.5 c 128,-1,21
 426 434 426 434 450 403 c 1,22,-1
 454 404 l 1,23,24
 439 468 439 468 404.5 527.5 c 128,-1,25
 370 587 370 587 322 632 c 1,26,-1
 192 556 l 1,27,-1
 166 593 l 1,28,-1
 284 662 l 1,29,30
 263 678 263 678 237.5 693 c 128,-1,31
 212 708 212 708 186 720 c 1,32,-1
 210 761 l 1,0,1
291 421 m 0,33,34
 208 421 208 421 161 370 c 128,-1,35
 114 319 114 319 114 226 c 0,36,37
 114 139 114 139 159 88.5 c 128,-1,38
 204 38 204 38 288 38 c 0,39,40
 375 38 375 38 419.5 97 c 128,-1,41
 464 156 464 156 464 268 c 0,42,43
 464 303 464 303 448 338.5 c 128,-1,44
 432 374 432 374 394 397.5 c 128,-1,45
 356 421 356 421 291 421 c 0,33,34
EndSplineSet
Substitution2: "'smcp' Lowercase to Small Capitals lookup 34 subtable" eth.sc
EndChar

StartChar: divide
Encoding: 247 247 185
Width: 571
Flags: W
LayerCount: 2
Fore
SplineSet
284 481 m 0,0,1
 244 481 244 481 244 527 c 0,2,3
 244 572 244 572 284 572 c 0,4,5
 326 572 326 572 326 527 c 0,6,7
 326 481 326 481 284 481 c 0,0,1
52 329 m 1,8,-1
 52 376 l 1,9,-1
 518 376 l 1,10,-1
 518 329 l 1,11,-1
 52 329 l 1,8,-1
284 132 m 0,12,13
 244 132 244 132 244 178 c 256,14,15
 244 224 244 224 284 224 c 0,16,17
 326 224 326 224 326 178 c 256,18,19
 326 132 326 132 284 132 c 0,12,13
EndSplineSet
EndChar

StartChar: oslash
Encoding: 248 248 186
Width: 590
GlyphClass: 2
Flags: W
AnchorPoint: "Anchor-2" 296 532 basechar 0
AnchorPoint: "Anchor-0" 296 0 basechar 0
LayerCount: 2
Fore
SplineSet
533 266 m 0,0,1
 533 183 533 183 505.5 121 c 128,-1,2
 478 59 478 59 424.5 24.5 c 128,-1,3
 371 -10 371 -10 294 -10 c 0,4,5
 249 -10 249 -10 213.5 3 c 128,-1,6
 178 16 178 16 150 39 c 1,7,-1
 97 -30 l 1,8,-1
 58 -2 l 1,9,-1
 116 71 l 1,10,11
 88 108 88 108 72.5 157 c 128,-1,12
 57 206 57 206 57 266 c 0,13,14
 57 396 57 396 121.5 469 c 128,-1,15
 186 542 186 542 298 542 c 0,16,17
 383 542 383 542 438 496 c 1,18,-1
 486 560 l 1,19,-1
 526 534 l 1,20,-1
 473 465 l 1,21,22
 533 390 533 390 533 266 c 0,0,1
116 266 m 0,23,24
 116 222 116 222 124 184 c 128,-1,25
 132 146 132 146 149 118 c 1,26,-1
 407 455 l 1,27,28
 387 472 387 472 359.5 482 c 128,-1,29
 332 492 332 492 297 492 c 0,30,31
 206 492 206 492 161 432 c 128,-1,32
 116 372 116 372 116 266 c 0,23,24
474 266 m 0,33,34
 474 311 474 311 465.5 350 c 128,-1,35
 457 389 457 389 439 418 c 1,36,-1
 180 80 l 1,37,38
 201 60 201 60 229.5 49.5 c 128,-1,39
 258 39 258 39 294 39 c 0,40,41
 387 39 387 39 430.5 101.5 c 128,-1,42
 474 164 474 164 474 266 c 0,33,34
EndSplineSet
Substitution2: "'smcp' Lowercase to Small Capitals lookup 34 subtable" oslash.sc
EndChar

StartChar: thorn
Encoding: 254 254 192
Width: 599
GlyphClass: 2
Flags: W
AnchorPoint: "Anchor-2" 300 760 basechar 0
AnchorPoint: "Anchor-0" 300 -236 basechar 0
LayerCount: 2
Fore
SplineSet
543 269 m 0,0,1
 543 133 543 133 483.5 61.5 c 128,-1,2
 424 -10 424 -10 322 -10 c 0,3,4
 251 -10 251 -10 208 20 c 128,-1,5
 165 50 165 50 145 92 c 1,6,-1
 141 92 l 1,7,8
 142 70 142 70 143.5 39 c 128,-1,9
 145 8 145 8 145 -16 c 2,10,-1
 145 -236 l 1,11,-1
 88 -236 l 1,12,-1
 88 760 l 1,13,-1
 145 760 l 1,14,-1
 145 530 l 2,15,16
 145 511 145 511 144.5 482.5 c 128,-1,17
 144 454 144 454 142 435 c 1,18,-1
 146 435 l 1,19,20
 166 478 166 478 209 510 c 128,-1,21
 252 542 252 542 326 542 c 0,22,23
 428 542 428 542 485.5 472.5 c 128,-1,24
 543 403 543 403 543 269 c 0,0,1
484 270 m 0,25,26
 484 492 484 492 319 492 c 0,27,28
 230 492 230 492 188 436.5 c 128,-1,29
 146 381 146 381 146 276 c 2,30,-1
 146 266 l 2,31,32
 146 152 146 152 187 95.5 c 128,-1,33
 228 39 228 39 314 39 c 0,34,35
 397 39 397 39 440.5 98 c 128,-1,36
 484 157 484 157 484 270 c 0,25,26
EndSplineSet
Substitution2: "'smcp' Lowercase to Small Capitals lookup 34 subtable" thorn.sc
EndChar

StartChar: dcroat
Encoding: 273 273 211
Width: 600
GlyphClass: 2
Flags: W
AnchorPoint: "Anchor-2" 300 760 basechar 0
AnchorPoint: "Anchor-0" 300 0 basechar 0
LayerCount: 2
Fore
SplineSet
279 -10 m 0,0,1
 172 -10 172 -10 114.5 58.5 c 128,-1,2
 57 127 57 127 57 260 c 0,3,4
 57 398 57 398 117 469 c 128,-1,5
 177 540 177 540 283 540 c 0,6,7
 350 540 350 540 392.5 511 c 128,-1,8
 435 482 435 482 455 439 c 1,9,-1
 459 439 l 1,10,11
 457 462 457 462 456 491 c 128,-1,12
 455 520 455 520 455 544 c 2,13,-1
 455 618 l 1,14,-1
 228 618 l 1,15,-1
 228 663 l 1,16,-1
 455 663 l 1,17,-1
 455 760 l 1,18,-1
 512 760 l 1,19,-1
 512 663 l 1,20,-1
 587 663 l 1,21,-1
 587 618 l 1,22,-1
 512 618 l 1,23,-1
 512 0 l 1,24,-1
 465 0 l 1,25,-1
 458 92 l 1,26,-1
 454 92 l 1,27,28
 433 50 433 50 391.5 20 c 128,-1,29
 350 -10 350 -10 279 -10 c 0,0,1
286 39 m 0,30,31
 378 39 378 39 416.5 95 c 128,-1,32
 455 151 455 151 455 256 c 2,33,-1
 455 266 l 2,34,35
 455 376 455 376 416.5 434 c 128,-1,36
 378 492 378 492 290 492 c 0,37,38
 204 492 204 492 160 432 c 128,-1,39
 116 372 116 372 116 259 c 0,40,41
 116 151 116 151 158 95 c 128,-1,42
 200 39 200 39 286 39 c 0,30,31
EndSplineSet
Substitution2: "'smcp' Lowercase to Small Capitals lookup 34 subtable" dcroat.sc
EndChar

StartChar: eogonek
Encoding: 281 281 219
Width: 552
GlyphClass: 2
Flags: W
AnchorPoint: "Anchor-3" 532 532 basechar 0
AnchorPoint: "Anchor-2" 278 532 basechar 0
AnchorPoint: "Anchor-0" 286 -218 basechar 0
LayerCount: 2
Fore
SplineSet
370 -124 m 0,0,1
 370 -176 370 -176 421 -176 c 0,2,3
 437 -176 437 -176 449 -174 c 128,-1,4
 461 -172 461 -172 469 -170 c 1,5,-1
 469 -210 l 1,6,7
 458 -213 458 -213 444 -215.5 c 128,-1,8
 430 -218 430 -218 413 -218 c 0,9,10
 369 -218 369 -218 344.5 -196 c 128,-1,11
 320 -174 320 -174 320 -130 c 0,12,13
 320 -97 320 -97 339.5 -64.5 c 128,-1,14
 359 -32 359 -32 392 -3 c 1,15,16
 353 -10 353 -10 304 -10 c 0,17,18
 185 -10 185 -10 121 63 c 128,-1,19
 57 136 57 136 57 262 c 0,20,21
 57 343 57 343 84.5 406.5 c 128,-1,22
 112 470 112 470 164 506 c 128,-1,23
 216 542 216 542 290 542 c 0,24,25
 358 542 358 542 404 510.5 c 128,-1,26
 450 479 450 479 473 424 c 128,-1,27
 496 369 496 369 496 298 c 2,28,-1
 496 258 l 1,29,-1
 116 258 l 1,30,31
 116 153 116 153 165 96.5 c 128,-1,32
 214 40 214 40 306 40 c 0,33,34
 356 40 356 40 393 48 c 128,-1,35
 430 56 430 56 474 76 c 1,36,-1
 474 24 l 2,37,38
 471 23 471 23 468 22 c 0,39,40
 417 -22 417 -22 393.5 -56 c 128,-1,41
 370 -90 370 -90 370 -124 c 0,0,1
289 494 m 0,42,43
 216 494 216 494 170.5 445 c 128,-1,44
 125 396 125 396 117 306 c 1,45,-1
 436 306 l 1,46,47
 436 390 436 390 400.5 442 c 128,-1,48
 365 494 365 494 289 494 c 0,42,43
EndSplineSet
Substitution2: "'smcp' Lowercase to Small Capitals lookup 34 subtable" eogonek.sc
Substitution2: "'locl' Localized Forms in Latin lookup 9 subtable" eogonek.loclNAV
Ligature2: "'ccmp' Glyph Composition/Decomposition lookup 6 subtable" e uni0328
EndChar

StartChar: Hbar
Encoding: 294 294 232
Width: 724
GlyphClass: 2
Flags: W
AnchorPoint: "Anchor-2" 362 714 basechar 0
AnchorPoint: "Anchor-0" 362 0 basechar 0
LayerCount: 2
Fore
SplineSet
100 0 m 1,0,-1
 100 536 l 1,1,-1
 0 536 l 1,2,-1
 0 584 l 1,3,-1
 100 584 l 1,4,-1
 100 714 l 1,5,-1
 158 714 l 1,6,-1
 158 584 l 1,7,-1
 565 584 l 1,8,-1
 565 714 l 1,9,-1
 623 714 l 1,10,-1
 623 584 l 1,11,-1
 723 584 l 1,12,-1
 723 536 l 1,13,-1
 623 536 l 1,14,-1
 623 0 l 1,15,-1
 565 0 l 1,16,-1
 565 348 l 1,17,-1
 158 348 l 1,18,-1
 158 0 l 1,19,-1
 100 0 l 1,0,-1
158 400 m 1,20,-1
 565 400 l 1,21,-1
 565 536 l 1,22,-1
 158 536 l 1,23,-1
 158 400 l 1,20,-1
EndSplineSet
Substitution2: "'c2sc' Capitals to Small Capitals lookup 33 subtable" hbar.sc
EndChar

StartChar: hbar
Encoding: 295 295 233
Width: 596
GlyphClass: 2
Flags: W
AnchorPoint: "Anchor-2" 209 760 basechar 0
AnchorPoint: "Anchor-0" 298 0 basechar 0
LayerCount: 2
Fore
SplineSet
144 760 m 1,0,-1
 144 662 l 1,1,-1
 372 662 l 1,2,-1
 372 617 l 1,3,-1
 144 617 l 1,4,-1
 144 506 l 2,5,6
 144 485 144 485 143 467 c 128,-1,7
 142 449 142 449 141 430 c 1,8,-1
 145 430 l 1,9,10
 165 474 165 474 211 503 c 128,-1,11
 257 532 257 532 326 532 c 0,12,13
 417 532 417 532 465 485 c 128,-1,14
 513 438 513 438 513 338 c 2,15,-1
 513 0 l 1,16,-1
 456 0 l 1,17,-1
 456 334 l 2,18,19
 456 410 456 410 421.5 446 c 128,-1,20
 387 482 387 482 320 482 c 0,21,22
 144 482 144 482 144 280 c 2,23,-1
 144 0 l 1,24,-1
 88 0 l 1,25,-1
 88 617 l 1,26,-1
 13 617 l 1,27,-1
 13 662 l 1,28,-1
 88 662 l 1,29,-1
 88 760 l 1,30,-1
 144 760 l 1,0,-1
EndSplineSet
Substitution2: "'smcp' Lowercase to Small Capitals lookup 34 subtable" hbar.sc
EndChar

StartChar: kgreenlandic
Encoding: 312 312 249
Width: 494
GlyphClass: 2
Flags: W
AnchorPoint: "Anchor-2" 247 532 basechar 0
AnchorPoint: "Anchor-0" 247 0 basechar 0
LayerCount: 2
Fore
SplineSet
474 532 m 1,0,-1
 270 300 l 1,1,-1
 492 0 l 1,2,-1
 424 0 l 1,3,-1
 230 262 l 1,4,-1
 147 180 l 1,5,-1
 147 0 l 1,6,-1
 88 0 l 1,7,-1
 88 532 l 1,8,-1
 147 532 l 1,9,-1
 147 391 l 2,10,11
 147 301 147 301 144 232 c 1,12,13
 158 248 158 248 169 261.5 c 128,-1,14
 180 275 180 275 192 290 c 2,15,-1
 404 532 l 1,16,-1
 474 532 l 1,0,-1
EndSplineSet
EndChar

StartChar: Lslash
Encoding: 321 321 258
Width: 515
GlyphClass: 2
Flags: W
AnchorPoint: "Anchor-2" 128 714 basechar 0
AnchorPoint: "Anchor-0" 292 0 basechar 0
LayerCount: 2
Fore
SplineSet
100 0 m 1,0,-1
 100 265 l 1,1,-1
 36 226 l 1,2,-1
 12 266 l 1,3,-1
 100 322 l 1,4,-1
 100 714 l 1,5,-1
 158 714 l 1,6,-1
 158 356 l 1,7,-1
 312 452 l 1,8,-1
 338 410 l 1,9,-1
 158 300 l 1,10,-1
 158 52 l 1,11,-1
 492 52 l 1,12,-1
 492 0 l 1,13,-1
 100 0 l 1,0,-1
EndSplineSet
Substitution2: "'c2sc' Capitals to Small Capitals lookup 33 subtable" lslash.sc
EndChar

StartChar: lslash
Encoding: 322 322 259
Width: 232
GlyphClass: 2
Flags: W
AnchorPoint: "Anchor-2" 116 760 basechar 0
AnchorPoint: "Anchor-0" 116 0 basechar 0
LayerCount: 2
Fore
SplineSet
86 0 m 1,0,-1
 86 312 l 1,1,-1
 26 272 l 1,2,-1
 1 312 l 1,3,-1
 86 368 l 1,4,-1
 86 760 l 1,5,-1
 143 760 l 1,6,-1
 143 404 l 1,7,-1
 216 453 l 1,8,-1
 240 414 l 1,9,-1
 143 349 l 1,10,-1
 143 0 l 1,11,-1
 86 0 l 1,0,-1
EndSplineSet
Substitution2: "'smcp' Lowercase to Small Capitals lookup 34 subtable" lslash.sc
EndChar

StartChar: Eng
Encoding: 330 330 267
Width: 729
GlyphClass: 2
Flags: W
AnchorPoint: "Anchor-2" 364 714 basechar 0
AnchorPoint: "Anchor-0" 364 -182 basechar 0
LayerCount: 2
Fore
SplineSet
460 -182 m 0,0,1
 436 -182 436 -182 415 -178 c 128,-1,2
 394 -174 394 -174 382 -169 c 1,3,-1
 382 -118 l 1,4,5
 398 -123 398 -123 418 -126.5 c 128,-1,6
 438 -130 438 -130 460 -130 c 0,7,8
 510 -130 510 -130 541.5 -99 c 128,-1,9
 573 -68 573 -68 574 5 c 1,10,-1
 153 624 l 1,11,-1
 150 624 l 1,12,13
 152 588 152 588 153 540 c 128,-1,14
 154 492 154 492 154 444 c 2,15,-1
 154 0 l 1,16,-1
 100 0 l 1,17,-1
 100 714 l 1,18,-1
 162 714 l 1,19,-1
 574 101 l 1,20,-1
 578 101 l 1,21,22
 576 136 576 136 575 183.5 c 128,-1,23
 574 231 574 231 574 276 c 2,24,-1
 574 714 l 1,25,-1
 628 714 l 1,26,-1
 628 4 l 2,27,28
 628 -88 628 -88 584 -135 c 128,-1,29
 540 -182 540 -182 460 -182 c 0,0,1
EndSplineSet
Substitution2: "'c2sc' Capitals to Small Capitals lookup 33 subtable" eng.sc
AlternateSubs2: "'aalt' Access All Alternates lookup 1 subtable" Eng.alt1 Eng.alt2 Eng.alt3
EndChar

StartChar: eng
Encoding: 331 331 268
Width: 596
GlyphClass: 2
Flags: W
AnchorPoint: "Anchor-2" 298 532 basechar 0
AnchorPoint: "Anchor-0" 298 -240 basechar 0
LayerCount: 2
Fore
SplineSet
389 -240 m 0,0,1
 367 -240 367 -240 351.5 -237 c 128,-1,2
 336 -234 336 -234 323 -229 c 1,3,-1
 323 -180 l 1,4,5
 337 -186 337 -186 352.5 -188.5 c 128,-1,6
 368 -191 368 -191 384 -191 c 0,7,8
 418 -191 418 -191 437 -169 c 128,-1,9
 456 -147 456 -147 456 -100 c 2,10,-1
 456 344 l 2,11,12
 456 420 456 420 421.5 456 c 128,-1,13
 387 492 387 492 320 492 c 0,14,15
 144 492 144 492 144 290 c 2,16,-1
 144 0 l 1,17,-1
 88 0 l 1,18,-1
 88 532 l 1,19,-1
 134 532 l 1,20,-1
 142 440 l 1,21,-1
 146 440 l 1,22,23
 168 484 168 484 213 513 c 128,-1,24
 258 542 258 542 326 542 c 0,25,26
 418 542 418 542 466 495 c 128,-1,27
 514 448 514 448 514 348 c 2,28,-1
 514 -100 l 2,29,30
 514 -168 514 -168 481 -204 c 128,-1,31
 448 -240 448 -240 389 -240 c 0,0,1
EndSplineSet
Substitution2: "'smcp' Lowercase to Small Capitals lookup 34 subtable" eng.sc
EndChar

StartChar: OE
Encoding: 338 338 275
Width: 914
GlyphClass: 2
Flags: W
AnchorPoint: "Anchor-2" 457 714 basechar 0
AnchorPoint: "Anchor-0" 457 0 basechar 0
LayerCount: 2
Fore
SplineSet
382 721 m 0,0,1
 408 721 408 721 429 719 c 128,-1,2
 450 717 450 717 474 714 c 2,3,-1
 852 714 l 1,4,-1
 852 662 l 1,5,-1
 530 662 l 1,6,-1
 530 400 l 1,7,-1
 833 400 l 1,8,-1
 833 349 l 1,9,-1
 530 349 l 1,10,-1
 530 52 l 1,11,-1
 852 52 l 1,12,-1
 852 0 l 1,13,-1
 472 0 l 2,14,15
 452 -2 452 -2 430.5 -4 c 128,-1,16
 409 -6 409 -6 384 -6 c 0,17,18
 276 -6 276 -6 204.5 39.5 c 128,-1,19
 133 85 133 85 97.5 167.5 c 128,-1,20
 62 250 62 250 62 359 c 256,21,22
 62 468 62 468 98 549.5 c 128,-1,23
 134 631 134 631 205.5 676 c 128,-1,24
 277 721 277 721 382 721 c 0,0,1
386 669 m 0,25,26
 297 669 297 669 238.5 630.5 c 128,-1,27
 180 592 180 592 151 522 c 128,-1,28
 122 452 122 452 122 358 c 0,29,30
 122 263 122 263 150.5 192.5 c 128,-1,31
 179 122 179 122 237 83.5 c 128,-1,32
 295 45 295 45 384 45 c 0,33,34
 411 45 411 45 433.5 47.5 c 128,-1,35
 456 50 456 50 472 55 c 1,36,-1
 472 659 l 1,37,38
 456 664 456 664 434.5 666.5 c 128,-1,39
 413 669 413 669 386 669 c 0,25,26
EndSplineSet
Substitution2: "'c2sc' Capitals to Small Capitals lookup 33 subtable" oe.sc
EndChar

StartChar: oe
Encoding: 339 339 276
Width: 956
GlyphClass: 2
Flags: W
AnchorPoint: "Anchor-2" 478 532 basechar 0
AnchorPoint: "Anchor-0" 478 0 basechar 0
LayerCount: 2
Fore
SplineSet
696 542 m 0,0,1
 763 542 763 542 808.5 510.5 c 128,-1,2
 854 479 854 479 877 424 c 128,-1,3
 900 369 900 369 900 298 c 2,4,-1
 900 258 l 1,5,-1
 526 258 l 1,6,7
 526 150 526 150 574 95 c 128,-1,8
 622 40 622 40 712 40 c 0,9,10
 762 40 762 40 798 48 c 128,-1,11
 834 56 834 56 878 76 c 1,12,-1
 878 24 l 1,13,14
 839 6 839 6 800 -2 c 128,-1,15
 761 -10 761 -10 711 -10 c 0,16,17
 628 -10 628 -10 575 28 c 128,-1,18
 522 66 522 66 498 132 c 1,19,20
 472 67 472 67 421 28.5 c 128,-1,21
 370 -10 370 -10 291 -10 c 0,22,23
 218 -10 218 -10 165.5 24 c 128,-1,24
 113 58 113 58 84.5 120 c 128,-1,25
 56 182 56 182 56 266 c 0,26,27
 56 395 56 395 120 468.5 c 128,-1,28
 184 542 184 542 296 542 c 0,29,30
 374 542 374 542 424 503 c 128,-1,31
 474 464 474 464 497 398 c 1,32,33
 522 462 522 462 571.5 502 c 128,-1,34
 621 542 621 542 696 542 c 0,0,1
695 493 m 0,35,36
 623 493 623 493 578.5 445.5 c 128,-1,37
 534 398 534 398 527 306 c 1,38,-1
 840 306 l 1,39,40
 840 390 840 390 804.5 441.5 c 128,-1,41
 769 493 769 493 695 493 c 0,35,36
294 492 m 0,42,43
 205 492 205 492 160.5 434 c 128,-1,44
 116 376 116 376 116 266 c 0,45,46
 116 161 116 161 158.5 100 c 128,-1,47
 201 39 201 39 292 39 c 0,48,49
 384 39 384 39 426 99.5 c 128,-1,50
 468 160 468 160 468 264 c 256,51,52
 468 368 468 368 427 430 c 128,-1,53
 386 492 386 492 294 492 c 0,42,43
EndSplineSet
Substitution2: "'smcp' Lowercase to Small Capitals lookup 34 subtable" oe.sc
EndChar

StartChar: Tbar
Encoding: 358 358 295
Width: 530
GlyphClass: 2
Flags: W
AnchorPoint: "Anchor-2" 266 714 basechar 0
AnchorPoint: "Anchor-0" 266 0 basechar 0
LayerCount: 2
Fore
SplineSet
236 0 m 1,0,-1
 236 340 l 1,1,-1
 66 340 l 1,2,-1
 66 390 l 1,3,-1
 236 390 l 1,4,-1
 236 662 l 1,5,-1
 6 662 l 1,6,-1
 6 714 l 1,7,-1
 524 714 l 1,8,-1
 524 662 l 1,9,-1
 294 662 l 1,10,-1
 294 390 l 1,11,-1
 462 390 l 1,12,-1
 462 340 l 1,13,-1
 294 340 l 1,14,-1
 294 0 l 1,15,-1
 236 0 l 1,0,-1
EndSplineSet
Substitution2: "'c2sc' Capitals to Small Capitals lookup 33 subtable" tbar.sc
EndChar

StartChar: tbar
Encoding: 359 359 296
Width: 340
GlyphClass: 2
Flags: W
AnchorPoint: "Anchor-3" 317 659 basechar 0
AnchorPoint: "Anchor-2" 132 659 basechar 0
AnchorPoint: "Anchor-1" 170 266 basechar 0
AnchorPoint: "Anchor-0" 202 0 basechar 0
LayerCount: 2
Fore
SplineSet
238 38 m 0,0,1
 260 38 260 38 280.5 41.5 c 128,-1,2
 301 45 301 45 315 50 c 1,3,-1
 315 4 l 1,4,5
 299 -2 299 -2 277.5 -6 c 128,-1,6
 256 -10 256 -10 230 -10 c 0,7,8
 164 -10 164 -10 128 27.5 c 128,-1,9
 92 65 92 65 92 148 c 2,10,-1
 92 282 l 1,11,-1
 21 282 l 1,12,-1
 21 328 l 1,13,-1
 92 328 l 1,14,-1
 92 486 l 1,15,-1
 13 486 l 1,16,-1
 13 518 l 1,17,-1
 92 536 l 1,18,-1
 112 659 l 1,19,-1
 148 659 l 1,20,-1
 148 532 l 1,21,-1
 312 532 l 1,22,-1
 312 486 l 1,23,-1
 148 486 l 1,24,-1
 148 328 l 1,25,-1
 298 328 l 1,26,-1
 298 282 l 1,27,-1
 148 282 l 1,28,-1
 148 150 l 2,29,30
 148 38 148 38 238 38 c 0,0,1
EndSplineSet
Substitution2: "'smcp' Lowercase to Small Capitals lookup 34 subtable" tbar.sc
EndChar

StartChar: Uogonek
Encoding: 370 370 307
Width: 722
GlyphClass: 2
Flags: W
AnchorPoint: "Anchor-3" 702 714 basechar 0
AnchorPoint: "Anchor-2" 361 714 basechar 0
AnchorPoint: "Anchor-0" 360 -218 basechar 0
LayerCount: 2
Fore
SplineSet
448 -114 m 0,0,1
 448 -147 448 -147 461 -161.5 c 128,-1,2
 474 -176 474 -176 500 -176 c 0,3,4
 515 -176 515 -176 527.5 -174 c 128,-1,5
 540 -172 540 -172 548 -170 c 1,6,-1
 548 -210 l 1,7,8
 537 -213 537 -213 523.5 -215.5 c 128,-1,9
 510 -218 510 -218 492 -218 c 0,10,11
 448 -218 448 -218 424 -195 c 128,-1,12
 400 -172 400 -172 400 -122 c 0,13,14
 400 -88 400 -88 416 -56 c 128,-1,15
 432 -24 432 -24 456 3 c 1,16,17
 412 -10 412 -10 358 -10 c 0,18,19
 230 -10 230 -10 161 60 c 128,-1,20
 92 130 92 130 92 254 c 2,21,-1
 92 714 l 1,22,-1
 150 714 l 1,23,-1
 150 254 l 2,24,25
 150 150 150 150 204 95.5 c 128,-1,26
 258 41 258 41 362 41 c 0,27,28
 463 41 463 41 517.5 95.5 c 128,-1,29
 572 150 572 150 572 248 c 2,30,-1
 572 714 l 1,31,-1
 629 714 l 1,32,-1
 629 252 l 2,33,34
 629 107 629 107 532 38 c 1,35,36
 497 1 497 1 472.5 -36 c 128,-1,37
 448 -73 448 -73 448 -114 c 0,0,1
EndSplineSet
Substitution2: "'c2sc' Capitals to Small Capitals lookup 33 subtable" uogonek.sc
Substitution2: "'locl' Localized Forms in Latin lookup 9 subtable" Uogonek.loclNAV
Ligature2: "'ccmp' Glyph Composition/Decomposition lookup 6 subtable" U uni0328
EndChar

StartChar: longs
Encoding: 383 383 320
Width: 310
GlyphClass: 2
Flags: W
AnchorPoint: "Anchor-2" 210 765 basechar 0
AnchorPoint: "Anchor-0" 155 0 basechar 0
LayerCount: 2
Fore
SplineSet
250 716 m 0,0,1
 199 716 199 716 172 683 c 128,-1,2
 145 650 145 650 145 580 c 2,3,-1
 145 0 l 1,4,-1
 88 0 l 1,5,-1
 88 581 l 2,6,7
 88 673 88 673 131 719 c 128,-1,8
 174 765 174 765 251 765 c 0,9,10
 276 765 276 765 297 761 c 128,-1,11
 318 757 318 757 336 751 c 1,12,-1
 323 704 l 1,13,14
 307 708 307 708 289 712 c 128,-1,15
 271 716 271 716 250 716 c 0,0,1
EndSplineSet
EndChar

StartChar: florin
Encoding: 402 402 321
Width: 571
GlyphClass: 2
Flags: W
AnchorPoint: "Anchor-2" 370 724 basechar 0
AnchorPoint: "Anchor-0" 286 -240 basechar 0
LayerCount: 2
Fore
SplineSet
404 724 m 0,0,1
 431 724 431 724 453.5 719 c 128,-1,2
 476 714 476 714 496 708 c 1,3,-1
 482 661 l 1,4,5
 466 666 466 666 446 670.5 c 128,-1,6
 426 675 426 675 404 675 c 0,7,8
 352 675 352 675 327 644.5 c 128,-1,9
 302 614 302 614 302 540 c 2,10,-1
 302 462 l 1,11,-1
 440 462 l 1,12,-1
 440 415 l 1,13,-1
 304 415 l 1,14,-1
 304 -81 l 2,15,16
 304 -161 304 -161 267.5 -200.5 c 128,-1,17
 231 -240 231 -240 161 -240 c 0,18,19
 139 -240 139 -240 122.5 -237.5 c 128,-1,20
 106 -235 106 -235 93 -231 c 1,21,-1
 93 -182 l 1,22,23
 109 -186 109 -186 124.5 -188.5 c 128,-1,24
 140 -191 140 -191 158 -191 c 0,25,26
 203 -191 203 -191 224.5 -164.5 c 128,-1,27
 246 -138 246 -138 246 -78 c 2,28,-1
 246 415 l 1,29,-1
 145 415 l 1,30,-1
 145 446 l 1,31,-1
 246 463 l 1,32,-1
 246 541 l 2,33,34
 246 637 246 637 285.5 680.5 c 128,-1,35
 325 724 325 724 404 724 c 0,0,1
EndSplineSet
EndChar

StartChar: Aringacute
Encoding: 506 506 322
Width: 608
GlyphClass: 2
Flags: W
AnchorPoint: "Anchor-2" 304 962 basechar 0
AnchorPoint: "Anchor-0" 304 0 basechar 0
LayerCount: 2
Fore
SplineSet
275 826 m 1,0,-1
 275 833 l 1,1,2
 301 860 301 860 329.5 895 c 128,-1,3
 358 930 358 930 376 962 c 1,4,-1
 444 962 l 1,5,-1
 444 954 l 1,6,7
 423 926 423 926 386.5 889.5 c 128,-1,8
 350 853 350 853 315 826 c 1,9,-1
 275 826 l 1,0,-1
-4 0 m 1,10,-1
 268 593 l 1,11,12
 236 602 236 602 217.5 626.5 c 128,-1,13
 199 651 199 651 199 691 c 0,14,15
 199 738 199 738 229 766 c 128,-1,16
 259 794 259 794 306 794 c 0,17,18
 352 794 352 794 382 766 c 128,-1,19
 412 738 412 738 412 691 c 0,20,21
 412 653 412 653 394 628.5 c 128,-1,22
 376 604 376 604 344 593 c 1,23,-1
 611 0 l 1,24,-1
 550 0 l 1,25,-1
 454 212 l 1,26,-1
 153 212 l 1,27,-1
 57 0 l 1,28,-1
 -4 0 l 1,10,-1
305 620 m 256,29,30
 336 620 336 620 355 638.5 c 128,-1,31
 374 657 374 657 374 690 c 0,32,33
 374 722 374 722 355 740.5 c 128,-1,34
 336 759 336 759 305 759 c 256,35,36
 274 759 274 759 255 740.5 c 128,-1,37
 236 722 236 722 236 690 c 0,38,39
 236 657 236 657 255 638.5 c 128,-1,40
 274 620 274 620 305 620 c 256,29,30
174 265 m 1,41,-1
 434 265 l 1,42,-1
 336 488 l 2,43,44
 330 504 330 504 322 525 c 128,-1,45
 314 546 314 546 306 568 c 1,46,47
 298 546 298 546 290 525 c 128,-1,48
 282 504 282 504 275 488 c 2,49,-1
 174 265 l 1,41,-1
EndSplineSet
Substitution2: "'c2sc' Capitals to Small Capitals lookup 33 subtable" aringacute.sc
EndChar

StartChar: aringacute
Encoding: 507 507 323
Width: 536
GlyphClass: 2
Flags: W
AnchorPoint: "Anchor-2" 268 954 basechar 0
AnchorPoint: "Anchor-0" 268 0 basechar 0
LayerCount: 2
Fore
SplineSet
410 954 m 1,0,-1
 410 948 l 1,1,2
 396 930 396 930 371 909.5 c 128,-1,3
 346 889 346 889 318.5 868.5 c 128,-1,4
 291 848 291 848 268 831 c 1,5,-1
 226 831 l 1,6,-1
 226 838 l 1,7,8
 252 862 252 862 281 894.5 c 128,-1,9
 310 927 310 927 329 954 c 1,10,-1
 410 954 l 1,0,-1
276 796 m 0,11,12
 320 796 320 796 350.5 767.5 c 128,-1,13
 381 739 381 739 381 694 c 0,14,15
 381 646 381 646 350.5 618 c 128,-1,16
 320 590 320 590 276 590 c 0,17,18
 231 590 231 590 200.5 618 c 128,-1,19
 170 646 170 646 170 694 c 0,20,21
 170 740 170 740 200.5 768 c 128,-1,22
 231 796 231 796 276 796 c 0,11,12
276 760 m 0,23,24
 248 760 248 760 228.5 741 c 128,-1,25
 209 722 209 722 209 694 c 0,26,27
 209 665 209 665 227 646.5 c 128,-1,28
 245 628 245 628 276 628 c 0,29,30
 304 628 304 628 323 646.5 c 128,-1,31
 342 665 342 665 342 694 c 0,32,33
 342 722 342 722 322.5 741 c 128,-1,34
 303 760 303 760 276 760 c 0,23,24
276 541 m 0,35,36
 366 541 366 541 410 497 c 128,-1,37
 454 453 454 453 454 358 c 2,38,-1
 454 0 l 1,39,-1
 411 0 l 1,40,-1
 400 90 l 1,41,-1
 398 90 l 1,42,43
 370 45 370 45 328 17.5 c 128,-1,44
 286 -10 286 -10 212 -10 c 0,45,46
 136 -10 136 -10 91.5 28 c 128,-1,47
 47 66 47 66 47 139 c 0,48,49
 47 218 47 218 111.5 260 c 128,-1,50
 176 302 176 302 301 307 c 2,51,-1
 398 312 l 1,52,-1
 398 349 l 2,53,54
 398 428 398 428 366.5 460.5 c 128,-1,55
 335 493 335 493 274 493 c 0,56,57
 233 493 233 493 195 482.5 c 128,-1,58
 157 472 157 472 119 452 c 1,59,-1
 101 498 l 1,60,61
 138 517 138 517 183 529 c 128,-1,62
 228 541 228 541 276 541 c 0,35,36
398 268 m 1,63,-1
 308 264 l 2,64,65
 206 260 206 260 156 229.5 c 128,-1,66
 106 199 106 199 106 138 c 0,67,68
 106 89 106 89 137 63.5 c 128,-1,69
 168 38 168 38 222 38 c 0,70,71
 305 38 305 38 350.5 85 c 128,-1,72
 396 132 396 132 398 217 c 2,73,-1
 398 268 l 1,63,-1
EndSplineSet
Substitution2: "'smcp' Lowercase to Small Capitals lookup 34 subtable" aringacute.sc
EndChar

StartChar: circumflex
Encoding: 710 710 330
Width: 375
Flags: W
LayerCount: 2
Fore
SplineSet
215 764 m 1,0,1
 227 743 227 743 248.5 715.5 c 128,-1,2
 270 688 270 688 293 661 c 128,-1,3
 316 634 316 634 335 614 c 1,4,-1
 335 606 l 1,5,-1
 294 606 l 1,6,7
 267 628 267 628 239 657 c 128,-1,8
 211 686 211 686 187 714 c 1,9,10
 163 686 163 686 135 657 c 128,-1,11
 107 628 107 628 80 606 c 1,12,-1
 40 606 l 1,13,-1
 40 614 l 1,14,15
 58 634 58 634 81.5 661 c 128,-1,16
 105 688 105 688 126 715.5 c 128,-1,17
 147 743 147 743 160 764 c 1,18,-1
 215 764 l 1,0,1
EndSplineSet
EndChar

StartChar: caron
Encoding: 711 711 331
Width: 375
Flags: W
LayerCount: 2
Fore
SplineSet
158 606 m 1,0,1
 146 628 146 628 125 655 c 128,-1,2
 104 682 104 682 81 709 c 128,-1,3
 58 736 58 736 40 755 c 1,4,-1
 40 764 l 1,5,-1
 80 764 l 1,6,7
 107 742 107 742 135.5 713 c 128,-1,8
 164 684 164 684 186 656 c 1,9,10
 210 684 210 684 238.5 713 c 128,-1,11
 267 742 267 742 294 764 c 1,12,-1
 335 764 l 1,13,-1
 335 755 l 1,14,15
 316 736 316 736 292.5 709 c 128,-1,16
 269 682 269 682 247.5 655 c 128,-1,17
 226 628 226 628 214 606 c 1,18,-1
 158 606 l 1,0,1
EndSplineSet
EndChar

StartChar: macron
Encoding: 713 713 332
Width: 356
Flags: W
LayerCount: 2
Fore
SplineSet
316 658 m 1,0,-1
 316 610 l 1,1,-1
 40 610 l 1,2,-1
 40 658 l 1,3,-1
 316 658 l 1,0,-1
EndSplineSet
EndChar

StartChar: breve
Encoding: 728 728 333
Width: 358
Flags: W
LayerCount: 2
Fore
SplineSet
318 729 m 1,0,1
 312 671 312 671 276.5 638.5 c 128,-1,2
 241 606 241 606 178 606 c 0,3,4
 114 606 114 606 79 638.5 c 128,-1,5
 44 671 44 671 40 729 c 1,6,-1
 80 729 l 1,7,8
 84 688 84 688 108.5 671 c 128,-1,9
 133 654 133 654 178 654 c 0,10,11
 222 654 222 654 248 671.5 c 128,-1,12
 274 689 274 689 278 729 c 1,13,-1
 318 729 l 1,0,1
EndSplineSet
EndChar

StartChar: dotaccent
Encoding: 729 729 334
Width: 158
Flags: W
LayerCount: 2
Fore
SplineSet
78 729 m 0,0,1
 117 729 117 729 117 686 c 0,2,3
 117 642 117 642 78 642 c 0,4,5
 40 642 40 642 40 686 c 0,6,7
 40 729 40 729 78 729 c 0,0,1
EndSplineSet
EndChar

StartChar: ring
Encoding: 730 730 335
Width: 290
Flags: W
LayerCount: 2
Fore
SplineSet
145 608 m 256,0,1
 101 608 101 608 70.5 636 c 128,-1,2
 40 664 40 664 40 712 c 0,3,4
 40 758 40 758 70 786 c 128,-1,5
 100 814 100 814 145 814 c 0,6,7
 189 814 189 814 219.5 785.5 c 128,-1,8
 250 757 250 757 250 712 c 0,9,10
 250 664 250 664 219.5 636 c 128,-1,11
 189 608 189 608 145 608 c 256,0,1
145 646 m 0,12,13
 174 646 174 646 192.5 664.5 c 128,-1,14
 211 683 211 683 211 712 c 0,15,16
 211 740 211 740 192 759 c 128,-1,17
 173 778 173 778 145 778 c 0,18,19
 116 778 116 778 97 759 c 128,-1,20
 78 740 78 740 78 712 c 0,21,22
 78 683 78 683 96 664.5 c 128,-1,23
 114 646 114 646 145 646 c 0,12,13
EndSplineSet
EndChar

StartChar: ogonek
Encoding: 731 731 336
Width: 228
Flags: W
LayerCount: 2
Fore
SplineSet
89 -124 m 0,0,1
 89 -176 89 -176 140 -176 c 0,2,3
 156 -176 156 -176 168 -174 c 128,-1,4
 180 -172 180 -172 188 -170 c 1,5,-1
 188 -210 l 1,6,7
 178 -213 178 -213 164 -215.5 c 128,-1,8
 150 -218 150 -218 132 -218 c 0,9,10
 88 -218 88 -218 64 -196 c 128,-1,11
 40 -174 40 -174 40 -130 c 0,12,13
 40 -91 40 -91 67.5 -54 c 128,-1,14
 95 -17 95 -17 136 13 c 1,15,-1
 169 0 l 1,16,17
 135 -30 135 -30 112 -60 c 128,-1,18
 89 -90 89 -90 89 -124 c 0,0,1
EndSplineSet
EndChar

StartChar: tilde
Encoding: 732 732 337
Width: 426
Flags: W
LayerCount: 2
Fore
SplineSet
40 612 m 1,0,1
 44 666 44 666 70 695.5 c 128,-1,2
 96 725 96 725 140 725 c 0,3,4
 163 725 163 725 182.5 715 c 128,-1,5
 202 705 202 705 219.5 692 c 128,-1,6
 237 679 237 679 253.5 669 c 128,-1,7
 270 659 270 659 288 659 c 0,8,9
 310 659 310 659 326 673.5 c 128,-1,10
 342 688 342 688 348 726 c 1,11,-1
 386 726 l 1,12,13
 382 672 382 672 355 642 c 128,-1,14
 328 612 328 612 286 612 c 0,15,16
 263 612 263 612 243.5 622 c 128,-1,17
 224 632 224 632 207 645 c 128,-1,18
 190 658 190 658 173 668 c 128,-1,19
 156 678 156 678 136 678 c 0,20,21
 114 678 114 678 99 664 c 128,-1,22
 84 650 84 650 78 612 c 1,23,-1
 40 612 l 1,0,1
EndSplineSet
EndChar

StartChar: hungarumlaut
Encoding: 733 733 338
Width: 409
Flags: W
LayerCount: 2
Fore
SplineSet
369 766 m 1,0,-1
 369 758 l 1,1,2
 356 737 356 737 335 709 c 128,-1,3
 314 681 314 681 290 653.5 c 128,-1,4
 266 626 266 626 244 606 c 1,5,-1
 208 606 l 1,6,-1
 208 615 l 1,7,8
 224 634 224 634 242.5 661 c 128,-1,9
 261 688 261 688 278 716 c 128,-1,10
 295 744 295 744 306 766 c 1,11,-1
 369 766 l 1,0,-1
201 766 m 1,12,-1
 201 758 l 1,13,14
 188 737 188 737 167 709 c 128,-1,15
 146 681 146 681 122 653.5 c 128,-1,16
 98 626 98 626 76 606 c 1,17,-1
 40 606 l 1,18,-1
 40 615 l 1,19,20
 56 634 56 634 74.5 661 c 128,-1,21
 93 688 93 688 110 716 c 128,-1,22
 127 744 127 744 138 766 c 1,23,-1
 201 766 l 1,12,-1
EndSplineSet
EndChar

StartChar: tonos
Encoding: 900 900 339
Width: 577
Flags: W
AnchorPoint: "Anchor-10" 298 532 mark 0
AnchorPoint: "Anchor-6" 298 532 mark 0
AnchorPoint: "Anchor-2" 298 532 mark 0
LayerCount: 2
Fore
SplineSet
258 606 m 1,0,-1
 258 616 l 1,1,2
 268 641 268 641 278 674 c 128,-1,3
 288 707 288 707 296 741.5 c 128,-1,4
 304 776 304 776 308 806 c 1,5,-1
 368 806 l 1,6,-1
 368 796 l 1,7,8
 363 770 363 770 351 736 c 128,-1,9
 339 702 339 702 323.5 667.5 c 128,-1,10
 308 633 308 633 294 606 c 1,11,-1
 258 606 l 1,0,-1
EndSplineSet
EndChar

StartChar: dieresistonos
Encoding: 901 901 340
Width: 577
Flags: W
AnchorPoint: "Anchor-10" 288 532 mark 0
AnchorPoint: "Anchor-6" 288 532 mark 0
AnchorPoint: "Anchor-2" 288 532 mark 0
LayerCount: 2
Fore
SplineSet
370 838 m 1,0,-1
 370 829 l 1,1,2
 358 796 358 796 336 752 c 128,-1,3
 314 708 314 708 291 674 c 1,4,-1
 260 674 l 1,5,-1
 260 683 l 1,6,7
 274 715 274 715 287 759 c 128,-1,8
 300 803 300 803 306 838 c 1,9,-1
 370 838 l 1,0,-1
184 720 m 256,10,11
 219 720 219 720 219 680 c 0,12,13
 219 639 219 639 184 639 c 256,14,15
 149 639 149 639 149 680 c 0,16,17
 149 720 149 720 184 720 c 256,10,11
396 720 m 256,18,19
 431 720 431 720 431 680 c 0,20,21
 431 639 431 639 396 639 c 256,22,23
 361 639 361 639 361 680 c 0,24,25
 361 720 361 720 396 720 c 256,18,19
EndSplineSet
EndChar

StartChar: Gamma
Encoding: 915 915 352
Width: 506
GlyphClass: 2
Flags: W
AnchorPoint: "Anchor-2" 296 714 basechar 0
AnchorPoint: "Anchor-0" 254 0 basechar 0
LayerCount: 2
Fore
SplineSet
494 714 m 1,0,-1
 494 662 l 1,1,-1
 158 662 l 1,2,-1
 158 0 l 1,3,-1
 100 0 l 1,4,-1
 100 714 l 1,5,-1
 494 714 l 1,0,-1
EndSplineSet
EndChar

StartChar: uni0394
Encoding: 916 916 353
Width: 573
GlyphClass: 2
Flags: W
AnchorPoint: "Anchor-2" 287 714 basechar 0
AnchorPoint: "Anchor-0" 287 0 basechar 0
LayerCount: 2
Fore
SplineSet
315 714 m 1,0,-1
 561 33 l 1,1,-1
 561 0 l 1,2,-1
 12 0 l 1,3,-1
 12 34 l 1,4,-1
 258 714 l 1,5,-1
 315 714 l 1,0,-1
494 52 m 1,6,-1
 330 509 l 2,7,8
 316 548 316 548 304.5 585.5 c 128,-1,9
 293 623 293 623 286 649 c 1,10,11
 278 622 278 622 267 587 c 128,-1,12
 256 552 256 552 243 514 c 2,13,-1
 76 52 l 1,14,-1
 494 52 l 1,6,-1
EndSplineSet
EndChar

StartChar: Theta
Encoding: 920 920 357
Width: 768
GlyphClass: 2
Flags: W
AnchorPoint: "Anchor-3" 748 714 basechar 0
AnchorPoint: "Anchor-2" 384 714 basechar 0
AnchorPoint: "Anchor-1" 384 357 basechar 0
AnchorPoint: "Anchor-0" 384 0 basechar 0
LayerCount: 2
Fore
SplineSet
705 358 m 0,0,1
 705 249 705 249 669 166 c 128,-1,2
 633 83 633 83 561.5 36.5 c 128,-1,3
 490 -10 490 -10 384 -10 c 0,4,5
 276 -10 276 -10 204.5 36.5 c 128,-1,6
 133 83 133 83 97.5 166.5 c 128,-1,7
 62 250 62 250 62 359 c 256,8,9
 62 468 62 468 98.5 550 c 128,-1,10
 135 632 135 632 207.5 678.5 c 128,-1,11
 280 725 280 725 387 725 c 0,12,13
 490 725 490 725 560.5 680.5 c 128,-1,14
 631 636 631 636 668 554 c 128,-1,15
 705 472 705 472 705 358 c 0,0,1
123 358 m 0,16,17
 123 263 123 263 151 191.5 c 128,-1,18
 179 120 179 120 237 80.5 c 128,-1,19
 295 41 295 41 384 41 c 0,20,21
 474 41 474 41 531.5 80.5 c 128,-1,22
 589 120 589 120 616.5 191 c 128,-1,23
 644 262 644 262 644 358 c 0,24,25
 644 506 644 506 579.5 589.5 c 128,-1,26
 515 673 515 673 387 673 c 0,27,28
 298 673 298 673 239 633.5 c 128,-1,29
 180 594 180 594 151.5 523 c 128,-1,30
 123 452 123 452 123 358 c 0,16,17
544 388 m 1,31,-1
 544 336 l 1,32,-1
 223 336 l 1,33,-1
 223 388 l 1,34,-1
 544 388 l 1,31,-1
EndSplineSet
EndChar

StartChar: Lambda
Encoding: 923 923 360
Width: 586
GlyphClass: 2
Flags: W
AnchorPoint: "Anchor-2" 293 714 basechar 0
AnchorPoint: "Anchor-0" 293 0 basechar 0
LayerCount: 2
Fore
SplineSet
322 714 m 1,0,-1
 585 0 l 1,1,-1
 524 0 l 1,2,-1
 336 510 l 2,3,4
 322 548 322 548 311 583 c 128,-1,5
 300 618 300 618 292 646 c 1,6,7
 284 618 284 618 273 584.5 c 128,-1,8
 262 551 262 551 248 511 c 2,9,-1
 61 0 l 1,10,-1
 0 0 l 1,11,-1
 262 714 l 1,12,-1
 322 714 l 1,0,-1
EndSplineSet
EndChar

StartChar: Xi
Encoding: 926 926 363
Width: 536
GlyphClass: 2
Flags: W
AnchorPoint: "Anchor-2" 268 714 basechar 0
AnchorPoint: "Anchor-0" 268 0 basechar 0
LayerCount: 2
Fore
SplineSet
43 662 m 1,0,-1
 43 714 l 1,1,-1
 492 714 l 1,2,-1
 492 662 l 1,3,-1
 43 662 l 1,0,-1
83 348 m 1,4,-1
 83 400 l 1,5,-1
 452 400 l 1,6,-1
 452 348 l 1,7,-1
 83 348 l 1,4,-1
23 0 m 1,8,-1
 23 52 l 1,9,-1
 512 52 l 1,10,-1
 512 0 l 1,11,-1
 23 0 l 1,8,-1
EndSplineSet
EndChar

StartChar: Pi
Encoding: 928 928 365
Width: 718
GlyphClass: 2
Flags: W
AnchorPoint: "Anchor-2" 359 714 basechar 0
AnchorPoint: "Anchor-0" 359 0 basechar 0
LayerCount: 2
Fore
SplineSet
100 0 m 1,0,-1
 100 714 l 1,1,-1
 617 714 l 1,2,-1
 617 0 l 1,3,-1
 560 0 l 1,4,-1
 560 662 l 1,5,-1
 158 662 l 1,6,-1
 158 0 l 1,7,-1
 100 0 l 1,0,-1
EndSplineSet
EndChar

StartChar: Sigma
Encoding: 931 931 367
Width: 555
GlyphClass: 2
Flags: W
AnchorPoint: "Anchor-2" 278 714 basechar 0
AnchorPoint: "Anchor-0" 278 0 basechar 0
LayerCount: 2
Fore
SplineSet
31 0 m 1,0,-1
 31 47 l 1,1,-1
 289 372 l 1,2,-1
 37 667 l 1,3,-1
 37 714 l 1,4,-1
 509 714 l 1,5,-1
 509 661 l 1,6,-1
 216 661 l 2,7,8
 191 661 191 661 161.5 661 c 128,-1,9
 132 661 132 661 108 662 c 1,10,-1
 356 374 l 1,11,-1
 99 52 l 1,12,-1
 538 52 l 1,13,-1
 538 0 l 1,14,-1
 31 0 l 1,0,-1
EndSplineSet
EndChar

StartChar: Phi
Encoding: 934 934 370
Width: 770
GlyphClass: 2
Flags: W
AnchorPoint: "Anchor-2" 386 714 basechar 0
AnchorPoint: "Anchor-0" 386 0 basechar 0
LayerCount: 2
Fore
SplineSet
414 724 m 1,0,-1
 414 636 l 1,1,2
 568 634 568 634 643 566 c 128,-1,3
 718 498 718 498 718 374 c 0,4,5
 718 294 718 294 685 233 c 128,-1,6
 652 172 652 172 584.5 137 c 128,-1,7
 517 102 517 102 414 100 c 1,8,-1
 414 -10 l 1,9,-1
 356 -10 l 1,10,-1
 356 100 l 1,11,12
 252 102 252 102 185 137 c 128,-1,13
 118 172 118 172 85.5 232.5 c 128,-1,14
 53 293 53 293 53 371 c 0,15,16
 53 489 53 489 125.5 561 c 128,-1,17
 198 633 198 633 356 636 c 1,18,-1
 356 724 l 1,19,-1
 414 724 l 1,0,-1
356 586 m 1,20,21
 232 583 232 583 172 528.5 c 128,-1,22
 112 474 112 474 112 372 c 0,23,24
 112 264 112 264 174.5 208 c 128,-1,25
 237 152 237 152 356 149 c 1,26,-1
 356 586 l 1,20,21
414 586 m 1,27,-1
 414 149 l 1,28,29
 534 152 534 152 596 209 c 128,-1,30
 658 266 658 266 658 374 c 0,31,32
 658 479 658 479 599.5 531 c 128,-1,33
 541 583 541 583 414 586 c 1,27,-1
EndSplineSet
EndChar

StartChar: Psi
Encoding: 936 936 372
Width: 772
GlyphClass: 2
Flags: W
AnchorPoint: "Anchor-2" 386 714 basechar 0
AnchorPoint: "Anchor-0" 386 0 basechar 0
LayerCount: 2
Fore
SplineSet
706 714 m 1,0,-1
 706 478 l 2,1,2
 706 353 706 353 635 287.5 c 128,-1,3
 564 222 564 222 410 220 c 1,4,-1
 410 0 l 1,5,-1
 353 0 l 1,6,-1
 353 220 l 1,7,8
 197 222 197 222 127.5 288 c 128,-1,9
 58 354 58 354 58 478 c 2,10,-1
 58 714 l 1,11,-1
 116 714 l 1,12,-1
 116 480 l 2,13,14
 116 370 116 370 172.5 321 c 128,-1,15
 229 272 229 272 353 271 c 1,16,-1
 353 714 l 1,17,-1
 410 714 l 1,18,-1
 410 271 l 1,19,20
 534 272 534 272 590 321 c 128,-1,21
 646 370 646 370 646 480 c 2,22,-1
 646 714 l 1,23,-1
 706 714 l 1,0,-1
EndSplineSet
EndChar

StartChar: uni03A9
Encoding: 937 937 373
Width: 776
GlyphClass: 2
Flags: W
AnchorPoint: "Anchor-2" 388 714 basechar 0
AnchorPoint: "Anchor-0" 388 0 basechar 0
LayerCount: 2
Fore
SplineSet
388 673 m 256,0,1
 264 673 264 673 195 597.5 c 128,-1,2
 126 522 126 522 126 393 c 0,3,4
 126 272 126 272 175 191.5 c 128,-1,5
 224 111 224 111 318 47 c 1,6,-1
 318 0 l 1,7,-1
 40 0 l 1,8,-1
 40 52 l 1,9,-1
 242 52 l 1,10,11
 192 86 192 86 152 134 c 128,-1,12
 112 182 112 182 88.5 246 c 128,-1,13
 65 310 65 310 65 394 c 0,14,15
 65 494 65 494 104.5 568 c 128,-1,16
 144 642 144 642 216.5 683.5 c 128,-1,17
 289 725 289 725 388 725 c 0,18,19
 488 725 488 725 560.5 685.5 c 128,-1,20
 633 646 633 646 672.5 572 c 128,-1,21
 712 498 712 498 712 395 c 0,22,23
 712 269 712 269 662 185.5 c 128,-1,24
 612 102 612 102 536 52 c 1,25,-1
 737 52 l 1,26,-1
 737 0 l 1,27,-1
 458 0 l 1,28,-1
 458 47 l 1,29,30
 557 110 557 110 604 192.5 c 128,-1,31
 651 275 651 275 651 393 c 0,32,33
 651 525 651 525 581.5 599 c 128,-1,34
 512 673 512 673 388 673 c 256,0,1
EndSplineSet
EndChar

StartChar: alpha
Encoding: 945 945 381
Width: 595
GlyphClass: 2
Flags: W
AnchorPoint: "Anchor-2" 300 532 basechar 0
AnchorPoint: "Anchor-0" 295 0 basechar 0
LayerCount: 2
Fore
SplineSet
277 -10 m 0,0,1
 173 -10 173 -10 115 59.5 c 128,-1,2
 57 129 57 129 57 264 c 0,3,4
 57 398 57 398 117.5 470 c 128,-1,5
 178 542 178 542 284 542 c 0,6,7
 409 542 409 542 452 446 c 1,8,-1
 456 446 l 1,9,10
 458 468 458 468 465.5 490.5 c 128,-1,11
 473 513 473 513 482 532 c 1,12,-1
 528 532 l 1,13,14
 519 499 519 499 513.5 448.5 c 128,-1,15
 508 398 508 398 508 337 c 2,16,-1
 508 118 l 2,17,18
 508 73 508 73 520 55.5 c 128,-1,19
 532 38 532 38 554 38 c 0,20,21
 562 38 562 38 571 40 c 128,-1,22
 580 42 580 42 587 44 c 1,23,-1
 587 0 l 1,24,25
 580 -4 580 -4 567 -7 c 128,-1,26
 554 -10 554 -10 540 -10 c 0,27,28
 500 -10 500 -10 480 13 c 128,-1,29
 460 36 460 36 454 92 c 1,30,-1
 450 92 l 1,31,32
 429 50 429 50 388.5 20 c 128,-1,33
 348 -10 348 -10 277 -10 c 0,0,1
284 39 m 0,34,35
 373 39 373 39 412 96.5 c 128,-1,36
 451 154 451 154 451 260 c 2,37,-1
 451 274 l 2,38,39
 451 386 451 386 412.5 439 c 128,-1,40
 374 492 374 492 288 492 c 0,41,42
 203 492 203 492 159.5 433 c 128,-1,43
 116 374 116 374 116 264 c 0,44,45
 116 153 116 153 157 96 c 128,-1,46
 198 39 198 39 284 39 c 0,34,35
EndSplineSet
EndChar

StartChar: beta
Encoding: 946 946 382
Width: 612
GlyphClass: 2
Flags: W
AnchorPoint: "Anchor-3" 542 765 basechar 0
AnchorPoint: "Anchor-2" 316 765 basechar 0
AnchorPoint: "Anchor-0" 342 0 basechar 0
LayerCount: 2
Fore
SplineSet
320 765 m 0,0,1
 418 765 418 765 476 717.5 c 128,-1,2
 534 670 534 670 534 578 c 0,3,4
 534 508 534 508 497.5 462.5 c 128,-1,5
 461 417 461 417 393 405 c 1,6,-1
 393 402 l 1,7,8
 475 392 475 392 519.5 343 c 128,-1,9
 564 294 564 294 564 206 c 0,10,11
 564 107 564 107 500 50 c 128,-1,12
 436 -7 436 -7 324 -7 c 0,13,14
 270 -7 270 -7 227.5 4.5 c 128,-1,15
 185 16 185 16 145 39 c 1,16,-1
 145 -240 l 1,17,-1
 88 -240 l 1,18,-1
 88 538 l 2,19,20
 88 649 88 649 151 707 c 128,-1,21
 214 765 214 765 320 765 c 0,0,1
319 716 m 0,22,23
 240 716 240 716 192.5 672 c 128,-1,24
 145 628 145 628 145 534 c 2,25,-1
 145 92 l 1,26,27
 185 68 185 68 226.5 54.5 c 128,-1,28
 268 41 268 41 320 41 c 0,29,30
 412 41 412 41 459 85.5 c 128,-1,31
 506 130 506 130 506 209 c 0,32,33
 506 289 506 289 459 332 c 128,-1,34
 412 375 412 375 318 375 c 2,35,-1
 262 375 l 1,36,-1
 262 424 l 1,37,-1
 312 424 l 2,38,39
 392 424 392 424 434 463 c 128,-1,40
 476 502 476 502 476 576 c 0,41,42
 476 644 476 644 434.5 680 c 128,-1,43
 393 716 393 716 319 716 c 0,22,23
EndSplineSet
EndChar

StartChar: gamma
Encoding: 947 947 383
Width: 488
GlyphClass: 2
Flags: W
AnchorPoint: "Anchor-3" 472 532 basechar 0
AnchorPoint: "Anchor-2" 244 532 basechar 0
AnchorPoint: "Anchor-0" 244 -240 basechar 0
LayerCount: 2
Fore
SplineSet
478 532 m 1,0,-1
 284 28 l 2,1,2
 258 -40 258 -40 245.5 -111.5 c 128,-1,3
 233 -183 233 -183 232 -240 c 1,4,-1
 172 -240 l 1,5,6
 172 -204 172 -204 178.5 -159.5 c 128,-1,7
 185 -115 185 -115 195.5 -70.5 c 128,-1,8
 206 -26 206 -26 219 11 c 1,9,-1
 2 532 l 1,10,-1
 62 532 l 1,11,-1
 200 198 l 2,12,13
 214 165 214 165 226 130 c 128,-1,14
 238 95 238 95 246 68 c 1,15,-1
 248 68 l 1,16,17
 256 93 256 93 268 129.5 c 128,-1,18
 280 166 280 166 291 196 c 2,19,-1
 418 532 l 1,20,-1
 478 532 l 1,0,-1
EndSplineSet
EndChar

StartChar: delta
Encoding: 948 948 384
Width: 586
GlyphClass: 2
Flags: W
AnchorPoint: "Anchor-2" 293 764 basechar 0
AnchorPoint: "Anchor-0" 293 0 basechar 0
LayerCount: 2
Fore
SplineSet
314 764 m 0,0,1
 370 764 370 764 416 750 c 128,-1,2
 462 736 462 736 506 714 c 1,3,-1
 482 668 l 1,4,5
 442 690 442 690 401 703 c 128,-1,6
 360 716 360 716 312 716 c 0,7,8
 256 716 256 716 227.5 690.5 c 128,-1,9
 199 665 199 665 199 626 c 0,10,11
 199 596 199 596 213.5 574 c 128,-1,12
 228 552 228 552 258 531 c 128,-1,13
 288 510 288 510 336 484 c 0,14,15
 393 452 393 452 436.5 417 c 128,-1,16
 480 382 480 382 504.5 336.5 c 128,-1,17
 529 291 529 291 529 228 c 0,18,19
 529 117 529 117 466 53.5 c 128,-1,20
 403 -10 403 -10 292 -10 c 0,21,22
 222 -10 222 -10 169 16.5 c 128,-1,23
 116 43 116 43 86 92.5 c 128,-1,24
 56 142 56 142 56 212 c 0,25,26
 56 305 56 305 111.5 367.5 c 128,-1,27
 167 430 167 430 272 462 c 1,28,29
 210 498 210 498 175.5 533.5 c 128,-1,30
 141 569 141 569 141 626 c 0,31,32
 141 692 141 692 190 728 c 128,-1,33
 239 764 239 764 314 764 c 0,0,1
319 434 m 1,34,35
 264 420 264 420 217.5 393.5 c 128,-1,36
 171 367 171 367 143 323 c 128,-1,37
 115 279 115 279 115 212 c 0,38,39
 115 132 115 132 163 85.5 c 128,-1,40
 211 39 211 39 292 39 c 0,41,42
 378 39 378 39 424 88.5 c 128,-1,43
 470 138 470 138 470 228 c 0,44,45
 470 303 470 303 429.5 351 c 128,-1,46
 389 399 389 399 319 434 c 1,34,35
EndSplineSet
EndChar

StartChar: epsilon
Encoding: 949 949 385
Width: 459
GlyphClass: 2
Flags: W
AnchorPoint: "Anchor-2" 243 532 basechar 0
AnchorPoint: "Anchor-0" 230 0 basechar 0
LayerCount: 2
Fore
SplineSet
336 304 m 1,0,-1
 336 256 l 1,1,-1
 269 256 l 2,2,3
 187 256 187 256 144.5 229 c 128,-1,4
 102 202 102 202 102 144 c 0,5,6
 102 93 102 93 142.5 65.5 c 128,-1,7
 183 38 183 38 256 38 c 0,8,9
 306 38 306 38 346.5 48.5 c 128,-1,10
 387 59 387 59 422 74 c 1,11,-1
 422 24 l 1,12,13
 394 10 394 10 351.5 0 c 128,-1,14
 309 -10 309 -10 253 -10 c 0,15,16
 147 -10 147 -10 96 33 c 128,-1,17
 45 76 45 76 45 142 c 0,18,19
 45 199 45 199 77 232 c 128,-1,20
 109 265 109 265 163 279 c 1,21,-1
 163 282 l 1,22,23
 112 297 112 297 88 327.5 c 128,-1,24
 64 358 64 358 64 402 c 0,25,26
 64 450 64 450 89.5 481 c 128,-1,27
 115 512 115 512 158.5 527 c 128,-1,28
 202 542 202 542 255 542 c 256,29,30
 308 542 308 542 346 533 c 128,-1,31
 384 524 384 524 422 508 c 1,32,-1
 402 461 l 1,33,34
 370 475 370 475 334 484 c 128,-1,35
 298 493 298 493 255 493 c 0,36,37
 119 493 119 493 119 399 c 0,38,39
 119 350 119 350 160.5 327 c 128,-1,40
 202 304 202 304 280 304 c 2,41,-1
 336 304 l 1,0,-1
EndSplineSet
EndChar

StartChar: zeta
Encoding: 950 950 386
Width: 470
GlyphClass: 2
Flags: W
AnchorPoint: "Anchor-2" 236 760 basechar 0
AnchorPoint: "Anchor-0" 236 -196 basechar 0
LayerCount: 2
Fore
SplineSet
439 -59 m 0,0,1
 439 -96 439 -96 422.5 -130 c 128,-1,2
 406 -164 406 -164 382 -196 c 1,3,-1
 323 -196 l 1,4,5
 349 -163 349 -163 365.5 -129.5 c 128,-1,6
 382 -96 382 -96 382 -70 c 0,7,8
 381 -48 381 -48 370 -33.5 c 128,-1,9
 359 -19 359 -19 332 -9.5 c 128,-1,10
 305 0 305 0 256 9 c 0,11,12
 155 25 155 25 106 77 c 128,-1,13
 57 129 57 129 57 224 c 0,14,15
 57 295 57 295 79 355 c 128,-1,16
 101 415 101 415 142 471 c 128,-1,17
 183 527 183 527 241 586 c 128,-1,18
 299 645 299 645 372 714 c 1,19,20
 354 712 354 712 318 711.5 c 128,-1,21
 282 711 282 711 242 711 c 2,22,-1
 88 711 l 1,23,-1
 88 760 l 1,24,-1
 442 760 l 1,25,-1
 442 716 l 1,26,27
 344 628 344 628 281 560 c 128,-1,28
 218 492 218 492 181.5 436.5 c 128,-1,29
 145 381 145 381 130.5 330.5 c 128,-1,30
 116 280 116 280 116 227 c 0,31,32
 116 170 116 170 136 136.5 c 128,-1,33
 156 103 156 103 195.5 84.5 c 128,-1,34
 235 66 235 66 294 55 c 0,35,36
 368 42 368 42 403.5 17.5 c 128,-1,37
 439 -7 439 -7 439 -59 c 0,0,1
EndSplineSet
EndChar

StartChar: eta
Encoding: 951 951 387
Width: 596
GlyphClass: 2
Flags: W
AnchorPoint: "Anchor-2" 306 532 basechar 0
AnchorPoint: "Anchor-0" 298 -240 basechar 0
LayerCount: 2
Fore
SplineSet
326 542 m 0,0,1
 417 542 417 542 465 495 c 128,-1,2
 513 448 513 448 513 348 c 2,3,-1
 513 -240 l 1,4,-1
 456 -240 l 1,5,-1
 456 344 l 2,6,7
 456 420 456 420 422 456 c 128,-1,8
 388 492 388 492 320 492 c 0,9,10
 144 492 144 492 144 290 c 2,11,-1
 144 0 l 1,12,-1
 88 0 l 1,13,-1
 88 532 l 1,14,-1
 134 532 l 1,15,-1
 142 440 l 1,16,-1
 146 440 l 1,17,18
 167 484 167 484 212.5 513 c 128,-1,19
 258 542 258 542 326 542 c 0,0,1
EndSplineSet
EndChar

StartChar: theta
Encoding: 952 952 388
Width: 575
GlyphClass: 2
Flags: W
AnchorPoint: "Anchor-3" 505 770 basechar 0
AnchorPoint: "Anchor-2" 288 770 basechar 0
AnchorPoint: "Anchor-0" 288 0 basechar 0
LayerCount: 2
Fore
SplineSet
520 386 m 0,0,1
 520 191 520 191 463 90.5 c 128,-1,2
 406 -10 406 -10 286 -10 c 0,3,4
 170 -10 170 -10 113 90 c 128,-1,5
 56 190 56 190 56 384 c 0,6,7
 56 573 56 573 112.5 671.5 c 128,-1,8
 169 770 169 770 287 770 c 0,9,10
 403 770 403 770 461.5 672 c 128,-1,11
 520 574 520 574 520 386 c 0,0,1
287 722 m 0,12,13
 121 722 121 722 113 416 c 1,14,-1
 460 416 l 1,15,16
 457 568 457 568 415 645 c 128,-1,17
 373 722 373 722 287 722 c 0,12,13
286 38 m 0,18,19
 374 38 374 38 416.5 120 c 128,-1,20
 459 202 459 202 462 366 c 1,21,-1
 113 366 l 1,22,23
 115 202 115 202 157 120 c 128,-1,24
 199 38 199 38 286 38 c 0,18,19
EndSplineSet
EndChar

StartChar: iota
Encoding: 953 953 389
Width: 315
GlyphClass: 2
Flags: W
AnchorPoint: "Anchor-2" 112 532 basechar 0
AnchorPoint: "Anchor-0" 190 0 basechar 0
LayerCount: 2
Fore
SplineSet
138 532 m 1,0,-1
 138 150 l 2,1,2
 138 92 138 92 160 65 c 128,-1,3
 182 38 182 38 229 38 c 0,4,5
 248 38 248 38 267 41 c 128,-1,6
 286 44 286 44 298 47 c 1,7,-1
 298 1 l 1,8,9
 286 -4 286 -4 264.5 -7 c 128,-1,10
 243 -10 243 -10 222 -10 c 0,11,12
 157 -10 157 -10 119 24.5 c 128,-1,13
 81 59 81 59 81 146 c 2,14,-1
 81 532 l 1,15,-1
 138 532 l 1,0,-1
EndSplineSet
EndChar

StartChar: lambda
Encoding: 955 955 391
Width: 511
GlyphClass: 2
Flags: W
AnchorPoint: "Anchor-2" 256 766 basechar 0
AnchorPoint: "Anchor-0" 256 0 basechar 0
LayerCount: 2
Fore
SplineSet
-6 0 m 1,0,-1
 224 532 l 1,1,-1
 193 624 l 2,2,3
 176 674 176 674 155.5 695.5 c 128,-1,4
 135 717 135 717 96 717 c 0,5,6
 81 717 81 717 68.5 715 c 128,-1,7
 56 713 56 713 46 710 c 1,8,-1
 46 758 l 1,9,10
 58 761 58 761 72.5 763.5 c 128,-1,11
 87 766 87 766 104 766 c 0,12,13
 144 766 144 766 170.5 752.5 c 128,-1,14
 197 739 197 739 215 708.5 c 128,-1,15
 233 678 233 678 250 629 c 2,16,-1
 438 90 l 2,17,18
 448 62 448 62 459.5 50.5 c 128,-1,19
 471 39 471 39 487 39 c 0,20,21
 495 39 495 39 502.5 40.5 c 128,-1,22
 510 42 510 42 514 44 c 1,23,-1
 514 -1 l 1,24,25
 498 -9 498 -9 472 -9 c 0,26,27
 440 -9 440 -9 421.5 8.5 c 128,-1,28
 403 26 403 26 390 63 c 2,29,-1
 290 351 l 2,30,31
 280 381 280 381 268.5 413.5 c 128,-1,32
 257 446 257 446 252 470 c 1,33,-1
 248 470 l 1,34,35
 240 443 240 443 229.5 414 c 128,-1,36
 219 385 219 385 207 357 c 2,37,-1
 54 0 l 1,38,-1
 -6 0 l 1,0,-1
EndSplineSet
EndChar

StartChar: nu
Encoding: 957 957 393
Width: 520
GlyphClass: 2
Flags: W
AnchorPoint: "Anchor-2" 260 532 basechar 0
AnchorPoint: "Anchor-0" 260 0 basechar 0
LayerCount: 2
Fore
SplineSet
0 532 m 1,0,-1
 59 532 l 1,1,-1
 198 156 l 2,2,3
 207 134 207 134 217.5 103 c 128,-1,4
 228 72 228 72 234 52 c 1,5,-1
 237 52 l 1,6,7
 334 143 334 143 379.5 259.5 c 128,-1,8
 425 376 425 376 425 532 c 1,9,-1
 482 532 l 1,10,11
 482 422 482 422 459 329 c 128,-1,12
 436 236 436 236 386.5 155.5 c 128,-1,13
 337 75 337 75 258 0 c 1,14,-1
 198 0 l 1,15,-1
 0 532 l 1,0,-1
EndSplineSet
EndChar

StartChar: xi
Encoding: 958 958 394
Width: 462
GlyphClass: 2
Flags: W
AnchorPoint: "Anchor-2" 232 760 basechar 0
AnchorPoint: "Anchor-0" 232 -196 basechar 0
LayerCount: 2
Fore
SplineSet
56 208 m 0,0,1
 56 286 56 286 100.5 333.5 c 128,-1,2
 145 381 145 381 208 398 c 1,3,-1
 208 402 l 1,4,5
 152 414 152 414 121 448 c 128,-1,6
 90 482 90 482 90 543 c 0,7,8
 90 594 90 594 111.5 628 c 128,-1,9
 133 662 133 662 168.5 683 c 128,-1,10
 204 704 204 704 246 715 c 1,11,12
 232 714 232 714 202 712.5 c 128,-1,13
 172 711 172 711 128 711 c 2,14,-1
 88 711 l 1,15,-1
 88 760 l 1,16,-1
 419 760 l 1,17,-1
 419 714 l 1,18,-1
 389 714 l 2,19,20
 345 714 345 714 302 704.5 c 128,-1,21
 259 695 259 695 223.5 674 c 128,-1,22
 188 653 188 653 167 621 c 128,-1,23
 146 589 146 589 146 544 c 0,24,25
 146 483 146 483 188.5 453.5 c 128,-1,26
 231 424 231 424 325 424 c 2,27,-1
 400 424 l 1,28,-1
 400 378 l 1,29,-1
 324 378 l 2,30,31
 230 378 230 378 173 334 c 128,-1,32
 116 290 116 290 116 212 c 0,33,34
 116 158 116 158 137.5 128.5 c 128,-1,35
 159 99 159 99 198.5 83.5 c 128,-1,36
 238 68 238 68 292 56 c 0,37,38
 370 40 370 40 403 14.5 c 128,-1,39
 436 -11 436 -11 436 -59 c 0,40,41
 436 -94 436 -94 420 -128.5 c 128,-1,42
 404 -163 404 -163 382 -196 c 1,43,-1
 326 -196 l 1,44,45
 352 -158 352 -158 367 -126.5 c 128,-1,46
 382 -95 382 -95 382 -70 c 0,47,48
 382 -50 382 -50 372 -35.5 c 128,-1,49
 362 -21 362 -21 334 -10.5 c 128,-1,50
 306 0 306 0 252 11 c 0,51,52
 158 28 158 28 107 74 c 128,-1,53
 56 120 56 120 56 208 c 0,0,1
EndSplineSet
EndChar

StartChar: pi
Encoding: 960 960 396
Width: 622
GlyphClass: 2
Flags: W
AnchorPoint: "Anchor-2" 311 532 basechar 0
AnchorPoint: "Anchor-0" 311 0 basechar 0
LayerCount: 2
Fore
SplineSet
540 38 m 0,0,1
 554 38 554 38 564 40.5 c 128,-1,2
 574 43 574 43 582 46 c 1,3,-1
 582 -1 l 1,4,5
 574 -4 574 -4 560 -7 c 128,-1,6
 546 -10 546 -10 527 -10 c 0,7,8
 428 -10 428 -10 428 105 c 2,9,-1
 428 484 l 1,10,-1
 176 484 l 1,11,-1
 176 0 l 1,12,-1
 120 0 l 1,13,-1
 120 484 l 1,14,-1
 12 484 l 1,15,-1
 12 514 l 1,16,-1
 91 532 l 1,17,-1
 592 532 l 1,18,-1
 592 484 l 1,19,-1
 485 484 l 1,20,-1
 485 112 l 2,21,22
 485 38 485 38 540 38 c 0,0,1
EndSplineSet
EndChar

StartChar: rho
Encoding: 961 961 397
Width: 588
GlyphClass: 2
Flags: W
AnchorPoint: "Anchor-2" 294 532 basechar 0
AnchorPoint: "Anchor-0" 294 -240 basechar 0
LayerCount: 2
Fore
SplineSet
531 267 m 0,0,1
 531 134 531 134 471 62 c 128,-1,2
 411 -10 411 -10 302 -10 c 0,3,4
 252 -10 252 -10 211 4 c 128,-1,5
 170 18 170 18 142 40 c 1,6,-1
 138 40 l 1,7,8
 140 15 140 15 141 -14.5 c 128,-1,9
 142 -44 142 -44 142 -80 c 2,10,-1
 142 -240 l 1,11,-1
 84 -240 l 1,12,-1
 84 280 l 2,13,14
 84 410 84 410 143 476 c 128,-1,15
 202 542 202 542 310 542 c 0,16,17
 414 542 414 542 472.5 472 c 128,-1,18
 531 402 531 402 531 267 c 0,0,1
308 492 m 256,19,20
 222 492 222 492 182 437 c 128,-1,21
 142 382 142 382 142 275 c 2,22,-1
 142 94 l 1,23,24
 173 68 173 68 214 53.5 c 128,-1,25
 255 39 255 39 302 39 c 0,26,27
 472 39 472 39 472 267 c 0,28,29
 472 379 472 379 433 435.5 c 128,-1,30
 394 492 394 492 308 492 c 256,19,20
EndSplineSet
EndChar

StartChar: sigma1
Encoding: 962 962 398
Width: 477
GlyphClass: 2
Flags: W
AnchorPoint: "Anchor-2" 238 532 basechar 0
AnchorPoint: "Anchor-0" 238 -196 basechar 0
LayerCount: 2
Fore
SplineSet
309 542 m 0,0,1
 347 542 347 542 382 535 c 128,-1,2
 417 528 417 528 444 517 c 1,3,-1
 428 468 l 1,4,5
 401 478 401 478 370 484.5 c 128,-1,6
 339 491 339 491 306 491 c 0,7,8
 210 491 210 491 163 432 c 128,-1,9
 116 373 116 373 116 261 c 0,10,11
 116 200 116 200 132 160 c 128,-1,12
 148 120 148 120 187 95.5 c 128,-1,13
 226 71 226 71 295 57 c 0,14,15
 369 41 369 41 403.5 16.5 c 128,-1,16
 438 -8 438 -8 438 -58 c 0,17,18
 438 -97 438 -97 420.5 -132.5 c 128,-1,19
 403 -168 403 -168 382 -196 c 1,20,-1
 325 -196 l 1,21,22
 350 -162 350 -162 366 -129 c 128,-1,23
 382 -96 382 -96 382 -68 c 0,24,25
 382 -46 382 -46 371.5 -32 c 128,-1,26
 361 -18 361 -18 333.5 -8 c 128,-1,27
 306 2 306 2 256 12 c 0,28,29
 160 30 160 30 108.5 89 c 128,-1,30
 57 148 57 148 57 260 c 0,31,32
 57 400 57 400 124.5 471 c 128,-1,33
 192 542 192 542 309 542 c 0,0,1
EndSplineSet
EndChar

StartChar: sigma
Encoding: 963 963 399
Width: 593
GlyphClass: 2
Flags: W
AnchorPoint: "Anchor-2" 297 532 basechar 0
AnchorPoint: "Anchor-0" 297 0 basechar 0
LayerCount: 2
Fore
SplineSet
530 249 m 0,0,1
 530 172 530 172 502.5 114 c 128,-1,2
 475 56 475 56 421.5 23 c 128,-1,3
 368 -10 368 -10 290 -10 c 0,4,5
 179 -10 179 -10 118 60 c 128,-1,6
 57 130 57 130 57 252 c 0,7,8
 57 392 57 392 130.5 462 c 128,-1,9
 204 532 204 532 344 532 c 2,10,-1
 569 532 l 1,11,-1
 569 483 l 1,12,-1
 442 483 l 1,13,14
 482 436 482 436 506 379.5 c 128,-1,15
 530 323 530 323 530 249 c 0,0,1
116 252 m 0,16,17
 116 190 116 190 134.5 142 c 128,-1,18
 153 94 153 94 192 66.5 c 128,-1,19
 231 39 231 39 292 39 c 0,20,21
 382 39 382 39 426.5 96.5 c 128,-1,22
 471 154 471 154 471 248 c 0,23,24
 471 320 471 320 448.5 377 c 128,-1,25
 426 434 426 434 384 483 c 1,26,-1
 344 483 l 2,27,28
 227 483 227 483 171.5 425.5 c 128,-1,29
 116 368 116 368 116 252 c 0,16,17
EndSplineSet
EndChar

StartChar: tau
Encoding: 964 964 400
Width: 452
GlyphClass: 2
Flags: W
AnchorPoint: "Anchor-2" 226 532 basechar 0
AnchorPoint: "Anchor-0" 226 0 basechar 0
LayerCount: 2
Fore
SplineSet
422 532 m 1,0,-1
 422 482 l 1,1,-1
 212 482 l 1,2,-1
 212 159 l 2,3,4
 212 96 212 96 237 66.5 c 128,-1,5
 262 37 262 37 315 37 c 0,6,7
 335 37 335 37 357.5 40.5 c 128,-1,8
 380 44 380 44 396 49 c 1,9,-1
 396 4 l 1,10,11
 381 -2 381 -2 357 -6 c 128,-1,12
 333 -10 333 -10 307 -10 c 0,13,14
 236 -10 236 -10 195.5 28 c 128,-1,15
 155 66 155 66 155 152 c 2,16,-1
 155 482 l 1,17,-1
 10 482 l 1,18,-1
 10 514 l 1,19,-1
 83 532 l 1,20,-1
 422 532 l 1,0,-1
EndSplineSet
EndChar

StartChar: upsilon
Encoding: 965 965 401
Width: 598
GlyphClass: 2
Flags: W
AnchorPoint: "Anchor-2" 300 532 basechar 0
AnchorPoint: "Anchor-0" 300 0 basechar 0
LayerCount: 2
Fore
SplineSet
296 -10 m 0,0,1
 180 -10 180 -10 130 56 c 128,-1,2
 80 122 80 122 80 237 c 2,3,-1
 80 532 l 1,4,-1
 138 532 l 1,5,-1
 138 240 l 2,6,7
 138 38 138 38 301 38 c 0,8,9
 478 38 478 38 478 294 c 0,10,11
 478 358 478 358 471 416 c 128,-1,12
 464 474 464 474 448 532 c 1,13,-1
 506 532 l 1,14,15
 521 474 521 474 528.5 417 c 128,-1,16
 536 360 536 360 536 292 c 0,17,18
 536 -10 536 -10 296 -10 c 0,0,1
EndSplineSet
EndChar

StartChar: phi
Encoding: 966 966 402
Width: 688
GlyphClass: 2
Flags: W
AnchorPoint: "Anchor-2" 344 532 basechar 0
AnchorPoint: "Anchor-0" 344 -240 basechar 0
LayerCount: 2
Fore
SplineSet
158 538 m 1,0,-1
 203 508 l 1,1,2
 162 458 162 458 138 401.5 c 128,-1,3
 114 345 114 345 114 270 c 0,4,5
 114 157 114 157 166.5 100.5 c 128,-1,6
 219 44 219 44 311 38 c 1,7,-1
 311 365 l 2,8,9
 311 451 311 451 347 496.5 c 128,-1,10
 383 542 383 542 452 542 c 0,11,12
 538 542 538 542 584 471.5 c 128,-1,13
 630 401 630 401 630 284 c 0,14,15
 630 194 630 194 596.5 129.5 c 128,-1,16
 563 65 563 65 504 29.5 c 128,-1,17
 445 -6 445 -6 368 -10 c 1,18,-1
 368 -240 l 1,19,-1
 311 -240 l 1,20,-1
 311 -10 l 1,21,22
 190 -4 190 -4 123.5 66 c 128,-1,23
 57 136 57 136 57 270 c 0,24,25
 57 353 57 353 85 418.5 c 128,-1,26
 113 484 113 484 158 538 c 1,0,-1
453 493 m 0,27,28
 367 493 367 493 367 366 c 2,29,-1
 367 38 l 1,30,31
 460 43 460 43 516 107 c 128,-1,32
 572 171 572 171 572 282 c 0,33,34
 572 381 572 381 540 437 c 128,-1,35
 508 493 508 493 453 493 c 0,27,28
EndSplineSet
EndChar

StartChar: chi
Encoding: 967 967 403
Width: 522
GlyphClass: 2
Flags: W
AnchorPoint: "Anchor-3" 502 532 basechar 0
AnchorPoint: "Anchor-2" 261 532 basechar 0
AnchorPoint: "Anchor-0" 261 -240 basechar 0
LayerCount: 2
Fore
SplineSet
72 538 m 0,0,1
 110 538 110 538 130.5 514 c 128,-1,2
 151 490 151 490 168 445 c 2,3,-1
 260 214 l 1,4,-1
 424 532 l 1,5,-1
 486 532 l 1,6,-1
 286 159 l 1,7,-1
 388 -100 l 2,8,9
 408 -150 408 -150 425 -171 c 128,-1,10
 442 -192 442 -192 474 -192 c 0,11,12
 486 -192 486 -192 495.5 -190.5 c 128,-1,13
 505 -189 505 -189 513 -187 c 1,14,-1
 513 -233 l 1,15,16
 504 -235 504 -235 492 -237.5 c 128,-1,17
 480 -240 480 -240 464 -240 c 0,18,19
 412 -240 412 -240 386 -210.5 c 128,-1,20
 360 -181 360 -181 338 -124 c 2,21,-1
 248 108 l 1,22,-1
 66 -240 l 1,23,-1
 5 -240 l 1,24,-1
 220 165 l 1,25,-1
 120 422 l 2,26,27
 106 456 106 456 91.5 473 c 128,-1,28
 77 490 77 490 56 490 c 0,29,30
 36 490 36 490 20 484 c 1,31,-1
 20 530 l 1,32,33
 29 533 29 533 42 535.5 c 128,-1,34
 55 538 55 538 72 538 c 0,0,1
EndSplineSet
EndChar

StartChar: psi
Encoding: 968 968 404
Width: 729
GlyphClass: 2
Flags: W
AnchorPoint: "Anchor-2" 365 759 basechar 0
AnchorPoint: "Anchor-0" 365 -240 basechar 0
LayerCount: 2
Fore
SplineSet
394 759 m 1,0,-1
 394 42 l 1,1,2
 500 48 500 48 554 111.5 c 128,-1,3
 608 175 608 175 608 292 c 0,4,5
 608 359 608 359 600 414.5 c 128,-1,6
 592 470 592 470 576 532 c 1,7,-1
 633 532 l 1,8,9
 649 473 649 473 657 416.5 c 128,-1,10
 665 360 665 360 665 293 c 0,11,12
 665 150 665 150 594.5 75 c 128,-1,13
 524 0 524 0 394 -7 c 1,14,-1
 394 -240 l 1,15,-1
 338 -240 l 1,16,-1
 338 -7 l 1,17,18
 214 -2 214 -2 147 65.5 c 128,-1,19
 80 133 80 133 80 268 c 2,20,-1
 80 532 l 1,21,-1
 136 532 l 1,22,-1
 136 268 l 2,23,24
 136 156 136 156 189 101 c 128,-1,25
 242 46 242 46 338 42 c 1,26,-1
 338 759 l 1,27,-1
 394 759 l 1,0,-1
EndSplineSet
EndChar

StartChar: omega
Encoding: 969 969 405
Width: 744
GlyphClass: 2
Flags: W
AnchorPoint: "Anchor-2" 371 532 basechar 0
AnchorPoint: "Anchor-0" 372 0 basechar 0
LayerCount: 2
Fore
SplineSet
625 532 m 1,0,1
 655 465 655 465 670.5 399.5 c 128,-1,2
 686 334 686 334 686 256 c 0,3,4
 686 182 686 182 668 121.5 c 128,-1,5
 650 61 650 61 610.5 25.5 c 128,-1,6
 571 -10 571 -10 508 -10 c 0,7,8
 452 -10 452 -10 419.5 15.5 c 128,-1,9
 387 41 387 41 373 86 c 1,10,-1
 370 86 l 1,11,12
 356 41 356 41 322 15.5 c 128,-1,13
 288 -10 288 -10 235 -10 c 0,14,15
 150 -10 150 -10 103.5 59.5 c 128,-1,16
 57 129 57 129 57 256 c 0,17,18
 57 336 57 336 72.5 400 c 128,-1,19
 88 464 88 464 118 532 c 1,20,-1
 177 532 l 1,21,22
 146 463 146 463 130 398 c 128,-1,23
 114 333 114 333 114 255 c 0,24,25
 114 147 114 147 147 93 c 128,-1,26
 180 39 180 39 240 39 c 0,27,28
 292 39 292 39 318 77 c 128,-1,29
 344 115 344 115 344 182 c 2,30,-1
 344 341 l 1,31,-1
 400 341 l 1,32,-1
 400 182 l 2,33,34
 400 113 400 113 426 76 c 128,-1,35
 452 39 452 39 504 39 c 0,36,37
 566 39 566 39 597.5 95 c 128,-1,38
 629 151 629 151 629 255 c 0,39,40
 629 332 629 332 613.5 397.5 c 128,-1,41
 598 463 598 463 566 532 c 1,42,-1
 625 532 l 1,0,1
EndSplineSet
EndChar

StartChar: afii10051
Encoding: 1026 1026 412
Width: 705
GlyphClass: 2
Flags: W
AnchorPoint: "Anchor-2" 353 714 basechar 0
AnchorPoint: "Anchor-0" 353 0 basechar 0
LayerCount: 2
Fore
SplineSet
454 -10 m 0,0,1
 406 -10 406 -10 384 -1 c 1,2,-1
 384 52 l 1,3,4
 411 42 411 42 452 42 c 0,5,6
 502 42 502 42 534 74.5 c 128,-1,7
 566 107 566 107 566 176 c 2,8,-1
 566 247 l 2,9,10
 566 315 566 315 534 347 c 128,-1,11
 502 379 502 379 426 379 c 2,12,-1
 228 379 l 1,13,-1
 228 0 l 1,14,-1
 170 0 l 1,15,-1
 170 662 l 1,16,-1
 6 662 l 1,17,-1
 6 714 l 1,18,-1
 473 714 l 1,19,-1
 473 662 l 1,20,-1
 228 662 l 1,21,-1
 228 431 l 1,22,-1
 434 431 l 2,23,24
 624 431 624 431 624 254 c 2,25,-1
 624 178 l 2,26,27
 624 89 624 89 578 39.5 c 128,-1,28
 532 -10 532 -10 454 -10 c 0,0,1
EndSplineSet
EndChar

StartChar: afii10053
Encoding: 1028 1028 414
Width: 626
GlyphClass: 2
Flags: W
AnchorPoint: "Anchor-2" 313 714 basechar 0
AnchorPoint: "Anchor-0" 313 0 basechar 0
LayerCount: 2
Fore
SplineSet
406 672 m 0,0,1
 280 672 280 672 206.5 597 c 128,-1,2
 133 522 133 522 124 395 c 1,3,-1
 498 395 l 1,4,-1
 498 344 l 1,5,-1
 123 344 l 1,6,7
 126 204 126 204 194 123 c 128,-1,8
 262 42 262 42 396 42 c 0,9,10
 450 42 450 42 494.5 50 c 128,-1,11
 539 58 539 58 578 70 c 1,12,-1
 578 20 l 1,13,14
 541 6 541 6 494.5 -2 c 128,-1,15
 448 -10 448 -10 390 -10 c 0,16,17
 279 -10 279 -10 206.5 36 c 128,-1,18
 134 82 134 82 98 165 c 128,-1,19
 62 248 62 248 62 359 c 0,20,21
 62 466 62 466 102.5 548.5 c 128,-1,22
 143 631 143 631 220 677.5 c 128,-1,23
 297 724 297 724 407 724 c 0,24,25
 463 724 463 724 510.5 714 c 128,-1,26
 558 704 558 704 598 684 c 1,27,-1
 575 633 l 1,28,29
 536 653 536 653 494 662.5 c 128,-1,30
 452 672 452 672 406 672 c 0,0,1
EndSplineSet
EndChar

StartChar: afii10058
Encoding: 1033 1033 419
Width: 932
GlyphClass: 2
Flags: W
AnchorPoint: "Anchor-2" 466 714 basechar 0
AnchorPoint: "Anchor-0" 466 0 basechar 0
LayerCount: 2
Fore
SplineSet
56 -11 m 0,0,1
 39 -11 39 -11 24.5 -8.5 c 128,-1,2
 10 -6 10 -6 -2 -1 c 1,3,-1
 -2 50 l 1,4,5
 10 45 10 45 23 42 c 128,-1,6
 36 39 36 39 52 39 c 0,7,8
 85 39 85 39 105 64.5 c 128,-1,9
 125 90 125 90 137.5 134 c 128,-1,10
 150 178 150 178 160 231 c 0,11,12
 172 298 172 298 184 379.5 c 128,-1,13
 196 461 196 461 207 546.5 c 128,-1,14
 218 632 218 632 228 714 c 1,15,-1
 530 714 l 1,16,-1
 530 402 l 1,17,-1
 630 402 l 2,18,19
 762 402 762 402 824 353 c 128,-1,20
 886 304 886 304 886 206 c 256,21,22
 886 108 886 108 825 54 c 128,-1,23
 764 0 764 0 643 0 c 2,24,-1
 472 0 l 1,25,-1
 472 662 l 1,26,-1
 278 662 l 1,27,28
 270 593 270 593 260 514 c 128,-1,29
 250 435 250 435 238 357.5 c 128,-1,30
 226 280 226 280 214 216 c 0,31,32
 201 148 201 148 183 96.5 c 128,-1,33
 165 45 165 45 135.5 17 c 128,-1,34
 106 -11 106 -11 56 -11 c 0,0,1
530 51 m 1,35,-1
 634 51 l 2,36,37
 732 51 732 51 779 88.5 c 128,-1,38
 826 126 826 126 826 206 c 0,39,40
 826 290 826 290 773.5 320.5 c 128,-1,41
 721 351 721 351 622 351 c 2,42,-1
 530 351 l 1,43,-1
 530 51 l 1,35,-1
EndSplineSet
EndChar

StartChar: afii10059
Encoding: 1034 1034 420
Width: 958
GlyphClass: 2
Flags: W
AnchorPoint: "Anchor-2" 479 714 basechar 0
AnchorPoint: "Anchor-0" 479 0 basechar 0
LayerCount: 2
Fore
SplineSet
100 0 m 1,0,-1
 100 714 l 1,1,-1
 158 714 l 1,2,-1
 158 402 l 1,3,-1
 498 402 l 1,4,-1
 498 714 l 1,5,-1
 556 714 l 1,6,-1
 556 402 l 1,7,-1
 656 402 l 2,8,9
 788 402 788 402 849.5 353 c 128,-1,10
 911 304 911 304 911 206 c 256,11,12
 911 108 911 108 850.5 54 c 128,-1,13
 790 0 790 0 669 0 c 2,14,-1
 498 0 l 1,15,-1
 498 350 l 1,16,-1
 158 350 l 1,17,-1
 158 0 l 1,18,-1
 100 0 l 1,0,-1
556 51 m 1,19,-1
 660 51 l 2,20,21
 758 51 758 51 804.5 88.5 c 128,-1,22
 851 126 851 126 851 206 c 0,23,24
 851 290 851 290 798.5 320.5 c 128,-1,25
 746 351 746 351 648 351 c 2,26,-1
 556 351 l 1,27,-1
 556 51 l 1,19,-1
EndSplineSet
EndChar

StartChar: afii10060
Encoding: 1035 1035 421
Width: 706
GlyphClass: 2
Flags: W
AnchorPoint: "Anchor-2" 354 714 basechar 0
AnchorPoint: "Anchor-0" 354 0 basechar 0
LayerCount: 2
Fore
SplineSet
489 714 m 1,0,-1
 489 662 l 1,1,-1
 228 662 l 1,2,-1
 228 430 l 1,3,-1
 443 430 l 2,4,5
 534 430 534 430 579 388 c 128,-1,6
 624 346 624 346 624 254 c 2,7,-1
 624 0 l 1,8,-1
 566 0 l 1,9,-1
 566 248 l 2,10,11
 566 317 566 317 536.5 347.5 c 128,-1,12
 507 378 507 378 436 378 c 2,13,-1
 228 378 l 1,14,-1
 228 0 l 1,15,-1
 170 0 l 1,16,-1
 170 662 l 1,17,-1
 6 662 l 1,18,-1
 6 714 l 1,19,-1
 489 714 l 1,0,-1
EndSplineSet
EndChar

StartChar: afii10145
Encoding: 1039 1039 424
Width: 718
GlyphClass: 2
Flags: W
AnchorPoint: "Anchor-2" 359 714 basechar 0
AnchorPoint: "Anchor-0" 359 -182 basechar 0
LayerCount: 2
Fore
SplineSet
616 0 m 1,0,-1
 387 0 l 1,1,-1
 387 -182 l 1,2,-1
 328 -182 l 1,3,-1
 328 0 l 1,4,-1
 100 0 l 1,5,-1
 100 714 l 1,6,-1
 158 714 l 1,7,-1
 158 52 l 1,8,-1
 559 52 l 1,9,-1
 559 714 l 1,10,-1
 616 714 l 1,11,-1
 616 0 l 1,0,-1
EndSplineSet
EndChar

StartChar: afii10018
Encoding: 1041 1041 426
Width: 599
GlyphClass: 2
Flags: W
AnchorPoint: "Anchor-2" 300 714 basechar 0
AnchorPoint: "Anchor-0" 300 0 basechar 0
LayerCount: 2
Fore
SplineSet
100 0 m 1,0,-1
 100 714 l 1,1,-1
 504 714 l 1,2,-1
 504 662 l 1,3,-1
 158 662 l 1,4,-1
 158 402 l 1,5,-1
 286 402 l 2,6,7
 420 402 420 402 479 353.5 c 128,-1,8
 538 305 538 305 538 206 c 0,9,10
 538 106 538 106 479.5 53 c 128,-1,11
 421 0 421 0 298 0 c 2,12,-1
 100 0 l 1,0,-1
158 51 m 1,13,-1
 290 51 l 2,14,15
 389 51 389 51 433.5 88.5 c 128,-1,16
 478 126 478 126 478 206 c 0,17,18
 478 290 478 290 428 320.5 c 128,-1,19
 378 351 378 351 278 351 c 2,20,-1
 158 351 l 1,21,-1
 158 51 l 1,13,-1
EndSplineSet
EndChar

StartChar: afii10021
Encoding: 1044 1044 429
Width: 660
GlyphClass: 2
Flags: W
AnchorPoint: "Anchor-2" 330 714 basechar 0
AnchorPoint: "Anchor-0" 330 -182 basechar 0
LayerCount: 2
Fore
SplineSet
556 714 m 1,0,-1
 556 52 l 1,1,-1
 632 52 l 1,2,-1
 632 -182 l 1,3,-1
 576 -182 l 1,4,-1
 576 0 l 1,5,-1
 63 0 l 1,6,-1
 63 -182 l 1,7,-1
 7 -182 l 1,8,-1
 7 52 l 1,9,-1
 59 52 l 1,10,11
 96 116 96 116 128.5 197 c 128,-1,12
 161 278 161 278 186 367 c 128,-1,13
 211 456 211 456 226.5 545 c 128,-1,14
 242 634 242 634 245 714 c 1,15,-1
 556 714 l 1,0,-1
498 661 m 1,16,-1
 297 661 l 1,17,18
 293 592 293 592 277.5 511 c 128,-1,19
 262 430 262 430 238.5 347 c 128,-1,20
 215 264 215 264 185 188 c 128,-1,21
 155 112 155 112 121 52 c 1,22,-1
 498 52 l 1,23,-1
 498 661 l 1,16,-1
EndSplineSet
EndChar

StartChar: afii10024
Encoding: 1046 1046 431
Width: 795
GlyphClass: 2
Flags: W
AnchorPoint: "Anchor-2" 398 714 basechar 0
AnchorPoint: "Anchor-0" 398 0 basechar 0
LayerCount: 2
Fore
SplineSet
306 366 m 1,0,-1
 18 714 l 1,1,-1
 85 714 l 1,2,-1
 369 368 l 1,3,-1
 369 714 l 1,4,-1
 425 714 l 1,5,-1
 425 368 l 1,6,-1
 710 714 l 1,7,-1
 776 714 l 1,8,-1
 488 366 l 1,9,-1
 788 0 l 1,10,-1
 720 0 l 1,11,-1
 425 362 l 1,12,-1
 425 0 l 1,13,-1
 369 0 l 1,14,-1
 369 362 l 1,15,-1
 74 0 l 1,16,-1
 6 0 l 1,17,-1
 306 366 l 1,0,-1
EndSplineSet
EndChar

StartChar: afii10025
Encoding: 1047 1047 432
Width: 565
GlyphClass: 2
Flags: W
AnchorPoint: "Anchor-2" 279 714 basechar 0
AnchorPoint: "Anchor-0" 282 0 basechar 0
LayerCount: 2
Fore
SplineSet
496 546 m 0,0,1
 496 471 496 471 454.5 429.5 c 128,-1,2
 413 388 413 388 346 375 c 1,3,-1
 346 372 l 1,4,5
 426 358 426 358 468 315 c 128,-1,6
 510 272 510 272 510 198 c 0,7,8
 510 104 510 104 442.5 47 c 128,-1,9
 375 -10 375 -10 246 -10 c 0,10,11
 186 -10 186 -10 133 0.5 c 128,-1,12
 80 11 80 11 40 32 c 1,13,-1
 40 87 l 1,14,15
 82 64 82 64 137 51.5 c 128,-1,16
 192 39 192 39 245 39 c 0,17,18
 344 39 344 39 396.5 81 c 128,-1,19
 449 123 449 123 449 198 c 0,20,21
 449 274 449 274 392.5 310 c 128,-1,22
 336 346 336 346 228 346 c 2,23,-1
 122 346 l 1,24,-1
 122 396 l 1,25,-1
 230 396 l 2,26,27
 334 396 334 396 385 434.5 c 128,-1,28
 436 473 436 473 436 541 c 0,29,30
 436 604 436 604 392 639 c 128,-1,31
 348 674 348 674 274 674 c 0,32,33
 208 674 208 674 163 656 c 128,-1,34
 118 638 118 638 75 609 c 1,35,-1
 46 650 l 1,36,37
 89 682 89 682 145 703 c 128,-1,38
 201 724 201 724 275 724 c 0,39,40
 380 724 380 724 438 675 c 128,-1,41
 496 626 496 626 496 546 c 0,0,1
EndSplineSet
EndChar

StartChar: afii10026
Encoding: 1048 1048 433
Width: 730
GlyphClass: 2
Flags: W
AnchorPoint: "Anchor-2" 371 714 basechar 0
AnchorPoint: "Anchor-0" 366 0 basechar 0
LayerCount: 2
Fore
SplineSet
100 714 m 1,0,-1
 156 714 l 1,1,-1
 156 228 l 2,2,3
 156 190 156 190 155 151 c 128,-1,4
 154 112 154 112 152 87 c 1,5,-1
 154 87 l 1,6,-1
 570 714 l 1,7,-1
 630 714 l 1,8,-1
 630 0 l 1,9,-1
 576 0 l 1,10,-1
 576 478 l 2,11,12
 576 521 576 521 577 562.5 c 128,-1,13
 578 604 578 604 580 628 c 1,14,-1
 577 628 l 1,15,-1
 162 0 l 1,16,-1
 100 0 l 1,17,-1
 100 714 l 1,0,-1
EndSplineSet
EndChar

StartChar: afii10028
Encoding: 1050 1050 435
Width: 581
GlyphClass: 2
Flags: W
AnchorPoint: "Anchor-2" 304 714 basechar 0
AnchorPoint: "Anchor-0" 290 0 basechar 0
LayerCount: 2
Fore
SplineSet
578 0 m 1,0,-1
 505 0 l 1,1,-1
 158 364 l 1,2,-1
 158 0 l 1,3,-1
 100 0 l 1,4,-1
 100 714 l 1,5,-1
 158 714 l 1,6,-1
 158 368 l 1,7,-1
 496 714 l 1,8,-1
 566 714 l 1,9,-1
 229 367 l 1,10,-1
 578 0 l 1,0,-1
EndSplineSet
EndChar

StartChar: afii10029
Encoding: 1051 1051 436
Width: 686
GlyphClass: 2
Flags: W
AnchorPoint: "Anchor-2" 344 714 basechar 0
AnchorPoint: "Anchor-0" 344 0 basechar 0
LayerCount: 2
Fore
SplineSet
586 0 m 1,0,-1
 528 0 l 1,1,-1
 528 662 l 1,2,-1
 276 662 l 1,3,4
 268 593 268 593 258.5 514 c 128,-1,5
 249 435 249 435 237.5 357.5 c 128,-1,6
 226 280 226 280 214 216 c 0,7,8
 201 148 201 148 183 96.5 c 128,-1,9
 165 45 165 45 135.5 17 c 128,-1,10
 106 -11 106 -11 56 -11 c 0,11,12
 39 -11 39 -11 24 -8.5 c 128,-1,13
 9 -6 9 -6 -2 -1 c 1,14,-1
 -2 50 l 1,15,16
 10 45 10 45 23 42 c 128,-1,17
 36 39 36 39 52 39 c 0,18,19
 85 39 85 39 105 65 c 128,-1,20
 125 91 125 91 137.5 134.5 c 128,-1,21
 150 178 150 178 160 230 c 0,22,23
 172 297 172 297 184 378.5 c 128,-1,24
 196 460 196 460 207 546 c 128,-1,25
 218 632 218 632 228 714 c 1,26,-1
 586 714 l 1,27,-1
 586 0 l 1,0,-1
EndSplineSet
EndChar

StartChar: afii10037
Encoding: 1059 1059 444
Width: 595
GlyphClass: 2
Flags: W
AnchorPoint: "Anchor-2" 304 714 basechar 0
AnchorPoint: "Anchor-0" 298 0 basechar 0
LayerCount: 2
Fore
SplineSet
594 714 m 1,0,-1
 348 171 l 2,1,2
 322 115 322 115 294.5 74 c 128,-1,3
 267 33 267 33 228.5 11.5 c 128,-1,4
 190 -10 190 -10 131 -10 c 0,5,6
 102 -10 102 -10 80 -5.5 c 128,-1,7
 58 -1 58 -1 42 5 c 1,8,-1
 42 63 l 1,9,10
 80 44 80 44 128 44 c 0,11,12
 190 44 190 44 223.5 78.5 c 128,-1,13
 257 113 257 113 287 181 c 1,14,-1
 9 714 l 1,15,-1
 73 714 l 1,16,-1
 290 294 l 2,17,18
 298 279 298 279 304 264.5 c 128,-1,19
 310 250 310 250 318 233 c 1,20,-1
 320 233 l 1,21,22
 324 247 324 247 331 262.5 c 128,-1,23
 338 278 338 278 344 292 c 2,24,-1
 532 714 l 1,25,-1
 594 714 l 1,0,-1
EndSplineSet
EndChar

StartChar: afii10040
Encoding: 1062 1062 447
Width: 724
GlyphClass: 2
Flags: W
AnchorPoint: "Anchor-2" 362 714 basechar 0
AnchorPoint: "Anchor-0" 362 -182 basechar 0
LayerCount: 2
Fore
SplineSet
695 52 m 1,0,-1
 695 -182 l 1,1,-1
 640 -182 l 1,2,-1
 640 0 l 1,3,-1
 100 0 l 1,4,-1
 100 714 l 1,5,-1
 158 714 l 1,6,-1
 158 52 l 1,7,-1
 560 52 l 1,8,-1
 560 714 l 1,9,-1
 617 714 l 1,10,-1
 617 52 l 1,11,-1
 695 52 l 1,0,-1
EndSplineSet
EndChar

StartChar: afii10041
Encoding: 1063 1063 448
Width: 676
GlyphClass: 2
Flags: W
AnchorPoint: "Anchor-2" 332 714 basechar 0
AnchorPoint: "Anchor-0" 338 0 basechar 0
LayerCount: 2
Fore
SplineSet
575 0 m 1,0,-1
 517 0 l 1,1,-1
 517 306 l 1,2,3
 464 285 464 285 412 271.5 c 128,-1,4
 360 258 360 258 293 258 c 0,5,6
 190 258 190 258 138.5 304 c 128,-1,7
 87 350 87 350 87 436 c 2,8,-1
 87 714 l 1,9,-1
 145 714 l 1,10,-1
 145 445 l 2,11,12
 145 379 145 379 180.5 344.5 c 128,-1,13
 216 310 216 310 298 310 c 0,14,15
 361 310 361 310 411.5 322 c 128,-1,16
 462 334 462 334 517 356 c 1,17,-1
 517 714 l 1,18,-1
 575 714 l 1,19,-1
 575 0 l 1,0,-1
EndSplineSet
EndChar

StartChar: afii10042
Encoding: 1064 1064 449
Width: 1012
GlyphClass: 2
Flags: W
AnchorPoint: "Anchor-2" 506 714 basechar 0
AnchorPoint: "Anchor-0" 506 0 basechar 0
LayerCount: 2
Fore
SplineSet
912 0 m 1,0,-1
 100 0 l 1,1,-1
 100 714 l 1,2,-1
 158 714 l 1,3,-1
 158 52 l 1,4,-1
 476 52 l 1,5,-1
 476 714 l 1,6,-1
 534 714 l 1,7,-1
 534 52 l 1,8,-1
 854 52 l 1,9,-1
 854 714 l 1,10,-1
 912 714 l 1,11,-1
 912 0 l 1,0,-1
EndSplineSet
EndChar

StartChar: afii10043
Encoding: 1065 1065 450
Width: 1020
GlyphClass: 2
Flags: W
AnchorPoint: "Anchor-2" 510 714 basechar 0
AnchorPoint: "Anchor-0" 510 0 basechar 0
LayerCount: 2
Fore
SplineSet
987 52 m 1,0,-1
 987 -182 l 1,1,-1
 931 -182 l 1,2,-1
 931 0 l 1,3,-1
 100 0 l 1,4,-1
 100 714 l 1,5,-1
 158 714 l 1,6,-1
 158 52 l 1,7,-1
 473 52 l 1,8,-1
 473 714 l 1,9,-1
 532 714 l 1,10,-1
 532 52 l 1,11,-1
 847 52 l 1,12,-1
 847 714 l 1,13,-1
 905 714 l 1,14,-1
 905 52 l 1,15,-1
 987 52 l 1,0,-1
EndSplineSet
EndChar

StartChar: afii10044
Encoding: 1066 1066 451
Width: 664
GlyphClass: 2
Flags: W
AnchorPoint: "Anchor-2" 332 714 basechar 0
AnchorPoint: "Anchor-0" 332 0 basechar 0
LayerCount: 2
Fore
SplineSet
174 0 m 1,0,-1
 174 662 l 1,1,-1
 5 662 l 1,2,-1
 5 714 l 1,3,-1
 231 714 l 1,4,-1
 231 402 l 1,5,-1
 362 402 l 2,6,7
 491 402 491 402 551.5 353 c 128,-1,8
 612 304 612 304 612 206 c 256,9,10
 612 108 612 108 552 54 c 128,-1,11
 492 0 492 0 374 0 c 2,12,-1
 174 0 l 1,0,-1
231 51 m 1,13,-1
 366 51 l 2,14,15
 460 51 460 51 506 88.5 c 128,-1,16
 552 126 552 126 552 206 c 0,17,18
 552 290 552 290 501 320.5 c 128,-1,19
 450 351 450 351 354 351 c 2,20,-1
 231 351 l 1,21,-1
 231 51 l 1,13,-1
EndSplineSet
EndChar

StartChar: afii10045
Encoding: 1067 1067 452
Width: 813
GlyphClass: 2
Flags: W
AnchorPoint: "Anchor-2" 408 714 basechar 0
AnchorPoint: "Anchor-0" 406 0 basechar 0
LayerCount: 2
Fore
SplineSet
100 0 m 1,0,-1
 100 714 l 1,1,-1
 158 714 l 1,2,-1
 158 402 l 1,3,-1
 288 402 l 2,4,5
 416 402 416 402 476 353 c 128,-1,6
 536 304 536 304 536 206 c 256,7,8
 536 108 536 108 477 54 c 128,-1,9
 418 0 418 0 299 0 c 2,10,-1
 100 0 l 1,0,-1
639 0 m 1,11,-1
 639 714 l 1,12,-1
 697 714 l 1,13,-1
 697 0 l 1,14,-1
 639 0 l 1,11,-1
158 50 m 1,15,-1
 292 50 l 2,16,17
 386 50 386 50 431 88 c 128,-1,18
 476 126 476 126 476 206 c 0,19,20
 476 290 476 290 425.5 320 c 128,-1,21
 375 350 375 350 280 350 c 2,22,-1
 158 350 l 1,23,-1
 158 50 l 1,15,-1
EndSplineSet
EndChar

StartChar: afii10046
Encoding: 1068 1068 453
Width: 604
GlyphClass: 2
Flags: W
AnchorPoint: "Anchor-2" 302 714 basechar 0
AnchorPoint: "Anchor-0" 302 0 basechar 0
LayerCount: 2
Fore
SplineSet
100 0 m 1,0,-1
 100 714 l 1,1,-1
 158 714 l 1,2,-1
 158 402 l 1,3,-1
 300 402 l 2,4,5
 428 402 428 402 490 353 c 128,-1,6
 552 304 552 304 552 206 c 256,7,8
 552 108 552 108 491 54 c 128,-1,9
 430 0 430 0 311 0 c 2,10,-1
 100 0 l 1,0,-1
158 51 m 1,11,-1
 303 51 l 2,12,13
 398 51 398 51 445 88.5 c 128,-1,14
 492 126 492 126 492 206 c 0,15,16
 492 290 492 290 439 320.5 c 128,-1,17
 386 351 386 351 292 351 c 2,18,-1
 158 351 l 1,19,-1
 158 51 l 1,11,-1
EndSplineSet
EndChar

StartChar: afii10047
Encoding: 1069 1069 454
Width: 621
GlyphClass: 2
Flags: W
AnchorPoint: "Anchor-2" 270 714 basechar 0
AnchorPoint: "Anchor-0" 311 0 basechar 0
LayerCount: 2
Fore
SplineSet
230 672 m 0,0,1
 184 672 184 672 139.5 662 c 128,-1,2
 95 652 95 652 57 634 c 1,3,-1
 34 684 l 1,4,5
 74 704 74 704 125.5 714 c 128,-1,6
 177 724 177 724 230 724 c 0,7,8
 341 724 341 724 414 680 c 128,-1,9
 487 636 487 636 523 555.5 c 128,-1,10
 559 475 559 475 559 366 c 0,11,12
 559 252 559 252 520 167.5 c 128,-1,13
 481 83 481 83 405.5 36.5 c 128,-1,14
 330 -10 330 -10 219 -10 c 0,15,16
 158 -10 158 -10 114 -2 c 128,-1,17
 70 6 70 6 32 19 c 1,18,-1
 32 71 l 1,19,20
 71 59 71 59 115.5 50.5 c 128,-1,21
 160 42 160 42 212 42 c 0,22,23
 350 42 350 42 422.5 123.5 c 128,-1,24
 495 205 495 205 498 346 c 1,25,-1
 124 346 l 1,26,-1
 124 398 l 1,27,-1
 498 398 l 1,28,29
 491 526 491 526 422.5 599 c 128,-1,30
 354 672 354 672 230 672 c 0,0,1
EndSplineSet
EndChar

StartChar: afii10048
Encoding: 1070 1070 455
Width: 1033
GlyphClass: 2
Flags: W
AnchorPoint: "Anchor-2" 516 714 basechar 0
AnchorPoint: "Anchor-0" 516 0 basechar 0
LayerCount: 2
Fore
SplineSet
970 358 m 0,0,1
 970 250 970 250 936.5 167 c 128,-1,2
 903 84 903 84 834.5 37 c 128,-1,3
 766 -10 766 -10 662 -10 c 0,4,5
 560 -10 560 -10 492.5 35.5 c 128,-1,6
 425 81 425 81 390.5 161.5 c 128,-1,7
 356 242 356 242 354 348 c 1,8,-1
 158 348 l 1,9,-1
 158 0 l 1,10,-1
 100 0 l 1,11,-1
 100 714 l 1,12,-1
 158 714 l 1,13,-1
 158 400 l 1,14,-1
 354 400 l 1,15,16
 359 497 359 497 395 570 c 128,-1,17
 431 643 431 643 498 684 c 128,-1,18
 565 725 565 725 662 725 c 0,19,20
 764 725 764 725 832.5 679 c 128,-1,21
 901 633 901 633 935.5 550.5 c 128,-1,22
 970 468 970 468 970 358 c 0,0,1
414 365 m 0,23,24
 414 268 414 268 440 195.5 c 128,-1,25
 466 123 466 123 521 82 c 128,-1,26
 576 41 576 41 662 41 c 256,27,28
 748 41 748 41 803 81 c 128,-1,29
 858 121 858 121 884 192.5 c 128,-1,30
 910 264 910 264 910 358 c 256,31,32
 910 452 910 452 884 522.5 c 128,-1,33
 858 593 858 593 803.5 633 c 128,-1,34
 749 673 749 673 662 673 c 0,35,36
 577 673 577 673 522 634.5 c 128,-1,37
 467 596 467 596 440.5 527 c 128,-1,38
 414 458 414 458 414 365 c 0,23,24
EndSplineSet
EndChar

StartChar: afii10049
Encoding: 1071 1071 456
Width: 608
GlyphClass: 2
Flags: W
AnchorPoint: "Anchor-2" 304 714 basechar 0
AnchorPoint: "Anchor-0" 304 0 basechar 0
LayerCount: 2
Fore
SplineSet
281 308 m 1,0,-1
 93 0 l 1,1,-1
 24 0 l 1,2,-1
 222 318 l 1,3,4
 179 329 179 329 144 351 c 128,-1,5
 109 373 109 373 88.5 412 c 128,-1,6
 68 451 68 451 68 512 c 0,7,8
 68 614 68 614 135 664 c 128,-1,9
 202 714 202 714 329 714 c 2,10,-1
 508 714 l 1,11,-1
 508 0 l 1,12,-1
 450 0 l 1,13,-1
 450 308 l 1,14,-1
 281 308 l 1,0,-1
450 663 m 1,15,-1
 332 663 l 2,16,17
 232 663 232 663 180 627.5 c 128,-1,18
 128 592 128 592 128 510 c 0,19,20
 128 434 128 434 176 396 c 128,-1,21
 224 358 224 358 316 358 c 2,22,-1
 450 358 l 1,23,-1
 450 663 l 1,15,-1
EndSplineSet
EndChar

StartChar: afii10066
Encoding: 1073 1073 458
Width: 579
GlyphClass: 2
Flags: W
AnchorPoint: "Anchor-2" 290 764 basechar 0
AnchorPoint: "Anchor-0" 290 0 basechar 0
LayerCount: 2
Fore
SplineSet
58 320 m 0,0,1
 58 474 58 474 97.5 565 c 128,-1,2
 137 656 137 656 217 690 c 1,3,4
 272 719 272 719 343 736 c 128,-1,5
 414 753 414 753 502 764 c 1,6,-1
 512 713 l 1,7,8
 420 702 420 702 349 685 c 128,-1,9
 278 668 278 668 235 644 c 0,10,11
 184 618 184 618 154 555.5 c 128,-1,12
 124 493 124 493 119 387 c 1,13,-1
 123 387 l 1,14,15
 149 432 149 432 199 463.5 c 128,-1,16
 249 495 249 495 317 495 c 0,17,18
 418 495 418 495 470.5 431.5 c 128,-1,19
 523 368 523 368 523 254 c 0,20,21
 523 132 523 132 463.5 61 c 128,-1,22
 404 -10 404 -10 292 -10 c 0,23,24
 212 -10 212 -10 160 32.5 c 128,-1,25
 108 75 108 75 83 149.5 c 128,-1,26
 58 224 58 224 58 320 c 0,0,1
296 39 m 0,27,28
 380 39 380 39 421.5 94 c 128,-1,29
 463 149 463 149 463 250 c 0,30,31
 463 345 463 345 424.5 395.5 c 128,-1,32
 386 446 386 446 310 446 c 0,33,34
 242 446 242 446 193.5 409 c 128,-1,35
 145 372 145 372 117 322 c 1,36,37
 117 269 117 269 125 218.5 c 128,-1,38
 133 168 133 168 153 127.5 c 128,-1,39
 173 87 173 87 207.5 63 c 128,-1,40
 242 39 242 39 296 39 c 0,27,28
EndSplineSet
Substitution2: "'locl' Localized Forms in Cyrillic lookup 17 subtable" afii10066.loclSRB
EndChar

StartChar: afii10067
Encoding: 1074 1074 459
Width: 568
GlyphClass: 2
Flags: W
AnchorPoint: "Anchor-2" 284 532 basechar 0
AnchorPoint: "Anchor-0" 284 0 basechar 0
LayerCount: 2
Fore
SplineSet
492 402 m 0,0,1
 492 351 492 351 465 322.5 c 128,-1,2
 438 294 438 294 394 284 c 1,3,-1
 394 280 l 1,4,5
 446 272 446 272 479 241 c 128,-1,6
 512 210 512 210 512 152 c 0,7,8
 512 83 512 83 465 41.5 c 128,-1,9
 418 0 418 0 316 0 c 2,10,-1
 88 0 l 1,11,-1
 88 532 l 1,12,-1
 310 532 l 2,13,14
 398 532 398 532 445 499.5 c 128,-1,15
 492 467 492 467 492 402 c 0,0,1
434 396 m 0,16,17
 434 437 434 437 404.5 460 c 128,-1,18
 375 483 375 483 306 483 c 2,19,-1
 145 483 l 1,20,-1
 145 304 l 1,21,-1
 298 304 l 2,22,23
 368 304 368 304 401 327 c 128,-1,24
 434 350 434 350 434 396 c 0,16,17
453 152 m 0,25,26
 453 207 453 207 415.5 231 c 128,-1,27
 378 255 378 255 304 255 c 2,28,-1
 145 255 l 1,29,-1
 145 48 l 1,30,-1
 306 48 l 2,31,32
 380 48 380 48 416.5 73 c 128,-1,33
 453 98 453 98 453 152 c 0,25,26
EndSplineSet
EndChar

StartChar: afii10068
Encoding: 1075 1075 460
Width: 424
GlyphClass: 2
Flags: W
AnchorPoint: "Anchor-2" 228 532 basechar 0
AnchorPoint: "Anchor-0" 212 0 basechar 0
LayerCount: 2
Fore
SplineSet
403 532 m 1,0,-1
 403 482 l 1,1,-1
 145 482 l 1,2,-1
 145 0 l 1,3,-1
 88 0 l 1,4,-1
 88 532 l 1,5,-1
 403 532 l 1,0,-1
EndSplineSet
EndChar

StartChar: afii10069
Encoding: 1076 1076 461
Width: 553
GlyphClass: 2
Flags: W
AnchorPoint: "Anchor-2" 277 532 basechar 0
AnchorPoint: "Anchor-0" 277 -181 basechar 0
LayerCount: 2
Fore
SplineSet
458 532 m 1,0,-1
 458 49 l 1,1,-1
 530 49 l 1,2,-1
 530 -181 l 1,3,-1
 474 -181 l 1,4,-1
 474 0 l 1,5,-1
 75 0 l 1,6,-1
 75 -181 l 1,7,-1
 20 -181 l 1,8,-1
 20 49 l 1,9,-1
 57 49 l 1,10,11
 124 143 124 143 159 267 c 128,-1,12
 194 391 194 391 196 532 c 1,13,-1
 458 532 l 1,0,-1
402 485 m 1,14,-1
 247 485 l 1,15,16
 241 359 241 359 208.5 246.5 c 128,-1,17
 176 134 176 134 118 49 c 1,18,-1
 402 49 l 1,19,-1
 402 485 l 1,14,-1
EndSplineSet
EndChar

StartChar: afii10072
Encoding: 1078 1078 463
Width: 682
GlyphClass: 2
Flags: W
AnchorPoint: "Anchor-2" 340 532 basechar 0
AnchorPoint: "Anchor-0" 341 0 basechar 0
LayerCount: 2
Fore
SplineSet
658 532 m 1,0,-1
 428 272 l 1,1,-1
 676 0 l 1,2,-1
 608 0 l 1,3,-1
 367 270 l 1,4,-1
 367 0 l 1,5,-1
 313 0 l 1,6,-1
 313 270 l 1,7,-1
 72 0 l 1,8,-1
 5 0 l 1,9,-1
 252 272 l 1,10,-1
 22 532 l 1,11,-1
 87 532 l 1,12,-1
 313 274 l 1,13,-1
 313 532 l 1,14,-1
 367 532 l 1,15,-1
 367 274 l 1,16,-1
 593 532 l 1,17,-1
 658 532 l 1,0,-1
EndSplineSet
EndChar

StartChar: afii10073
Encoding: 1079 1079 464
Width: 460
GlyphClass: 2
Flags: W
AnchorPoint: "Anchor-2" 224 532 basechar 0
AnchorPoint: "Anchor-0" 230 0 basechar 0
LayerCount: 2
Fore
SplineSet
213 542 m 0,0,1
 297 542 297 542 344.5 506 c 128,-1,2
 392 470 392 470 392 404 c 0,3,4
 392 358 392 358 366.5 328 c 128,-1,5
 341 298 341 298 296 286 c 1,6,-1
 296 282 l 1,7,8
 350 270 350 270 380 236.5 c 128,-1,9
 410 203 410 203 410 149 c 0,10,11
 410 76 410 76 355.5 33 c 128,-1,12
 301 -10 301 -10 202 -10 c 0,13,14
 148 -10 148 -10 104 -0.5 c 128,-1,15
 60 9 60 9 32 25 c 1,16,-1
 32 79 l 1,17,18
 67 61 67 61 109.5 49.5 c 128,-1,19
 152 38 152 38 202 38 c 0,20,21
 267 38 267 38 310.5 66 c 128,-1,22
 354 94 354 94 354 152 c 0,23,24
 354 208 354 208 314 232 c 128,-1,25
 274 256 274 256 196 256 c 2,26,-1
 125 256 l 1,27,-1
 125 304 l 1,28,-1
 190 304 l 2,29,30
 256 304 256 304 296 327 c 128,-1,31
 336 350 336 350 336 400 c 0,32,33
 336 493 336 493 210 493 c 0,34,35
 166 493 166 493 132.5 483.5 c 128,-1,36
 99 474 99 474 62 457 c 1,37,-1
 42 504 l 1,38,39
 80 522 80 522 122 532 c 128,-1,40
 164 542 164 542 213 542 c 0,0,1
EndSplineSet
EndChar

StartChar: afii10074
Encoding: 1080 1080 465
Width: 608
GlyphClass: 2
Flags: W
AnchorPoint: "Anchor-2" 308 532 basechar 0
AnchorPoint: "Anchor-0" 304 0 basechar 0
LayerCount: 2
Fore
SplineSet
142 532 m 1,0,-1
 142 161 l 2,1,2
 142 139 142 139 141 111.5 c 128,-1,3
 140 84 140 84 139 62 c 1,4,-1
 450 532 l 1,5,-1
 520 532 l 1,6,-1
 520 0 l 1,7,-1
 466 0 l 1,8,-1
 466 371 l 2,9,10
 466 393 466 393 466.5 422 c 128,-1,11
 467 451 467 451 468 471 c 1,12,-1
 157 0 l 1,13,-1
 88 0 l 1,14,-1
 88 532 l 1,15,-1
 142 532 l 1,0,-1
EndSplineSet
EndChar

StartChar: afii10076
Encoding: 1082 1082 467
Width: 473
GlyphClass: 2
Flags: W
AnchorPoint: "Anchor-2" 244 532 basechar 0
AnchorPoint: "Anchor-0" 237 0 basechar 0
LayerCount: 2
Fore
SplineSet
382 532 m 1,0,-1
 448 532 l 1,1,-1
 209 274 l 1,2,-1
 462 0 l 1,3,-1
 394 0 l 1,4,-1
 145 270 l 1,5,-1
 145 0 l 1,6,-1
 88 0 l 1,7,-1
 88 532 l 1,8,-1
 145 532 l 1,9,-1
 145 274 l 1,10,-1
 382 532 l 1,0,-1
EndSplineSet
EndChar

StartChar: afii10077
Encoding: 1083 1083 468
Width: 552
GlyphClass: 2
Flags: W
AnchorPoint: "Anchor-2" 276 532 basechar 0
AnchorPoint: "Anchor-0" 276 0 basechar 0
LayerCount: 2
Fore
SplineSet
464 0 m 1,0,-1
 406 0 l 1,1,-1
 406 483 l 1,2,-1
 226 483 l 1,3,4
 214 315 214 315 194 207 c 128,-1,5
 174 99 174 99 139 47 c 128,-1,6
 104 -5 104 -5 45 -5 c 0,7,8
 32 -5 32 -5 22 -3.5 c 128,-1,9
 12 -2 12 -2 6 -1 c 1,10,-1
 6 45 l 1,11,12
 15 41 15 41 36 41 c 0,13,14
 97 41 97 41 128.5 160.5 c 128,-1,15
 160 280 160 280 176 532 c 1,16,-1
 464 532 l 1,17,-1
 464 0 l 1,0,-1
EndSplineSet
EndChar

StartChar: afii10078
Encoding: 1084 1084 469
Width: 689
GlyphClass: 2
Flags: W
AnchorPoint: "Anchor-2" 344 532 basechar 0
AnchorPoint: "Anchor-0" 344 0 basechar 0
LayerCount: 2
Fore
SplineSet
616 532 m 1,0,-1
 616 0 l 1,1,-1
 564 0 l 1,2,-1
 564 374 l 2,3,4
 564 395 564 395 564 415.5 c 128,-1,5
 564 436 564 436 566 458 c 1,6,-1
 564 458 l 1,7,-1
 375 0 l 1,8,-1
 326 0 l 1,9,-1
 139 458 l 1,10,-1
 136 458 l 1,11,12
 138 436 138 436 138 415.5 c 128,-1,13
 138 395 138 395 138 371 c 2,14,-1
 138 0 l 1,15,-1
 86 0 l 1,16,-1
 86 532 l 1,17,-1
 164 532 l 1,18,-1
 350 70 l 1,19,-1
 540 532 l 1,20,-1
 616 532 l 1,0,-1
EndSplineSet
EndChar

StartChar: afii10079
Encoding: 1085 1085 470
Width: 616
GlyphClass: 2
Flags: W
AnchorPoint: "Anchor-2" 308 532 basechar 0
AnchorPoint: "Anchor-0" 308 0 basechar 0
LayerCount: 2
Fore
SplineSet
145 532 m 1,0,-1
 145 301 l 1,1,-1
 471 301 l 1,2,-1
 471 532 l 1,3,-1
 528 532 l 1,4,-1
 528 0 l 1,5,-1
 471 0 l 1,6,-1
 471 252 l 1,7,-1
 145 252 l 1,8,-1
 145 0 l 1,9,-1
 88 0 l 1,10,-1
 88 532 l 1,11,-1
 145 532 l 1,0,-1
EndSplineSet
EndChar

StartChar: afii10081
Encoding: 1087 1087 472
Width: 606
GlyphClass: 2
Flags: W
AnchorPoint: "Anchor-2" 303 532 basechar 0
AnchorPoint: "Anchor-0" 303 0 basechar 0
LayerCount: 2
Fore
SplineSet
517 532 m 1,0,-1
 517 0 l 1,1,-1
 460 0 l 1,2,-1
 460 482 l 1,3,-1
 145 482 l 1,4,-1
 145 0 l 1,5,-1
 88 0 l 1,6,-1
 88 532 l 1,7,-1
 517 532 l 1,0,-1
EndSplineSet
EndChar

StartChar: afii10084
Encoding: 1090 1090 475
Width: 452
GlyphClass: 2
Flags: W
AnchorPoint: "Anchor-2" 226 532 basechar 0
AnchorPoint: "Anchor-0" 226 0 basechar 0
LayerCount: 2
Fore
SplineSet
432 482 m 1,0,-1
 254 482 l 1,1,-1
 254 0 l 1,2,-1
 197 0 l 1,3,-1
 197 482 l 1,4,-1
 20 482 l 1,5,-1
 20 532 l 1,6,-1
 432 532 l 1,7,-1
 432 482 l 1,0,-1
EndSplineSet
EndChar

StartChar: afii10086
Encoding: 1092 1092 477
Width: 681
GlyphClass: 2
Flags: W
AnchorPoint: "Anchor-2" 341 760 basechar 0
AnchorPoint: "Anchor-0" 341 -240 basechar 0
LayerCount: 2
Fore
SplineSet
368 760 m 1,0,-1
 368 540 l 1,1,2
 487 532 487 532 555.5 460 c 128,-1,3
 624 388 624 388 624 266 c 0,4,5
 624 149 624 149 557 74.5 c 128,-1,6
 490 0 490 0 368 -8 c 1,7,-1
 368 -240 l 1,8,-1
 312 -240 l 1,9,-1
 312 -8 l 1,10,11
 193 -1 193 -1 124.5 71.5 c 128,-1,12
 56 144 56 144 56 266 c 256,13,14
 56 388 56 388 123.5 460 c 128,-1,15
 191 532 191 532 314 540 c 1,16,-1
 314 760 l 1,17,-1
 368 760 l 1,0,-1
314 491 m 1,18,19
 214 484 214 484 164.5 425 c 128,-1,20
 115 366 115 366 115 266 c 0,21,22
 115 164 115 164 165 105 c 128,-1,23
 215 46 215 46 314 40 c 1,24,-1
 314 491 l 1,18,19
368 490 m 1,25,-1
 368 40 l 1,26,27
 466 48 466 48 515.5 108 c 128,-1,28
 565 168 565 168 565 266 c 0,29,30
 565 367 565 367 515.5 425 c 128,-1,31
 466 483 466 483 368 490 c 1,25,-1
EndSplineSet
EndChar

StartChar: afii10088
Encoding: 1094 1094 479
Width: 604
GlyphClass: 2
Flags: W
AnchorPoint: "Anchor-2" 298 532 basechar 0
AnchorPoint: "Anchor-0" 298 -181 basechar 0
LayerCount: 2
Fore
SplineSet
581 -181 m 1,0,-1
 525 -181 l 1,1,-1
 525 0 l 1,2,-1
 88 0 l 1,3,-1
 88 532 l 1,4,-1
 145 532 l 1,5,-1
 145 49 l 1,6,-1
 452 49 l 1,7,-1
 452 532 l 1,8,-1
 509 532 l 1,9,-1
 509 49 l 1,10,-1
 581 49 l 1,11,-1
 581 -181 l 1,0,-1
EndSplineSet
EndChar

StartChar: afii10089
Encoding: 1095 1095 480
Width: 586
GlyphClass: 2
Flags: W
AnchorPoint: "Anchor-2" 290 532 basechar 0
AnchorPoint: "Anchor-0" 294 0 basechar 0
LayerCount: 2
Fore
SplineSet
136 532 m 1,0,-1
 136 350 l 2,1,2
 136 287 136 287 168 258.5 c 128,-1,3
 200 230 200 230 261 230 c 0,4,5
 314 230 314 230 357.5 247 c 128,-1,6
 401 264 401 264 442 292 c 1,7,-1
 442 532 l 1,8,-1
 498 532 l 1,9,-1
 498 0 l 1,10,-1
 442 0 l 1,11,-1
 442 244 l 1,12,13
 398 214 398 214 354 197.5 c 128,-1,14
 310 181 310 181 251 181 c 0,15,16
 166 181 166 181 122.5 224.5 c 128,-1,17
 79 268 79 268 79 344 c 2,18,-1
 79 532 l 1,19,-1
 136 532 l 1,0,-1
EndSplineSet
EndChar

StartChar: afii10090
Encoding: 1096 1096 481
Width: 861
GlyphClass: 2
Flags: W
AnchorPoint: "Anchor-2" 430 532 basechar 0
AnchorPoint: "Anchor-0" 430 0 basechar 0
LayerCount: 2
Fore
SplineSet
772 532 m 1,0,-1
 772 0 l 1,1,-1
 87 0 l 1,2,-1
 87 532 l 1,3,-1
 144 532 l 1,4,-1
 144 49 l 1,5,-1
 401 49 l 1,6,-1
 401 532 l 1,7,-1
 458 532 l 1,8,-1
 458 49 l 1,9,-1
 716 49 l 1,10,-1
 716 532 l 1,11,-1
 772 532 l 1,0,-1
EndSplineSet
EndChar

StartChar: afii10091
Encoding: 1097 1097 482
Width: 868
GlyphClass: 2
Flags: W
AnchorPoint: "Anchor-2" 430 532 basechar 0
AnchorPoint: "Anchor-0" 430 0 basechar 0
LayerCount: 2
Fore
SplineSet
772 532 m 1,0,-1
 772 49 l 1,1,-1
 845 49 l 1,2,-1
 845 -181 l 1,3,-1
 788 -181 l 1,4,-1
 788 0 l 1,5,-1
 87 0 l 1,6,-1
 87 532 l 1,7,-1
 144 532 l 1,8,-1
 144 49 l 1,9,-1
 401 49 l 1,10,-1
 401 532 l 1,11,-1
 458 532 l 1,12,-1
 458 49 l 1,13,-1
 716 49 l 1,14,-1
 716 532 l 1,15,-1
 772 532 l 1,0,-1
EndSplineSet
EndChar

StartChar: afii10092
Encoding: 1098 1098 483
Width: 656
GlyphClass: 2
Flags: W
AnchorPoint: "Anchor-2" 328 532 basechar 0
AnchorPoint: "Anchor-0" 328 0 basechar 0
LayerCount: 2
Fore
SplineSet
240 532 m 1,0,-1
 240 309 l 1,1,-1
 417 309 l 2,2,3
 515 309 515 309 562 269.5 c 128,-1,4
 609 230 609 230 609 160 c 0,5,6
 609 85 609 85 561.5 42.5 c 128,-1,7
 514 0 514 0 410 0 c 2,8,-1
 182 0 l 1,9,-1
 182 482 l 1,10,-1
 20 482 l 1,11,-1
 20 532 l 1,12,-1
 240 532 l 1,0,-1
414 260 m 2,13,-1
 240 260 l 1,14,-1
 240 48 l 1,15,-1
 408 48 l 2,16,17
 552 48 552 48 552 158 c 0,18,19
 552 260 552 260 414 260 c 2,13,-1
EndSplineSet
EndChar

StartChar: afii10093
Encoding: 1099 1099 484
Width: 734
GlyphClass: 2
Flags: W
AnchorPoint: "Anchor-2" 365 532 basechar 0
AnchorPoint: "Anchor-0" 367 0 basechar 0
LayerCount: 2
Fore
SplineSet
88 0 m 1,0,-1
 88 532 l 1,1,-1
 145 532 l 1,2,-1
 145 309 l 1,3,-1
 318 309 l 2,4,5
 414 309 414 309 459 269.5 c 128,-1,6
 504 230 504 230 504 160 c 0,7,8
 504 85 504 85 457 42.5 c 128,-1,9
 410 0 410 0 309 0 c 2,10,-1
 88 0 l 1,0,-1
589 0 m 1,11,-1
 589 532 l 1,12,-1
 646 532 l 1,13,-1
 646 0 l 1,14,-1
 589 0 l 1,11,-1
145 48 m 1,15,-1
 303 48 l 2,16,17
 446 48 446 48 446 158 c 0,18,19
 446 260 446 260 310 260 c 2,20,-1
 145 260 l 1,21,-1
 145 48 l 1,15,-1
EndSplineSet
EndChar

StartChar: afii10094
Encoding: 1100 1100 485
Width: 574
GlyphClass: 2
Flags: W
AnchorPoint: "Anchor-2" 287 532 basechar 0
AnchorPoint: "Anchor-0" 287 0 basechar 0
LayerCount: 2
Fore
SplineSet
145 309 m 1,0,-1
 328 309 l 2,1,2
 424 309 424 309 470 269.5 c 128,-1,3
 516 230 516 230 516 160 c 0,4,5
 516 85 516 85 468 42.5 c 128,-1,6
 420 0 420 0 319 0 c 2,7,-1
 88 0 l 1,8,-1
 88 532 l 1,9,-1
 145 532 l 1,10,-1
 145 309 l 1,0,-1
458 158 m 0,11,12
 458 260 458 260 321 260 c 2,13,-1
 145 260 l 1,14,-1
 145 48 l 1,15,-1
 315 48 l 2,16,17
 458 48 458 48 458 158 c 0,11,12
EndSplineSet
EndChar

